<svg width="550" height="426" viewBox="0 0 550 426" fill="none" xmlns="http://www.w3.org/2000/svg">
<rect x="-6.10352e-05" y="0.00219727" width="550" height="425" fill="url(#paint0_linear_23_11)"/>
<g clip-path="url(#clip0_23_11)">
<g opacity="0.41">
<path d="M487.207 24.0089C490.379 25.592 493.301 24.6571 496.422 20.9299C497.009 24.2956 498.919 26.3898 502.253 27.3497C497.895 27.3996 495.111 29.5312 494.674 33.0216C494.25 36.4247 496.247 39.4913 499.444 40.3514C502.59 41.1991 505.937 39.6284 507.26 36.674C508.796 33.246 507.497 30.1295 503.19 27.3996C506.136 27.3123 508.197 26.0034 509.632 23.8718C510.144 25.0186 510.481 26.1156 511.106 27.0256C511.743 27.9605 512.654 28.696 513.466 29.5561C509.957 30.7902 508.084 33.1213 508.059 36.1629C508.034 38.9677 509.832 41.5606 512.479 42.5454C514.177 43.1811 515.963 43.2933 517.499 42.3584C518.935 41.4858 520.133 40.2018 521.357 39.1796C522.331 43.2185 524.279 45.213 527.712 45.5122C530.434 45.749 533.206 44.0412 534.305 41.4359C535.029 39.7156 535.204 37.8707 534.267 36.2751C533.418 34.8166 532.132 33.595 531.133 32.3858C533.83 32.2238 536.003 30.7404 537.389 28.0228C538.887 32.311 540.81 34.1061 544.007 34.2806C546.404 34.4053 548.751 33.246 550.012 31.2639V23.7845C549.226 22.7 548.065 21.7401 546.604 20.8925C547.915 20.7678 549.051 20.4562 550.012 19.9576V7.71625C549.925 7.65393 549.838 7.5916 549.75 7.52927C549.838 7.50434 549.925 7.46694 550.012 7.44201V0H515.688C516.013 0.536024 516.337 1.07205 516.662 1.60807C515.488 2.41834 514.277 3.26601 513.129 4.06381C512.23 2.91697 511.281 1.72026 510.419 0.623284C510.719 0.411367 511.018 0.211917 511.318 0H503.177C501.966 0.997254 500.568 2.13163 499.169 3.27847C498.894 1.99451 498.32 0.897529 497.496 0H487.432C486.945 0.560955 486.533 1.20917 486.208 1.99451C485.147 4.59983 485.634 7.01818 487.507 9.05008C489.43 11.1443 491.94 11.9047 494.587 10.8202C496.135 10.1969 497.421 8.88803 498.495 8.12762C499.631 9.79802 500.892 11.6554 502.128 13.4754C499.943 13.8369 498.195 15.3452 496.872 17.7137C496.035 13.7247 493.613 11.5432 490.291 11.4934C487.257 11.4435 484.548 13.4629 483.774 16.3425C482.962 19.4091 484.398 22.6003 487.207 24.0089ZM541.859 2.40588C542.958 3.85189 544.181 5.43504 545.218 6.79379C543.757 7.72872 542.109 8.77584 540.635 9.72323C539.774 8.37694 538.75 6.79379 537.826 5.34778C539.137 4.40038 540.61 3.31587 541.859 2.40588ZM539.874 15.7815C540.56 17.8508 541.971 19.596 544.706 20.5933C541.522 20.9174 539.387 22.164 538.251 24.4701C537.239 22.7 536.203 20.9049 535.254 19.2345C536.627 18.1999 538.238 17.0032 539.874 15.7815ZM528.349 0.436299C529.198 1.62054 530.085 2.86711 530.921 4.03888C529.66 4.82422 528.299 5.67188 527.026 6.46969C526.301 5.4101 525.502 4.27573 524.728 3.14135C525.914 2.25629 527.163 1.32136 528.349 0.436299ZM525.69 14.5973C526.638 15.7566 527.675 17.0281 528.561 18.1002C527.175 19.1473 525.715 20.2567 524.403 21.2664C523.654 20.0199 522.793 18.5739 521.956 17.1652C523.13 16.355 524.441 15.4574 525.69 14.5973ZM523.717 26.9757C524.316 28.9702 525.602 30.8152 527.862 31.9371C525.09 32.4482 523.042 33.7446 521.881 36.3499C521.444 35.1033 521.207 33.9066 520.633 32.8969C520.058 31.8997 519.147 31.1143 518.61 30.491C520.246 29.3567 521.969 28.1849 523.717 26.9757ZM511.555 12.0169C512.454 13.251 513.441 14.6222 514.377 15.9187C513.166 16.9409 511.817 18.0877 510.706 19.0226C509.607 17.4021 508.471 15.7192 507.41 14.1361C508.621 13.5253 510.094 12.7649 511.555 12.0169Z" fill="#666666"/>
<path d="M541.772 34.6172C545.343 34.6297 548.252 37.5342 548.239 41.1118C548.227 44.677 545.318 47.5815 541.734 47.569C538.163 47.5566 535.254 44.6521 535.266 41.0744C535.279 37.5217 538.188 34.6172 541.772 34.6172Z" fill="#666666"/>
<path d="M487.632 25.3427C491.128 25.3801 494.025 28.322 493.962 31.7874C493.9 35.2903 490.928 38.1574 487.47 38.0701C484.011 37.9829 481.227 35.1282 481.227 31.7127C481.214 28.2223 484.148 25.3178 487.632 25.3427Z" fill="#666666"/>
<path d="M472.936 0C472.686 0.673147 472.536 1.39616 472.524 2.15656C472.474 5.63449 475.221 8.45173 478.704 8.52652C482.25 8.60132 485.122 5.77161 485.122 2.23136C485.122 1.44602 484.972 0.698078 484.71 0H472.936Z" fill="#666666"/>
<path d="M512.192 56.1329C508.696 56.108 505.937 53.3157 505.937 49.8378C505.937 46.2975 508.821 43.4678 512.367 43.5426C515.863 43.6174 518.597 46.4346 518.547 49.925C518.485 53.4154 515.676 56.1579 512.192 56.1329Z" fill="#666666"/>
<path d="M532.107 52.3309C532.008 55.8213 529.173 58.4516 525.64 58.3394C522.156 58.2396 519.509 55.4099 519.621 51.8821C519.721 48.4042 522.556 45.7615 526.089 45.8737C529.573 45.9734 532.207 48.8031 532.107 52.3309Z" fill="#666666"/>
<path d="M476.482 9.32427C480.003 9.29934 482.762 12.0169 482.75 15.5197C482.75 18.9478 480.053 21.6778 476.632 21.7027C473.111 21.7276 470.351 19.0101 470.364 15.5072C470.364 12.0792 473.048 9.3492 476.482 9.32427Z" fill="#666666"/>
<path d="M499.007 41.386C502.503 41.411 505.2 44.2033 505.137 47.7186C505.087 51.1217 502.328 53.7894 498.869 53.7645C495.373 53.7395 492.676 50.9472 492.739 47.4319C492.789 44.0163 495.548 41.3611 499.007 41.386Z" fill="#666666"/>
<path d="M550 46.3599V40.3639C549.501 41.249 549.213 42.2587 549.213 43.3432C549.213 44.4402 549.501 45.4624 550 46.3599Z" fill="#666666"/>
<path d="M533.356 54.7493C533.319 51.4459 536.053 48.6411 539.387 48.5788C542.758 48.5164 545.63 51.3461 545.617 54.7243C545.605 58.0402 542.821 60.8076 539.512 60.8201C536.178 60.8201 533.394 58.0776 533.356 54.7493Z" fill="#666666"/>
<path d="M473.91 35.1159C470.613 35.0785 467.941 32.3983 467.954 29.1074C467.966 25.7541 470.763 23.0242 474.097 23.1114C477.406 23.1987 480.04 25.9287 479.978 29.2071C479.916 32.5105 477.194 35.1533 473.91 35.1159Z" fill="#666666"/>
<path d="M479.316 44.7393C479.479 41.4235 482.25 38.8555 485.522 38.9802C488.905 39.1173 491.528 41.9719 491.315 45.3003C491.103 48.6286 488.306 51.1467 485.035 50.9722C481.701 50.7852 479.154 48.0053 479.316 44.7393Z" fill="#666666"/>
<path d="M459.351 0C459.538 3.05409 461.973 5.4475 465.057 5.50983C468.291 5.57216 470.876 3.16628 471.05 0H459.351Z" fill="#666666"/>
<path d="M510.007 69.2843C506.736 69.2967 504.126 66.7288 504.114 63.4753C504.101 60.2093 506.673 57.6039 509.932 57.5915C513.203 57.579 515.813 60.1469 515.826 63.4005C515.838 66.6665 513.266 69.2718 510.007 69.2843Z" fill="#666666"/>
<path d="M550 61.9046V52.0193C548.377 53.029 547.291 54.7991 547.266 56.856C547.228 58.9876 548.327 60.8575 550 61.9046Z" fill="#666666"/>
<path d="M517.748 65.6567C517.773 62.4156 520.42 59.8352 523.679 59.8726C526.926 59.91 529.498 62.5776 529.435 65.8437C529.373 69.0099 526.776 71.5529 523.579 71.5405C520.321 71.5405 517.723 68.9102 517.748 65.6567Z" fill="#666666"/>
<path d="M496.272 55.0359C499.494 54.9985 502.166 57.6537 502.166 60.8574C502.153 64.0112 499.569 66.6165 496.41 66.6539C493.188 66.6913 490.516 64.0361 490.516 60.8325C490.529 57.6911 493.126 55.0733 496.272 55.0359Z" fill="#666666"/>
<path d="M462.959 7.42949C466.181 7.44195 468.815 10.147 468.753 13.3507C468.691 16.5045 466.056 19.0724 462.91 19.06C459.688 19.0475 457.054 16.3424 457.116 13.1388C457.166 9.98495 459.8 7.41702 462.959 7.42949Z" fill="#666666"/>
<path d="M531.158 68.3493C531.121 65.2204 533.768 62.5652 536.915 62.5777C539.999 62.6026 542.571 65.1581 542.608 68.2371C542.646 71.366 539.999 74.0212 536.852 74.0087C533.768 73.9962 531.196 71.4408 531.158 68.3493Z" fill="#666666"/>
<path d="M471.675 36.9732C474.796 36.9607 477.456 39.6159 477.443 42.7448C477.431 45.8737 474.746 48.5039 471.625 48.4665C468.541 48.4167 465.981 45.8488 465.944 42.7822C465.894 39.6533 468.541 36.9857 471.675 36.9732Z" fill="#666666"/>
<path d="M460.637 21.2415C463.808 21.229 466.281 23.7097 466.281 26.876C466.268 30.0423 463.771 32.498 460.599 32.4606C457.503 32.4357 455.068 30.0049 455.043 26.9134C455.006 23.7346 457.478 21.2415 460.637 21.2415Z" fill="#666666"/>
<path d="M477.094 58.5887C477.094 55.4225 479.578 52.9543 482.75 52.9667C485.921 52.9792 488.369 55.4848 488.331 58.6511C488.294 61.7426 485.859 64.1609 482.762 64.1858C479.591 64.2232 477.106 61.755 477.094 58.5887Z" fill="#666666"/>
<path d="M550 76.0406V65.0833C547.228 65.3326 545.03 67.6512 544.993 70.4809C544.956 73.3979 547.166 75.7913 550 76.0406Z" fill="#666666"/>
<path d="M447.127 0C448.064 1.65794 449.849 2.82971 451.859 2.84217C453.895 2.86711 455.73 1.69533 456.679 0H447.127Z" fill="#666666"/>
<path d="M452.633 40.4636C452.621 37.4968 455.181 34.9787 458.14 35.0286C461.061 35.0784 463.496 37.5342 463.509 40.4387C463.521 43.4055 460.962 45.9236 458.002 45.8737C455.081 45.8238 452.646 43.3556 452.633 40.4636Z" fill="#666666"/>
<path d="M469.452 50.8974C472.424 50.9223 474.934 53.4903 474.859 56.4322C474.784 59.3491 472.299 61.7675 469.39 61.7425C466.418 61.7176 463.908 59.1497 463.983 56.2078C464.071 53.2784 466.543 50.8725 469.452 50.8974Z" fill="#666666"/>
<path d="M515.563 79.0823C515.738 76.0656 518.385 73.6722 521.294 73.8965C524.254 74.1209 526.576 76.6764 526.414 79.531C526.239 82.5477 523.592 84.9411 520.683 84.7168C517.723 84.5048 515.401 81.9494 515.563 79.0823Z" fill="#666666"/>
<path d="M507.747 82.4854C504.788 82.5228 502.241 80.0047 502.241 77.0504C502.228 74.096 504.763 71.5655 507.722 71.5904C510.631 71.6153 513.091 74.0337 513.153 76.9382C513.216 79.8925 510.719 82.448 507.747 82.4854Z" fill="#666666"/>
<path d="M443.906 11.0196C443.881 8.10266 446.303 5.64692 449.237 5.58459C452.209 5.53473 454.756 8.05279 454.719 11.0321C454.681 13.9615 452.234 16.3923 449.312 16.3799C446.378 16.3674 443.931 13.9366 443.906 11.0196Z" fill="#666666"/>
<path d="M488.668 74.3827C488.718 71.4533 491.178 69.035 494.1 69.0599C497.096 69.0848 499.581 71.6527 499.481 74.6071C499.369 77.549 496.872 79.93 493.975 79.8552C491.016 79.7679 488.618 77.2997 488.668 74.3827Z" fill="#666666"/>
<path d="M534.68 76.29C537.664 76.3274 539.961 78.6834 539.911 81.6752C539.861 84.6545 537.476 86.9357 534.467 86.8609C531.546 86.7861 529.311 84.4799 529.311 81.5505C529.336 78.5712 531.683 76.2526 534.68 76.29Z" fill="#666666"/>
<path d="M446.99 19.0351C449.936 19.0226 452.246 21.2914 452.259 24.2083C452.271 27.1502 449.999 29.4564 447.077 29.4689C444.13 29.4813 441.82 27.2126 441.808 24.2956C441.795 21.3662 444.068 19.06 446.99 19.0351Z" fill="#666666"/>
<path d="M480.54 66.9781C483.449 67.0155 485.722 69.3715 485.672 72.3134C485.622 75.2179 483.237 77.4618 480.29 77.387C477.443 77.3122 475.221 75.006 475.246 72.1389C475.258 69.2219 477.593 66.9407 480.54 66.9781Z" fill="#666666"/>
<path d="M460.937 53.8019C460.887 56.5942 458.464 58.9378 455.68 58.863C452.871 58.7882 450.548 56.3449 450.648 53.5775C450.748 50.8351 453.095 48.5788 455.817 48.5912C458.614 48.6162 460.987 51.022 460.937 53.8019Z" fill="#666666"/>
<path d="M548.202 89.3166C548.826 89.3166 549.438 89.2044 550 88.9925V79.3441C549.463 79.1446 548.876 79.02 548.277 79.02C545.48 78.995 543.108 81.3261 543.083 84.1309C543.058 86.9232 545.393 89.2917 548.202 89.3166Z" fill="#666666"/>
<path d="M471.874 70.1443C471.725 72.9242 469.34 75.1057 466.605 74.9685C463.821 74.819 461.636 72.438 461.773 69.708C461.923 66.9282 464.308 64.7467 467.042 64.8838C469.839 65.0334 472.024 67.4143 471.874 70.1443Z" fill="#666666"/>
<path d="M439.386 37.8209C439.411 35.0659 441.721 32.7847 444.48 32.8097C447.239 32.8346 449.524 35.1407 449.499 37.8956C449.474 40.6506 447.165 42.9318 444.405 42.9068C441.646 42.8819 439.361 40.5758 439.386 37.8209Z" fill="#666666"/>
<path d="M486.558 88.0077C486.571 85.2403 488.731 83.1211 491.528 83.1336C494.312 83.1461 496.422 85.3026 496.41 88.0949C496.397 90.8748 494.237 92.9815 491.44 92.969C488.656 92.9441 486.533 90.8 486.558 88.0077Z" fill="#666666"/>
<path d="M518.66 87.9703C521.444 87.9454 523.617 90.0521 523.667 92.807C523.717 95.6492 521.532 97.8556 518.697 97.8431C515.925 97.8307 513.778 95.6866 513.778 92.9192C513.765 90.1518 515.9 87.9952 518.66 87.9703Z" fill="#666666"/>
<path d="M500.118 90.3139C500.118 87.4966 502.341 85.3027 505.175 85.3525C507.934 85.3899 510.069 87.5589 510.069 90.3263C510.069 93.1436 507.847 95.3375 505.013 95.2877C502.253 95.2503 500.118 93.0812 500.118 90.3139Z" fill="#666666"/>
<path d="M430.758 8.42685C430.745 5.647 432.868 3.49044 435.64 3.46551C438.424 3.45304 440.584 5.57221 440.609 8.33959C440.622 11.1194 438.499 13.276 435.727 13.3009C432.93 13.3259 430.783 11.2067 430.758 8.42685Z" fill="#666666"/>
<path d="M527.475 95.1131C527.513 92.3831 529.748 90.2515 532.495 90.3138C535.154 90.3886 537.252 92.5701 537.214 95.2502C537.177 97.9802 534.942 100.112 532.195 100.05C529.535 99.9747 527.438 97.7808 527.475 95.1131Z" fill="#666666"/>
<path d="M428.573 22.0269C428.548 19.3966 430.733 17.1777 433.38 17.1528C436.014 17.1279 438.237 19.3094 438.262 21.9521C438.287 24.5823 436.102 26.8012 433.455 26.8262C430.82 26.8511 428.598 24.6696 428.573 22.0269Z" fill="#666666"/>
<path d="M478.13 90.6255C475.495 90.6006 473.298 88.3817 473.323 85.7389C473.348 83.1087 475.57 80.9147 478.217 80.9397C480.864 80.9646 483.049 83.1835 483.025 85.8262C483 88.4689 480.765 90.6504 478.13 90.6255Z" fill="#666666"/>
<path d="M453.183 62.5279C455.805 62.5154 458.052 64.7717 458.015 67.3895C457.977 69.9574 455.792 72.114 453.233 72.1265C450.611 72.1389 448.363 69.8826 448.401 67.2648C448.438 64.7094 450.611 62.5403 453.183 62.5279Z" fill="#666666"/>
<path d="M442.17 46.6591C444.792 46.6591 447.027 48.9403 446.977 51.5456C446.915 54.1135 444.73 56.2576 442.17 56.2576C439.548 56.2576 437.313 53.9764 437.363 51.3711C437.425 48.8032 439.61 46.6591 442.17 46.6591Z" fill="#666666"/>
<path d="M546.017 102.505C547.69 102.48 549.163 101.57 550 100.224V95.3001C549.151 93.9289 547.628 92.994 545.93 93.0189C543.345 93.0439 541.197 95.2378 541.222 97.8057C541.247 100.386 543.445 102.543 546.017 102.505Z" fill="#666666"/>
<path d="M431.182 40.2142C428.573 40.2267 426.55 38.2571 426.512 35.6767C426.475 33.0091 428.51 30.9522 431.182 30.9772C433.779 31.0021 435.765 32.9966 435.765 35.6019C435.777 38.1948 433.779 40.1893 431.182 40.2142Z" fill="#666666"/>
<path d="M464.595 87.8207C461.986 87.8331 459.963 85.8636 459.925 83.2832C459.888 80.6155 461.923 78.5587 464.595 78.5836C467.192 78.6085 469.178 80.603 469.178 83.2084C469.178 85.8012 467.192 87.7957 464.595 87.8207Z" fill="#666666"/>
<path d="M489.28 97.1325C491.765 97.1699 493.775 99.2641 493.738 101.732C493.7 104.213 491.603 106.22 489.13 106.183C486.646 106.145 484.635 104.051 484.673 101.583C484.71 99.1021 486.795 97.0826 489.28 97.1325Z" fill="#666666"/>
<path d="M498.283 103.914C498.283 101.421 500.293 99.4013 502.79 99.3764C505.35 99.3639 507.41 101.433 507.372 104.001C507.335 106.494 505.287 108.476 502.778 108.451C500.28 108.439 498.283 106.407 498.283 103.914Z" fill="#666666"/>
<path d="M417.847 6.19544C417.81 3.71477 419.832 1.633 422.305 1.5956C424.789 1.55821 426.875 3.57765 426.912 6.04585C426.95 8.52652 424.927 10.6083 422.455 10.6457C419.982 10.6831 417.897 8.67611 417.847 6.19544Z" fill="#666666"/>
<path d="M511.905 106.494C511.917 104.001 513.928 101.982 516.425 101.969C518.984 101.957 521.045 104.039 520.995 106.607C520.945 109.1 518.897 111.082 516.387 111.044C513.903 111.019 511.892 109 511.905 106.494Z" fill="#666666"/>
<path d="M424.078 49.1272C424.128 46.7338 426.188 44.7144 428.573 44.7269C431.032 44.7393 433.118 46.9084 433.018 49.3392C432.918 51.745 430.808 53.7271 428.435 53.6648C426.038 53.59 424.028 51.5082 424.078 49.1272Z" fill="#666666"/>
<path d="M446.453 80.9895C446.415 78.6085 448.426 76.5268 450.823 76.4644C453.258 76.3897 455.405 78.5088 455.393 80.9521C455.38 83.3455 453.333 85.3899 450.935 85.4023C448.563 85.4023 446.503 83.3829 446.453 80.9895Z" fill="#666666"/>
<path d="M529.673 104.288C532.12 104.238 534.255 106.32 534.255 108.776C534.255 111.169 532.245 113.213 529.835 113.263C527.388 113.313 525.253 111.231 525.253 108.776C525.253 106.382 527.263 104.338 529.673 104.288Z" fill="#666666"/>
<path d="M435.39 65.0709C435.378 62.6027 437.463 60.5334 439.935 60.5458C442.407 60.5583 444.467 62.6525 444.43 65.1207C444.393 67.5266 442.382 69.5336 439.972 69.571C437.488 69.6084 435.39 67.5515 435.39 65.0709Z" fill="#666666"/>
<path d="M475.545 103.502C473.148 103.478 471.113 101.408 471.138 99.0273C471.163 96.6339 473.235 94.602 475.62 94.6269C478.018 94.6519 480.053 96.7212 480.028 99.1021C480.003 101.496 477.93 103.527 475.545 103.502Z" fill="#666666"/>
<path d="M415.35 19.7456C415.337 17.3522 417.373 15.3078 419.77 15.2829C422.167 15.2704 424.215 17.3023 424.24 19.6957C424.252 22.0892 422.217 24.1335 419.82 24.1585C417.423 24.1709 415.362 22.139 415.35 19.7456Z" fill="#666666"/>
<path d="M539.062 111.082C539.037 108.663 540.885 106.769 543.295 106.731C545.78 106.694 547.715 108.601 547.69 111.082C547.678 113.488 545.792 115.345 543.382 115.357C540.96 115.357 539.075 113.5 539.062 111.082Z" fill="#666666"/>
<path d="M413.265 33.059C413.24 30.6282 415.088 28.7583 417.51 28.7583C419.932 28.7583 421.793 30.6157 421.78 33.034C421.768 35.39 419.957 37.2225 417.61 37.2599C415.175 37.2973 413.277 35.4648 413.265 33.059Z" fill="#666666"/>
<path d="M457.715 96.7212C457.753 94.3278 459.688 92.4954 462.11 92.5577C464.433 92.62 466.231 94.5148 466.193 96.8584C466.156 99.2518 464.22 101.084 461.798 101.022C459.476 100.96 457.69 99.0772 457.715 96.7212Z" fill="#666666"/>
<path d="M422.092 62.5404C422.042 60.2591 423.953 58.302 426.25 58.2771C428.535 58.2522 430.483 60.1843 430.483 62.4656C430.483 64.6845 428.635 66.5792 426.413 66.6416C424.115 66.7288 422.13 64.834 422.092 62.5404Z" fill="#666666"/>
<path d="M433.118 78.6709C433.118 76.3897 435.053 74.4575 437.338 74.4824C439.635 74.5073 441.546 76.4645 441.496 78.7457C441.458 80.977 439.585 82.8344 437.35 82.8594C435.066 82.8718 433.118 80.9521 433.118 78.6709Z" fill="#666666"/>
<path d="M496.06 117.477C496.098 115.258 498.02 113.35 500.243 113.363C502.528 113.375 504.488 115.395 504.401 117.664C504.313 119.895 502.341 121.752 500.143 121.69C497.908 121.628 496.035 119.683 496.06 117.477Z" fill="#666666"/>
<path d="M482.825 115.332C482.775 113.114 484.648 111.181 486.895 111.156C489.118 111.132 491.041 113.026 491.041 115.258C491.041 117.427 489.243 119.272 487.058 119.359C484.835 119.434 482.887 117.576 482.825 115.332Z" fill="#666666"/>
<path d="M513.728 123.921C511.493 123.834 509.632 121.864 509.707 119.658C509.795 117.427 511.768 115.569 513.978 115.644C516.213 115.731 518.073 117.701 517.998 119.907C517.911 122.151 515.938 124.009 513.728 123.921Z" fill="#666666"/>
<path d="M448.638 98.6285C446.403 98.616 444.505 96.6838 444.555 94.465C444.592 92.2336 446.553 90.3637 448.763 90.4261C450.948 90.4884 452.758 92.3333 452.771 94.5023C452.783 96.7337 450.873 98.641 448.638 98.6285Z" fill="#666666"/>
<path d="M410.817 46.6217C410.805 44.3903 412.715 42.4831 414.95 42.4955C417.185 42.508 419.083 44.4402 419.033 46.6591C418.996 48.8406 417.173 50.6606 414.988 50.698C412.765 50.7478 410.83 48.853 410.817 46.6217Z" fill="#666666"/>
<path d="M410.83 0H406.685C405.486 0.723009 404.637 2.03191 404.624 3.47792C404.587 5.68435 406.485 7.62899 408.72 7.66639C410.93 7.70379 412.878 5.80901 412.915 3.57765C412.928 2.09423 412.066 0.747941 410.83 0Z" fill="#666666"/>
<path d="M523.417 122.438C523.38 120.182 525.24 118.312 527.5 118.324C529.698 118.337 531.508 120.119 531.533 122.326C531.57 124.582 529.71 126.452 527.45 126.439C525.253 126.414 523.455 124.632 523.417 122.438Z" fill="#666666"/>
<path d="M406.123 21.092C403.85 21.067 402.152 19.3218 402.19 17.0406C402.227 14.7843 404 13.1015 406.285 13.1638C408.483 13.2261 410.131 14.9339 410.131 17.1279C410.143 19.4091 408.395 21.1169 406.123 21.092Z" fill="#666666"/>
<path d="M473.31 116.629C471.038 116.629 469.315 114.896 469.34 112.627C469.365 110.359 471.113 108.663 473.398 108.701C475.595 108.738 477.269 110.421 477.294 112.627C477.306 114.896 475.583 116.629 473.31 116.629Z" fill="#666666"/>
<path d="M537.189 124.569C537.227 122.388 538.95 120.718 541.147 120.73C543.395 120.743 545.105 122.538 545.03 124.806C544.956 126.975 543.195 128.608 540.997 128.558C538.812 128.509 537.152 126.763 537.189 124.569Z" fill="#666666"/>
<path d="M431.17 91.8969C431.195 89.7778 433.043 88.0076 435.153 88.07C437.213 88.1448 438.924 89.9149 438.899 91.9717C438.874 94.0909 437.026 95.861 434.916 95.7987C432.855 95.7239 431.145 93.9538 431.17 91.8969Z" fill="#666666"/>
<path d="M455.805 110.433C455.78 108.302 457.553 106.507 459.688 106.507C461.823 106.507 463.596 108.289 463.571 110.421C463.546 112.49 461.836 114.223 459.763 114.26C457.628 114.323 455.83 112.577 455.805 110.433Z" fill="#666666"/>
<path d="M400.005 30.7279C400.005 28.5963 401.79 26.8262 403.938 26.8511C406.073 26.876 407.833 28.6835 407.783 30.8152C407.733 32.8845 406.01 34.5923 403.938 34.6172C401.803 34.6297 400.005 32.872 400.005 30.7279Z" fill="#666666"/>
<path d="M427.574 76.2027C427.499 78.3343 425.651 80.0421 423.516 79.9548C421.381 79.8551 419.683 77.9977 419.807 75.8661C419.92 73.7968 421.705 72.1513 423.778 72.2012C425.913 72.2386 427.649 74.071 427.574 76.2027Z" fill="#666666"/>
<path d="M412.69 56.3449C414.813 56.3698 416.586 58.2147 416.511 60.3214C416.436 62.3783 414.651 64.0861 412.603 64.0611C410.48 64.0362 408.707 62.1913 408.782 60.0846C408.857 58.0277 410.643 56.3199 412.69 56.3449Z" fill="#666666"/>
<path d="M446.141 111.468C444.043 111.506 442.42 109.922 442.395 107.841C442.382 105.746 443.981 104.138 446.066 104.138C448.089 104.138 449.674 105.672 449.724 107.679C449.787 109.785 448.226 111.431 446.141 111.468Z" fill="#666666"/>
<path d="M511.455 137.048C509.383 136.985 507.834 135.302 507.922 133.208C508.009 131.139 509.695 129.618 511.805 129.73C513.815 129.83 515.301 131.451 515.264 133.482C515.214 135.564 513.553 137.122 511.455 137.048Z" fill="#666666"/>
<path d="M391.701 0C391.564 0.411367 391.476 0.847666 391.476 1.3089C391.501 3.39066 393.137 4.96134 395.235 4.92394C397.258 4.88655 398.793 3.31587 398.818 1.29643C398.818 0.8352 398.731 0.398902 398.594 0H391.701Z" fill="#666666"/>
<path d="M494.3 131.102C494.312 129.02 495.923 127.424 498.02 127.449C500.106 127.474 501.679 129.12 501.629 131.201C501.579 133.221 500.018 134.754 497.983 134.766C495.898 134.804 494.287 133.196 494.3 131.102Z" fill="#666666"/>
<path d="M397.957 44.3903C397.932 42.296 399.518 40.6755 401.615 40.6755C403.713 40.663 405.311 42.2711 405.299 44.3653C405.286 46.3848 403.75 47.9554 401.728 48.0053C399.63 48.0427 397.982 46.472 397.957 44.3903Z" fill="#666666"/>
<path d="M389.291 14.9339C389.254 12.9269 390.815 11.3188 392.8 11.2814C394.81 11.244 396.421 12.8022 396.458 14.7843C396.496 16.7912 394.935 18.3993 392.95 18.4367C390.927 18.4741 389.316 16.9284 389.291 14.9339Z" fill="#666666"/>
<path d="M480.702 128.546C480.69 126.452 482.3 124.869 484.398 124.906C486.421 124.931 487.957 126.489 487.969 128.521C487.982 130.615 486.371 132.198 484.273 132.161C482.25 132.124 480.715 130.578 480.702 128.546Z" fill="#666666"/>
<path d="M521.607 136.001C521.594 133.981 523.142 132.41 525.153 132.386C527.25 132.361 528.849 133.956 528.811 136.05C528.786 138.057 527.2 139.591 525.178 139.578C523.167 139.566 521.607 138.008 521.607 136.001Z" fill="#666666"/>
<path d="M406.797 73.747C406.822 71.7524 408.433 70.1942 410.43 70.2192C412.428 70.2441 413.989 71.8522 413.964 73.8467C413.939 75.8412 412.328 77.3994 410.33 77.3745C408.333 77.3495 406.772 75.7539 406.797 73.747Z" fill="#666666"/>
<path d="M470.801 122.687C472.798 122.725 474.347 124.345 474.309 126.34C474.272 128.334 472.649 129.88 470.651 129.842C468.653 129.805 467.105 128.185 467.142 126.19C467.167 124.196 468.79 122.65 470.801 122.687Z" fill="#666666"/>
<path d="M421.468 93.2308C419.483 93.2682 417.847 91.6726 417.847 89.6905C417.835 87.7209 419.458 86.1004 421.431 86.1129C423.341 86.1253 424.927 87.6586 424.977 89.5659C425.027 91.5479 423.453 93.1934 421.468 93.2308Z" fill="#666666"/>
<path d="M390.24 31.987C388.355 31.962 386.732 30.3166 386.757 28.4343C386.782 26.5519 388.43 24.9314 390.315 24.9563C392.201 24.9813 393.824 26.6267 393.799 28.5091C393.774 30.3789 392.113 31.9994 390.24 31.987Z" fill="#666666"/>
<path d="M538.45 134.704C540.398 134.667 542.071 136.312 542.059 138.257C542.046 140.152 540.473 141.747 538.575 141.785C536.627 141.822 534.954 140.177 534.967 138.232C534.979 136.337 536.552 134.742 538.45 134.704Z" fill="#666666"/>
<path d="M399.093 54.4252C400.978 54.4626 402.589 56.1205 402.552 57.9904C402.514 59.8727 400.854 61.4808 398.981 61.4434C397.095 61.406 395.485 59.748 395.522 57.8782C395.547 55.9959 397.208 54.3878 399.093 54.4252Z" fill="#666666"/>
<path d="M432.78 102.032C434.666 102.044 436.302 103.677 436.289 105.559C436.277 107.442 434.641 109.075 432.755 109.062C430.87 109.05 429.234 107.417 429.247 105.534C429.247 103.652 430.895 102.019 432.78 102.032Z" fill="#666666"/>
<path d="M453.932 124.034C453.907 122.164 455.555 120.518 457.428 120.518C459.313 120.531 460.937 122.189 460.899 124.046C460.862 125.866 459.301 127.437 457.478 127.474C455.618 127.524 453.944 125.903 453.932 124.034Z" fill="#666666"/>
<path d="M407.846 84.1433C409.694 84.1682 411.092 85.6142 411.055 87.4591C411.03 89.3041 409.581 90.7002 407.733 90.6628C405.885 90.6379 404.487 89.1919 404.524 87.347C404.549 85.5145 405.998 84.1183 407.846 84.1433Z" fill="#666666"/>
<path d="M443.806 124.694C441.945 124.694 440.522 123.31 440.497 121.453C440.472 119.521 441.933 118.075 443.856 118.112C445.716 118.15 447.09 119.571 447.077 121.428C447.077 123.298 445.666 124.694 443.806 124.694Z" fill="#666666"/>
<path d="M550 143.118V137.895C549.226 138.531 548.726 139.491 548.751 140.588C548.776 141.622 549.263 142.52 550 143.118Z" fill="#666666"/>
<path d="M495.66 147.993C493.813 147.98 492.414 146.547 492.427 144.689C492.439 142.844 493.875 141.448 495.735 141.461C497.583 141.473 498.982 142.907 498.969 144.764C498.944 146.596 497.508 148.005 495.66 147.993Z" fill="#666666"/>
<path d="M387.955 38.4566C389.828 38.4317 391.252 39.8154 391.302 41.6603C391.339 43.5925 389.903 45.051 387.968 45.0385C386.107 45.026 384.709 43.6174 384.709 41.7476C384.709 39.8902 386.095 38.4691 387.955 38.4566Z" fill="#666666"/>
<path d="M378.441 0C378.853 1.25903 379.989 2.18149 381.375 2.24382C382.874 2.30615 384.147 1.34629 384.584 0H378.441Z" fill="#666666"/>
<path d="M400.004 71.3411C399.942 73.1486 398.406 74.5448 396.583 74.4575C394.773 74.3702 393.399 72.8245 393.512 71.0045C393.624 69.2593 395.085 67.9255 396.845 67.9754C398.668 68.0127 400.079 69.5211 400.004 71.3411Z" fill="#666666"/>
<path d="M519.384 149.214C519.409 147.481 520.882 146.035 522.618 146.035C524.416 146.035 525.914 147.594 525.839 149.376C525.765 151.109 524.254 152.518 522.531 152.468C520.795 152.43 519.359 150.934 519.384 149.214Z" fill="#666666"/>
<path d="M508.971 150.236C507.148 150.224 505.712 148.74 505.749 146.933C505.787 145.125 507.285 143.704 509.108 143.754C510.856 143.804 512.242 145.238 512.254 146.983C512.242 148.79 510.781 150.249 508.971 150.236Z" fill="#666666"/>
<path d="M478.817 142.159C478.804 140.339 480.265 138.88 482.088 138.893C483.911 138.905 485.347 140.376 485.322 142.196C485.297 143.941 483.886 145.35 482.138 145.375C480.315 145.412 478.829 143.966 478.817 142.159Z" fill="#666666"/>
<path d="M415.899 103.191C415.937 101.383 417.448 99.9622 419.258 100.025C421.069 100.087 422.467 101.608 422.392 103.428C422.317 105.173 420.869 106.532 419.108 106.507C417.285 106.494 415.849 105.011 415.899 103.191Z" fill="#666666"/>
<path d="M468.466 143.056C466.755 143.069 465.257 141.585 465.244 139.877C465.232 138.17 466.718 136.674 468.428 136.661C470.139 136.649 471.637 138.132 471.65 139.84C471.662 141.548 470.176 143.044 468.466 143.056Z" fill="#666666"/>
<path d="M376.044 12.5654C376.069 10.8576 377.579 9.38664 379.278 9.41157C380.988 9.4365 382.462 10.9448 382.437 12.6402C382.412 14.348 380.901 15.8189 379.203 15.794C377.492 15.7691 376.019 14.2607 376.044 12.5654Z" fill="#666666"/>
<path d="M536.315 155.011C534.605 155.061 533.069 153.565 533.069 151.844C533.069 150.199 534.492 148.741 536.153 148.691C537.864 148.641 539.399 150.137 539.399 151.857C539.399 153.502 537.976 154.961 536.315 155.011Z" fill="#666666"/>
<path d="M382.574 55.3476C382.574 53.6273 384.11 52.1314 385.82 52.1938C387.481 52.2436 388.904 53.7021 388.904 55.3476C388.904 57.0679 387.369 58.5637 385.658 58.5014C383.997 58.4515 382.574 56.9931 382.574 55.3476Z" fill="#666666"/>
<path d="M433.33 119.259C433.255 120.979 431.657 122.413 429.959 122.288C428.285 122.164 426.924 120.655 426.999 119.01C427.074 117.29 428.673 115.856 430.371 115.981C432.044 116.118 433.417 117.626 433.33 119.259Z" fill="#666666"/>
<path d="M376.93 22.7623C378.603 22.7374 380.039 24.1086 380.089 25.7915C380.139 27.5242 378.678 29.0076 376.943 28.9827C375.27 28.9577 373.871 27.5491 373.859 25.8787C373.859 24.2083 375.257 22.7997 376.93 22.7623Z" fill="#666666"/>
<path d="M451.784 137.197C451.822 135.465 453.208 134.168 454.943 134.23C456.679 134.293 457.952 135.689 457.865 137.422C457.79 139.092 456.467 140.326 454.793 140.301C453.045 140.301 451.734 138.942 451.784 137.197Z" fill="#666666"/>
<path d="M391.526 84.7416C391.564 83.0712 392.875 81.8247 394.561 81.8496C396.234 81.887 397.482 83.1959 397.457 84.8788C397.42 86.5492 396.109 87.7957 394.423 87.7708C392.75 87.7334 391.502 86.4245 391.526 84.7416Z" fill="#666666"/>
<path d="M549.813 157.068C549.875 157.068 549.938 157.055 550 157.055V151.171C549.975 151.171 549.938 151.159 549.913 151.159C548.227 151.134 546.928 152.393 546.903 154.063C546.878 155.746 548.14 157.043 549.813 157.068Z" fill="#666666"/>
<path d="M405.461 103.64C403.788 103.615 402.527 102.306 402.552 100.623C402.577 98.9526 403.888 97.6936 405.573 97.7185C407.246 97.7434 408.508 99.0523 408.483 100.735C408.458 102.406 407.147 103.665 405.461 103.64Z" fill="#666666"/>
<path d="M441.533 137.933C439.873 137.945 438.574 136.636 438.587 134.978C438.599 133.333 439.935 132.036 441.583 132.074C443.169 132.111 444.43 133.37 444.455 134.953C444.48 136.611 443.194 137.933 441.533 137.933Z" fill="#666666"/>
<path d="M506.698 157.716C508.247 157.703 509.595 159.025 509.608 160.57C509.62 162.116 508.296 163.462 506.748 163.475C505.2 163.487 503.851 162.166 503.839 160.62C503.826 159.075 505.15 157.728 506.698 157.716Z" fill="#666666"/>
<path d="M413.639 116.579C413.627 115.008 414.913 113.687 416.486 113.65C418.122 113.612 419.495 114.983 419.458 116.616C419.433 118.187 418.097 119.471 416.536 119.471C414.963 119.446 413.652 118.15 413.639 116.579Z" fill="#666666"/>
<path d="M493.076 155.123C494.624 155.11 495.96 156.444 495.973 157.99C495.985 159.536 494.649 160.87 493.101 160.882C491.553 160.894 490.217 159.561 490.204 158.015C490.204 156.469 491.528 155.135 493.076 155.123Z" fill="#666666"/>
<path d="M371.449 39.4664C371.461 37.8209 372.785 36.5245 374.433 36.5494C376.081 36.5744 377.355 37.9207 377.317 39.5661C377.267 41.1493 375.994 42.3834 374.408 42.3958C372.747 42.4208 371.436 41.1119 371.449 39.4664Z" fill="#666666"/>
<path d="M380.227 68.8729C380.264 67.3022 381.6 66.0183 383.173 66.0307C384.809 66.0432 386.145 67.4643 386.058 69.0848C385.97 70.6555 384.609 71.9021 383.036 71.8397C381.463 71.7899 380.189 70.4436 380.227 68.8729Z" fill="#666666"/>
<path d="M517.499 162.864C517.499 161.318 518.885 159.972 520.42 160.009C521.906 160.059 523.192 161.368 523.192 162.852C523.192 164.397 521.806 165.744 520.271 165.706C518.785 165.656 517.499 164.347 517.499 162.864Z" fill="#666666"/>
<path d="M476.632 155.746C476.632 154.213 478.018 152.854 479.553 152.892C481.039 152.941 482.325 154.25 482.325 155.721C482.325 157.254 480.939 158.613 479.404 158.576C477.918 158.538 476.632 157.217 476.632 155.746Z" fill="#666666"/>
<path d="M369.314 53.0414C369.339 51.5331 370.637 50.274 372.148 50.2989C373.659 50.3239 374.92 51.6203 374.895 53.1287C374.87 54.637 373.571 55.896 372.061 55.8711C370.55 55.8462 369.289 54.5373 369.314 53.0414Z" fill="#666666"/>
<path d="M365.668 7.21765C367.179 7.24258 368.44 8.53901 368.415 10.0474C368.39 11.5557 367.091 12.8147 365.58 12.7898C364.069 12.7649 362.808 11.4684 362.833 9.9601C362.858 8.45175 364.157 7.19272 365.668 7.21765Z" fill="#666666"/>
<path d="M466.218 156.257C464.707 156.282 463.409 155.023 463.384 153.515C463.359 152.007 464.62 150.71 466.131 150.685C467.642 150.66 468.94 151.919 468.965 153.428C468.99 154.924 467.729 156.232 466.218 156.257Z" fill="#666666"/>
<path d="M425.102 132.784C425.077 131.276 426.338 129.98 427.848 129.955C429.359 129.93 430.658 131.189 430.683 132.697C430.708 134.206 429.447 135.502 427.936 135.527C426.438 135.552 425.127 134.293 425.102 132.784Z" fill="#666666"/>
<path d="M389.229 98.3916C389.241 96.8833 390.378 95.7614 391.889 95.7614C393.462 95.7614 394.623 96.9581 394.561 98.5287C394.511 100.025 393.337 101.109 391.826 101.084C390.328 101.047 389.216 99.9 389.229 98.3916Z" fill="#666666"/>
<path d="M360.686 23.5352C360.723 22.0393 361.884 20.9298 363.395 20.9548C364.956 20.9797 366.105 22.2013 366.017 23.772C365.942 25.2554 364.744 26.3275 363.233 26.2776C361.735 26.2153 360.648 25.0435 360.686 23.5352Z" fill="#666666"/>
<path d="M452.683 148.217C454.182 148.279 455.268 149.464 455.218 150.972C455.168 152.53 453.919 153.64 452.334 153.54C450.848 153.44 449.799 152.231 449.886 150.71C449.974 149.227 451.172 148.155 452.683 148.217Z" fill="#666666"/>
<path d="M531.246 165.208C531.208 163.649 532.407 162.415 533.968 162.415C535.466 162.415 536.64 163.562 536.69 165.046C536.727 166.604 535.529 167.838 533.968 167.838C532.469 167.838 531.296 166.691 531.246 165.208Z" fill="#666666"/>
<path d="M400.616 114.285C400.616 112.777 401.765 111.643 403.288 111.655C404.799 111.68 405.923 112.852 405.873 114.36C405.836 115.794 404.737 116.878 403.288 116.903C401.778 116.928 400.616 115.794 400.616 114.285Z" fill="#666666"/>
<path d="M411.704 130.129C411.716 128.745 412.915 127.574 414.301 127.586C415.687 127.599 416.861 128.795 416.848 130.179C416.836 131.563 415.637 132.734 414.251 132.722C412.865 132.71 411.691 131.513 411.704 130.129Z" fill="#666666"/>
<path d="M369.438 64.1109C370.824 64.0611 372.048 65.2204 372.086 66.6041C372.135 67.9878 370.974 69.2094 369.588 69.2468C368.202 69.2966 366.979 68.1373 366.941 66.7536C366.891 65.3824 368.053 64.1608 369.438 64.1109Z" fill="#666666"/>
<path d="M547.278 165.12C548.764 165.133 549.913 166.33 549.863 167.813C549.813 169.222 548.664 170.319 547.253 170.319C545.767 170.306 544.618 169.109 544.668 167.626C544.718 166.205 545.867 165.108 547.278 165.12Z" fill="#666666"/>
<path d="M358.189 37.1726C358.213 35.789 359.412 34.6172 360.798 34.6421C362.184 34.667 363.358 35.8637 363.333 37.2474C363.308 38.6311 362.109 39.8029 360.723 39.778C359.337 39.753 358.164 38.5563 358.189 37.1726Z" fill="#666666"/>
<path d="M380.838 85.1656C379.327 85.1531 378.204 83.9938 378.229 82.473C378.266 80.9771 379.44 79.8552 380.963 79.9175C382.399 79.9674 383.473 81.0768 383.485 82.5228C383.498 84.0436 382.362 85.178 380.838 85.1656Z" fill="#666666"/>
<path d="M438.861 146.035C440.247 145.998 441.458 147.157 441.496 148.541C441.533 149.925 440.372 151.134 438.986 151.171C437.6 151.209 436.389 150.049 436.351 148.666C436.314 147.294 437.475 146.073 438.861 146.035Z" fill="#666666"/>
<path d="M490.791 174.083C489.467 174.058 488.331 172.886 488.356 171.565C488.381 170.244 489.555 169.109 490.878 169.134C492.202 169.159 493.338 170.331 493.313 171.652C493.288 172.974 492.102 174.108 490.791 174.083Z" fill="#666666"/>
<path d="M501.966 173.834C501.991 172.513 503.165 171.378 504.488 171.403C505.812 171.428 506.948 172.6 506.923 173.921C506.898 175.243 505.724 176.377 504.401 176.352C503.077 176.327 501.941 175.143 501.966 173.834Z" fill="#666666"/>
<path d="M378.404 93.7544C379.715 93.8167 380.701 94.8763 380.664 96.1977C380.639 97.5813 379.515 98.616 378.129 98.5412C376.755 98.4664 375.757 97.3196 375.881 95.9359C375.994 94.627 377.08 93.6796 378.404 93.7544Z" fill="#666666"/>
<path d="M515.351 176.501C515.326 175.18 516.312 174.121 517.624 174.058C519.009 173.996 520.121 175.031 520.146 176.414C520.171 177.798 519.097 178.87 517.711 178.857C516.387 178.833 515.376 177.823 515.351 176.501Z" fill="#666666"/>
<path d="M356.091 50.4735C356.103 49.0898 357.202 48.0427 358.588 48.0925C359.912 48.1424 360.898 49.177 360.886 50.4984C360.873 51.8821 359.774 52.9292 358.388 52.8793C357.077 52.8295 356.078 51.7948 356.091 50.4735Z" fill="#666666"/>
<path d="M474.809 169.371C474.784 168.05 475.77 167.003 477.094 166.94C478.48 166.878 479.591 167.913 479.616 169.296C479.641 170.68 478.555 171.752 477.169 171.727C475.833 171.702 474.821 170.692 474.809 169.371Z" fill="#666666"/>
<path d="M387.231 111.992C387.244 110.608 388.342 109.561 389.728 109.623C391.039 109.673 392.038 110.72 392.026 112.041C392.013 113.425 390.915 114.472 389.529 114.41C388.205 114.36 387.219 113.313 387.231 111.992Z" fill="#666666"/>
<path d="M529.073 178.745C529.061 177.412 530.097 176.402 531.433 176.439C532.694 176.477 533.656 177.449 533.668 178.72C533.681 180.054 532.644 181.064 531.308 181.027C530.047 180.989 529.086 180.017 529.073 178.745Z" fill="#666666"/>
<path d="M461.249 166.753C461.236 165.407 462.223 164.41 463.571 164.41C464.92 164.397 465.919 165.382 465.919 166.728C465.931 168.075 464.945 169.072 463.596 169.072C462.235 169.084 461.249 168.112 461.249 166.753Z" fill="#666666"/>
<path d="M398.356 127.823C398.394 126.502 399.468 125.517 400.804 125.592C402.065 125.666 402.989 126.676 402.951 127.948C402.914 129.269 401.84 130.254 400.504 130.179C399.255 130.104 398.319 129.094 398.356 127.823Z" fill="#666666"/>
<path d="M367.179 77.6612C368.515 77.6238 369.551 78.6335 369.538 79.9673C369.526 81.2388 368.577 82.2111 367.303 82.2485C365.967 82.2859 364.931 81.2762 364.944 79.9424C364.956 78.6709 365.918 77.6986 367.179 77.6612Z" fill="#666666"/>
<path d="M351.945 5.41014C353.294 5.38521 354.305 6.34507 354.33 7.69136C354.355 9.03765 353.394 10.0474 352.045 10.0723C350.697 10.0972 349.685 9.13738 349.661 7.79109C349.636 6.44479 350.597 5.43507 351.945 5.41014Z" fill="#666666"/>
<path d="M425.289 148.354C423.94 148.342 422.954 147.357 422.966 146.011C422.979 144.664 423.965 143.679 425.314 143.692C426.662 143.704 427.649 144.689 427.636 146.035C427.636 147.382 426.65 148.354 425.289 148.354Z" fill="#666666"/>
<path d="M448.014 164.447C448.039 163.213 449.075 162.203 450.311 162.216C451.547 162.241 452.558 163.276 452.546 164.51C452.521 165.744 451.485 166.753 450.249 166.741C449.012 166.716 448.001 165.681 448.014 164.447Z" fill="#666666"/>
<path d="M349.673 19.085C350.909 19.0476 351.971 20.0573 351.995 21.2914C352.033 22.5255 351.022 23.5851 349.785 23.61C348.549 23.6474 347.488 22.6377 347.463 21.4036C347.426 20.1695 348.437 19.1099 349.673 19.085Z" fill="#666666"/>
<path d="M356.266 61.8547C357.464 61.8921 358.501 62.9891 358.438 64.1733C358.376 65.37 357.252 66.4296 356.066 66.2925C354.792 66.1429 354.031 65.3575 353.981 64.0611C353.943 62.8769 355.08 61.8298 356.266 61.8547Z" fill="#666666"/>
<path d="M409.769 143.767C409.756 142.57 410.83 141.51 412.029 141.523C413.227 141.535 414.326 142.632 414.226 143.817C414.114 145.1 413.352 145.873 412.066 145.973C410.867 146.06 409.781 144.963 409.769 143.767Z" fill="#666666"/>
<path d="M434.479 162.253C434.454 161.094 435.453 160.059 436.614 160.034C437.775 160.009 438.811 161.007 438.836 162.166C438.861 163.325 437.862 164.36 436.701 164.385C435.54 164.41 434.504 163.413 434.479 162.253Z" fill="#666666"/>
<path d="M347.5 32.4482C348.662 32.4731 349.661 33.5078 349.636 34.6671C349.611 35.8264 348.574 36.8237 347.413 36.7987C346.252 36.7738 345.253 35.7391 345.278 34.5798C345.303 33.4205 346.339 32.4233 347.5 32.4482Z" fill="#666666"/>
<path d="M542.758 181.363C542.733 180.166 543.782 179.094 544.981 179.082C546.179 179.082 547.29 180.154 547.203 181.338C547.116 182.635 546.354 183.395 545.068 183.52C543.894 183.644 542.795 182.56 542.758 181.363Z" fill="#666666"/>
<path d="M384.934 125.679C384.896 124.482 385.845 123.473 387.044 123.535C388.305 123.585 389.029 124.295 389.117 125.554C389.204 126.751 388.218 127.723 387.019 127.711C385.87 127.698 384.971 126.826 384.934 125.679Z" fill="#666666"/>
<path d="M373.909 109.511C373.909 108.227 374.882 107.255 376.081 107.342C377.342 107.429 378.041 108.165 378.091 109.424C378.141 110.62 377.13 111.593 375.931 111.506C374.67 111.418 374.008 110.67 373.909 109.511Z" fill="#666666"/>
<path d="M362.883 93.6297C362.896 92.3458 363.882 91.3859 365.081 91.4856C366.342 91.5978 367.029 92.3333 367.066 93.5923C367.104 94.789 366.08 95.7489 364.881 95.6492C363.62 95.537 362.971 94.789 362.883 93.6297Z" fill="#666666"/>
<path d="M474.946 184.629C473.772 184.642 472.898 183.769 472.911 182.597C472.923 181.425 473.822 180.553 474.996 180.615C476.207 180.678 476.881 181.363 476.944 182.56C477.006 183.732 476.12 184.617 474.946 184.629Z" fill="#666666"/>
<path d="M423.241 157.653C424.215 157.753 424.939 158.352 425.002 159.573C425.064 160.732 424.128 161.655 422.966 161.58C421.755 161.493 421.106 160.795 421.081 159.586C421.056 158.489 421.93 157.653 423.241 157.653Z" fill="#666666"/>
<path d="M342.868 48.3045C342.956 47.0953 343.53 46.3599 344.754 46.2601C345.915 46.1729 346.864 47.0704 346.814 48.2422C346.764 49.4513 346.09 50.1494 344.878 50.1744C343.655 50.1868 343.03 49.4638 342.868 48.3045Z" fill="#666666"/>
<path d="M459.326 180.428C459.413 179.219 459.988 178.484 461.211 178.384C462.373 178.297 463.321 179.194 463.272 180.366C463.222 181.575 462.547 182.273 461.336 182.298C460.1 182.31 459.488 181.587 459.326 180.428Z" fill="#666666"/>
<path d="M353.706 75.7041C354.867 75.8662 355.566 76.4894 355.579 77.7111C355.591 78.8704 354.63 79.7679 353.469 79.6433C352.258 79.5186 351.608 78.7956 351.658 77.5864C351.721 76.3648 352.495 75.7789 353.706 75.7041Z" fill="#666666"/>
<path d="M398.406 143.468C397.22 143.355 396.483 142.757 396.421 141.535C396.359 140.376 397.283 139.441 398.444 139.516C399.655 139.591 400.342 140.289 400.342 141.498C400.329 142.732 399.58 143.343 398.406 143.468Z" fill="#666666"/>
<path d="M513.491 190.139C513.578 188.93 514.152 188.194 515.376 188.095C516.537 188.007 517.486 188.905 517.436 190.077C517.386 191.286 516.712 191.984 515.501 192.009C514.277 192.034 513.653 191.298 513.491 190.139Z" fill="#666666"/>
<path d="M501.891 189.478C500.717 189.491 499.843 188.631 499.843 187.459C499.843 186.287 500.73 185.402 501.903 185.464C503.115 185.527 503.789 186.187 503.864 187.397C503.939 188.568 503.065 189.466 501.891 189.478Z" fill="#666666"/>
<path d="M486.546 185.277C486.508 184.106 487.357 183.208 488.518 183.183C489.692 183.158 490.604 184.018 490.566 185.203C490.529 186.412 489.879 187.11 488.681 187.21C487.507 187.309 486.583 186.449 486.546 185.277Z" fill="#666666"/>
<path d="M338.835 3.17871C339.834 3.24104 340.571 3.82693 340.671 5.04856C340.758 6.20787 339.859 7.15526 338.685 7.1054C337.474 7.05554 336.8 6.38239 336.737 5.17322C336.687 4.07624 337.537 3.21611 338.835 3.17871Z" fill="#666666"/>
<path d="M333.953 18.3495C334.665 17.8508 335.314 17.1278 336.101 16.9284C337.062 16.6791 338.098 17.8508 337.974 18.8605C337.836 19.9575 337.112 20.7803 336.051 20.5683C335.277 20.4188 334.64 19.6085 333.941 19.0849C333.953 18.8481 333.953 18.5988 333.953 18.3495Z" fill="#666666"/>
<path d="M527.138 192.507C527.25 191.223 527.85 190.438 529.073 190.426C530.284 190.413 531.009 191.136 531.021 192.345C531.034 193.48 530.334 194.178 529.223 194.253C527.987 194.315 527.375 193.542 527.138 192.507Z" fill="#666666"/>
<path d="M340.433 61.4682C341.133 60.9571 341.769 60.2217 342.556 59.9973C343.505 59.723 344.566 60.8823 344.466 61.8921C344.354 63.0015 343.642 63.8242 342.568 63.6373C341.794 63.5001 341.145 62.7023 340.433 62.2037C340.446 61.9544 340.433 61.7051 340.433 61.4682Z" fill="#666666"/>
<path d="M409.069 159.511C408.558 158.813 407.821 158.177 407.584 157.404C407.296 156.469 408.458 155.397 409.469 155.484C410.58 155.584 411.404 156.295 411.23 157.367C411.105 158.14 410.306 158.8 409.806 159.498C409.556 159.498 409.319 159.498 409.069 159.511Z" fill="#666666"/>
<path d="M445.541 177.636C446.266 177.15 446.927 176.439 447.714 176.252C448.675 176.015 449.699 177.225 449.549 178.222C449.387 179.319 448.65 180.117 447.589 179.892C446.827 179.73 446.203 178.907 445.516 178.371C445.529 178.122 445.541 177.885 445.541 177.636Z" fill="#666666"/>
<path d="M542.371 196.671C541.884 195.96 541.01 195.237 541.047 194.552C541.072 193.941 542.034 193.006 542.721 192.869C543.794 192.657 544.656 193.53 544.481 194.627C544.369 195.35 543.595 195.973 543.12 196.646C542.858 196.659 542.608 196.659 542.371 196.671Z" fill="#666666"/>
<path d="M361.959 109.224C361.497 108.501 360.636 107.753 360.686 107.068C360.736 106.457 361.722 105.559 362.409 105.435C363.495 105.248 364.319 106.158 364.119 107.242C363.982 107.965 363.196 108.564 362.696 109.224C362.446 109.224 362.209 109.224 361.959 109.224Z" fill="#666666"/>
<path d="M373.621 120.506C374.495 121.59 375.307 122.164 375.469 122.887C375.719 123.971 374.945 124.757 373.809 124.806C372.672 124.856 371.848 124.133 371.998 123.036C372.086 122.301 372.835 121.665 373.621 120.506Z" fill="#666666"/>
<path d="M432.006 175.018C432.743 174.569 433.517 173.734 434.191 173.809C434.803 173.871 435.677 174.881 435.777 175.567C435.94 176.651 435.016 177.461 433.929 177.225C433.205 177.075 432.631 176.265 431.981 175.754C431.994 175.504 432.006 175.267 432.006 175.018Z" fill="#666666"/>
<path d="M331.78 31.8872C332.517 31.4384 333.279 30.6032 333.965 30.6655C334.577 30.7279 335.464 31.7251 335.564 32.4232C335.726 33.5077 334.802 34.318 333.716 34.0811C332.992 33.9315 332.417 33.1337 331.768 32.6226C331.768 32.3858 331.768 32.1365 331.78 31.8872Z" fill="#666666"/>
<path d="M384.284 140.837C383.872 140.152 383.198 139.491 383.123 138.78C383.011 137.708 383.885 136.985 384.896 137.272C385.533 137.447 386.357 138.344 386.37 138.93C386.382 139.578 385.558 140.226 385.096 140.875C384.809 140.862 384.547 140.85 384.284 140.837Z" fill="#666666"/>
<path d="M393.861 154.462C394.461 154.013 395.023 153.315 395.684 153.178C396.733 152.966 397.557 153.714 397.345 154.761C397.22 155.385 396.396 156.22 395.784 156.307C395.21 156.394 394.523 155.622 393.886 155.223C393.886 154.961 393.874 154.712 393.861 154.462Z" fill="#666666"/>
<path d="M349.386 90.8623C350.06 90.4385 350.697 89.7529 351.421 89.6532C352.495 89.516 353.244 90.3637 352.982 91.3734C352.82 92.0092 351.946 92.8568 351.359 92.8818C350.722 92.9067 350.035 92.0964 349.373 91.6601C349.386 91.3984 349.386 91.1241 349.386 90.8623Z" fill="#666666"/>
<path d="M418.871 172.787C419.508 172.388 420.195 171.603 420.756 171.69C421.368 171.777 422.192 172.587 422.33 173.211C422.554 174.245 421.73 175.006 420.682 174.806C420.007 174.682 419.458 173.984 418.846 173.547C418.859 173.285 418.859 173.036 418.871 172.787Z" fill="#666666"/>
<path d="M340.296 73.5101C340.746 74.1085 341.457 74.6694 341.582 75.3301C341.794 76.3772 341.045 77.2 340.009 77.0005C339.385 76.8759 338.548 76.0531 338.461 75.4548C338.373 74.8814 339.147 74.1957 339.547 73.5475C339.784 73.5226 340.034 73.5101 340.296 73.5101Z" fill="#666666"/>
<path d="M329.321 45.612C329.932 45.1757 330.507 44.4901 331.169 44.3654C332.23 44.1784 333.029 44.9388 332.804 45.9735C332.667 46.5968 331.818 47.407 331.219 47.4818C330.644 47.5566 329.97 46.7713 329.333 46.3599C329.333 46.1106 329.333 45.8613 329.321 45.612Z" fill="#666666"/>
<path d="M499.244 202.979C498.807 202.368 498.12 201.794 498.008 201.134C497.821 200.074 498.595 199.276 499.631 199.513C500.255 199.65 501.067 200.498 501.142 201.096C501.217 201.67 500.43 202.343 500.018 202.966C499.743 202.979 499.494 202.979 499.244 202.979Z" fill="#666666"/>
<path d="M486.408 196.908C486.808 197.544 487.582 198.229 487.507 198.803C487.42 199.413 486.608 200.236 485.971 200.373C484.935 200.598 484.173 199.775 484.373 198.728C484.498 198.055 485.197 197.494 485.647 196.895C485.896 196.895 486.146 196.908 486.408 196.908Z" fill="#666666"/>
<path d="M457.178 193.654C457.803 193.218 458.439 192.433 459.051 192.458C459.601 192.47 460.113 193.368 460.649 193.879C460.113 194.44 459.651 195.312 459.014 195.449C458.514 195.549 457.828 194.751 457.216 194.34C457.203 194.103 457.191 193.879 457.178 193.654Z" fill="#666666"/>
<path d="M511.381 202.879C512.042 202.505 512.742 201.782 513.353 201.844C513.89 201.907 514.802 202.991 514.702 203.378C514.54 204.001 513.678 204.749 513.041 204.824C512.542 204.886 511.93 204.013 511.368 203.552C511.368 203.328 511.381 203.103 511.381 202.879Z" fill="#666666"/>
<path d="M325.4 1.02222C325.825 1.65797 326.599 2.29372 326.574 2.90453C326.549 3.45302 325.637 3.95165 325.125 4.47521C324.576 3.92672 323.702 3.45302 323.577 2.81727C323.477 2.31865 324.301 1.6455 324.713 1.04715C324.938 1.04715 325.175 1.03468 325.4 1.02222Z" fill="#666666"/>
<path d="M470.489 195.823C471.138 195.424 471.812 194.677 472.424 194.726C472.961 194.764 473.922 195.811 473.822 196.21C473.672 196.833 472.861 197.618 472.224 197.718C471.725 197.793 471.075 196.945 470.501 196.509C470.501 196.272 470.501 196.048 470.489 195.823Z" fill="#666666"/>
<path d="M360.399 118.997C360.811 119.583 361.61 120.219 361.535 120.755C361.46 121.316 360.636 122.089 360.037 122.189C359.637 122.251 358.688 121.341 358.663 120.83C358.626 120.244 359.337 119.621 359.724 119.01C359.949 119.01 360.174 118.997 360.399 118.997Z" fill="#666666"/>
<path d="M524.753 205.547C525.365 205.16 525.989 204.45 526.576 204.487C527.088 204.512 527.999 205.459 527.937 205.858C527.837 206.457 527.063 207.279 526.501 207.354C525.964 207.416 525.327 206.631 524.741 206.207C524.741 205.995 524.753 205.771 524.753 205.547Z" fill="#666666"/>
<path d="M372.91 136.873C372.335 137.309 371.711 138.107 371.174 138.057C370.612 138.008 369.813 137.197 369.701 136.599C369.626 136.2 370.512 135.228 371.024 135.19C371.611 135.14 372.26 135.838 372.872 136.212C372.885 136.424 372.897 136.649 372.91 136.873Z" fill="#666666"/>
<path d="M348.512 106.669C348.075 106.095 347.276 105.472 347.326 104.936C347.376 104.375 348.187 103.577 348.786 103.465C349.186 103.39 350.16 104.275 350.197 104.787C350.247 105.372 349.548 106.021 349.174 106.631C348.949 106.644 348.737 106.656 348.512 106.669Z" fill="#666666"/>
<path d="M405.361 170.705C405.948 170.281 406.56 169.471 407.097 169.521C407.659 169.571 408.458 170.393 408.57 170.979C408.645 171.378 407.758 172.338 407.246 172.388C406.66 172.438 406.023 171.74 405.399 171.366C405.386 171.141 405.374 170.929 405.361 170.705Z" fill="#666666"/>
<path d="M322.229 18.2622C321.804 17.6763 320.992 17.0655 321.042 16.5295C321.092 15.9685 321.916 15.1707 322.503 15.0585C322.903 14.9837 323.864 15.8688 323.914 16.3799C323.964 16.9658 323.265 17.6015 322.89 18.2248C322.678 18.2373 322.453 18.2497 322.229 18.2622Z" fill="#666666"/>
<path d="M443.656 191.361C444.255 190.962 444.904 190.176 445.441 190.251C446.003 190.326 446.765 191.174 446.852 191.772C446.915 192.171 445.978 193.093 445.466 193.118C444.88 193.143 444.268 192.42 443.656 192.021C443.656 191.797 443.656 191.585 443.656 191.361Z" fill="#666666"/>
<path d="M328.684 60.9945C328.259 60.4086 327.473 59.7729 327.535 59.2369C327.598 58.6759 328.422 57.8906 329.021 57.7908C329.421 57.716 330.37 58.626 330.407 59.1371C330.445 59.723 329.733 60.3588 329.358 60.9696C329.133 60.9821 328.909 60.9945 328.684 60.9945Z" fill="#666666"/>
<path d="M318.158 30.0048C319.169 29.3691 319.769 28.6959 320.256 28.7707C320.768 28.858 321.167 29.6558 321.617 30.142C321.13 30.5907 320.668 31.3636 320.143 31.401C319.656 31.4384 319.107 30.7154 318.158 30.0048Z" fill="#666666"/>
<path d="M382.399 150.448C383.111 151.396 383.847 151.944 383.81 152.43C383.773 152.954 383.023 153.789 382.549 153.802C382.074 153.826 381.263 153.066 381.175 152.542C381.088 152.056 381.775 151.445 382.399 150.448Z" fill="#666666"/>
<path d="M337.811 90.7502C337.1 89.8028 336.375 89.2543 336.413 88.7557C336.45 88.2321 337.212 87.4094 337.674 87.3844C338.148 87.372 338.96 88.1324 339.047 88.6435C339.122 89.1421 338.436 89.7529 337.811 90.7502Z" fill="#666666"/>
<path d="M538.063 208.164C539.05 207.504 539.649 206.806 540.136 206.88C540.648 206.955 541.447 207.741 541.434 208.214C541.422 208.688 540.623 209.461 540.098 209.511C539.612 209.561 539.037 208.85 538.063 208.164Z" fill="#666666"/>
<path d="M429.734 189.117C430.708 188.431 431.282 187.721 431.769 187.771C432.294 187.82 433.093 188.606 433.105 189.067C433.105 189.541 432.319 190.326 431.807 190.401C431.307 190.476 430.72 189.778 429.734 189.117Z" fill="#666666"/>
<path d="M316.098 43.3806C316.972 42.7822 317.484 42.1714 317.971 42.1714C318.383 42.1839 318.795 42.9069 319.207 43.3182C318.77 43.7545 318.383 44.4401 317.883 44.5523C317.496 44.6271 316.959 43.9789 316.098 43.3806Z" fill="#666666"/>
<path d="M324.776 72.7621C325.7 72.1638 326.299 71.4906 326.686 71.6028C327.211 71.7399 327.585 72.4879 328.022 72.974C327.548 73.3729 327.098 74.0585 326.599 74.0835C326.137 74.0959 325.637 73.4228 324.776 72.7621Z" fill="#666666"/>
<path d="M468.229 209.747C469.128 209.187 469.664 208.601 470.164 208.638C470.576 208.663 471.338 209.536 471.25 209.822C471.1 210.321 470.464 210.919 469.939 211.007C469.565 211.069 469.053 210.383 468.229 209.747Z" fill="#666666"/>
<path d="M335.476 104.138C334.877 103.266 334.265 102.755 334.265 102.268C334.278 101.857 335.002 101.446 335.414 101.034C335.851 101.471 336.538 101.857 336.65 102.356C336.725 102.742 336.076 103.278 335.476 104.138Z" fill="#666666"/>
<path d="M481.851 212.041C482.75 211.468 483.274 210.869 483.774 210.894C484.186 210.919 484.96 211.767 484.872 212.066C484.735 212.577 484.098 213.176 483.586 213.275C483.212 213.338 482.687 212.664 481.851 212.041Z" fill="#666666"/>
<path d="M346.352 119.995C345.827 119.072 345.253 118.511 345.303 118.013C345.34 117.601 346.239 116.878 346.526 116.978C347.026 117.14 347.6 117.813 347.663 118.324C347.713 118.723 347.013 119.197 346.352 119.995Z" fill="#666666"/>
<path d="M497.271 216.504C496.697 215.606 496.097 215.083 496.122 214.584C496.147 214.173 496.996 213.4 497.296 213.487C497.808 213.624 498.407 214.26 498.507 214.771C498.57 215.158 497.895 215.669 497.271 216.504Z" fill="#666666"/>
<path d="M357.377 136.188C356.853 135.265 356.278 134.704 356.328 134.205C356.366 133.794 357.265 133.071 357.552 133.171C358.051 133.333 358.626 134.006 358.688 134.517C358.738 134.916 358.039 135.39 357.377 136.188Z" fill="#666666"/>
<path d="M367.029 150.124C367.94 149.588 368.49 149.002 368.989 149.052C369.401 149.089 370.138 149.975 370.05 150.261C369.888 150.76 369.239 151.346 368.714 151.421C368.34 151.47 367.84 150.772 367.029 150.124Z" fill="#666666"/>
<path d="M391.589 168.449C392.463 167.776 393 167.053 393.399 167.127C393.936 167.227 394.361 167.938 394.835 168.386C394.398 168.823 393.999 169.546 393.524 169.608C393.062 169.67 392.513 169.035 391.589 168.449Z" fill="#666666"/>
<path d="M418.109 184.978C418.734 185.838 419.358 186.337 419.358 186.823C419.358 187.247 418.646 187.671 418.247 188.082C417.797 187.658 417.098 187.297 416.986 186.786C416.886 186.412 417.523 185.863 418.109 184.978Z" fill="#666666"/>
<path d="M442.969 206.644C442.345 205.908 441.683 205.472 441.733 205.11C441.795 204.637 442.395 204.225 442.757 203.789C443.169 204.138 443.868 204.45 443.906 204.824C443.956 205.285 443.444 205.796 442.969 206.644Z" fill="#666666"/>
<path d="M316.947 56.9182C316.273 57.4667 315.811 58.1149 315.461 58.0526C314.987 57.9778 314.587 57.367 314.163 56.993C314.575 56.5941 314.924 55.9708 315.399 55.8587C315.748 55.7963 316.248 56.4071 316.947 56.9182Z" fill="#666666"/>
<path d="M378.216 165.993C379.04 165.507 379.54 164.971 380.002 165.008C380.389 165.033 381.076 165.856 380.988 166.118C380.838 166.591 380.239 167.127 379.765 167.202C379.415 167.252 378.965 166.604 378.216 165.993Z" fill="#666666"/>
<path d="M322.428 86.3372C323.252 85.8386 323.752 85.3026 324.214 85.34C324.601 85.3649 325.288 86.1752 325.213 86.437C325.063 86.9107 324.476 87.4592 324.002 87.5339C323.639 87.5838 323.178 86.9481 322.428 86.3372Z" fill="#666666"/>
<path d="M402.864 184.093C403.7 183.619 404.212 183.096 404.674 183.133C405.061 183.171 405.373 183.869 405.723 184.28C405.286 184.654 404.887 185.252 404.412 185.315C404.05 185.365 403.6 184.716 402.864 184.093Z" fill="#666666"/>
<path d="M454.844 207.578C455.518 207.03 455.98 206.394 456.329 206.444C456.804 206.519 457.191 207.13 457.628 207.516C457.216 207.915 456.854 208.538 456.379 208.638C456.03 208.713 455.543 208.102 454.844 207.578Z" fill="#666666"/>
<path d="M309.256 12.2163C309.755 13.0266 310.304 13.5252 310.279 13.9864C310.254 14.3729 309.455 15.0709 309.193 14.9962C308.719 14.859 308.169 14.2731 308.082 13.7994C308.019 13.4379 308.669 12.9642 309.256 12.2163Z" fill="#666666"/>
<path d="M510.581 215.332C511.131 216.005 511.768 216.467 511.718 216.816C511.643 217.289 511.031 217.676 510.644 218.112C510.244 217.701 509.62 217.339 509.52 216.865C509.445 216.529 510.057 216.03 510.581 215.332Z" fill="#666666"/>
<path d="M524.166 221.203C523.654 220.393 523.105 219.907 523.13 219.446C523.155 219.059 523.942 218.361 524.216 218.436C524.691 218.573 525.24 219.159 525.328 219.633C525.402 219.969 524.766 220.443 524.166 221.203Z" fill="#666666"/>
<path d="M414.588 200.336C415.2 199.937 415.65 199.451 415.899 199.538C416.286 199.663 416.536 200.199 416.848 200.56C416.499 200.835 416.161 201.308 415.812 201.308C415.475 201.308 415.138 200.81 414.588 200.336Z" fill="#666666"/>
<path d="M312.964 69.2593C313.451 69.7953 314.013 70.1693 313.963 70.431C313.888 70.83 313.388 71.1541 313.076 71.5031C312.764 71.2039 312.24 70.9297 312.19 70.5931C312.14 70.269 312.577 69.8701 312.964 69.2593Z" fill="#666666"/>
<path d="M389.928 182.036C390.49 181.563 390.89 181.027 391.139 181.076C391.539 181.164 391.839 181.662 392.188 181.986C391.876 182.286 391.589 182.797 391.239 182.834C390.915 182.884 390.54 182.435 389.928 182.036Z" fill="#666666"/>
<path d="M428.086 202.754C428.71 202.256 429.147 201.682 429.434 201.745C429.859 201.832 430.183 202.38 430.558 202.742C430.221 203.066 429.896 203.614 429.534 203.664C429.159 203.689 428.747 203.191 428.086 202.754Z" fill="#666666"/>
<path d="M481.102 227C480.665 226.414 480.14 226.003 480.215 225.741C480.328 225.354 480.84 225.068 481.177 224.744C481.464 225.068 481.963 225.392 481.988 225.728C482.001 226.053 481.526 226.414 481.102 227Z" fill="#666666"/>
<path d="M366.167 164.821C365.78 164.21 365.293 163.749 365.381 163.5C365.518 163.113 366.055 162.877 366.417 162.577C366.679 162.926 367.154 163.275 367.154 163.625C367.154 163.949 366.642 164.273 366.167 164.821Z" fill="#666666"/>
<path d="M303 41.037C303.599 40.6381 304.049 40.1395 304.299 40.2143C304.686 40.339 304.948 40.8625 305.26 41.224C304.923 41.4983 304.573 41.9844 304.236 41.9844C303.899 41.9844 303.562 41.4983 303 41.037Z" fill="#666666"/>
<path d="M306.696 26.0657C307.12 26.7388 307.645 27.225 307.545 27.5117C307.408 27.9231 306.833 28.1848 306.434 28.5214C306.146 28.1474 305.622 27.7735 305.622 27.3995C305.635 27.0255 306.171 26.6765 306.696 26.0657Z" fill="#666666"/>
<path d="M342.781 131.687C343.455 131.251 343.929 130.715 344.217 130.815C344.629 130.952 344.903 131.525 345.241 131.899C344.866 132.199 344.504 132.71 344.117 132.722C343.767 132.735 343.393 132.199 342.781 131.687Z" fill="#666666"/>
<path d="M331.543 115.993C332.093 115.519 332.48 114.958 332.742 115.021C333.141 115.096 333.454 115.594 333.803 115.918C333.491 116.23 333.216 116.741 332.879 116.791C332.542 116.828 332.155 116.38 331.543 115.993Z" fill="#666666"/>
<path d="M539.299 221.777C538.663 222.263 538.213 222.824 537.926 222.749C537.501 222.649 537.189 222.089 536.827 221.727C537.177 221.403 537.501 220.867 537.876 220.829C538.251 220.805 538.65 221.316 539.299 221.777Z" fill="#666666"/>
<path d="M320.518 100.025C321.105 99.6007 321.529 99.0772 321.792 99.152C322.179 99.2642 322.466 99.7753 322.79 100.124C322.453 100.411 322.141 100.897 321.792 100.922C321.454 100.935 321.092 100.461 320.518 100.025Z" fill="#666666"/>
<path d="M355.142 148.952C354.755 148.342 354.268 147.88 354.355 147.631C354.493 147.245 355.03 147.008 355.392 146.709C355.654 147.058 356.128 147.407 356.128 147.756C356.128 148.08 355.616 148.404 355.142 148.952Z" fill="#666666"/>
</g>
</g>
<g clip-path="url(#clip1_23_11)">
<path opacity="0.2" d="M359.771 233.901C359.771 235.46 358.64 237.1 356.412 238.392L324.258 269.075C320.195 271.419 314.037 271.677 310.517 269.645L252.03 235.674C250.327 234.694 249.561 233.348 249.668 231.967C249.659 232.029 249.65 232.109 249.65 232.207C249.65 232.252 249.65 236.583 249.65 236.627C249.677 237.893 250.461 239.105 252.03 240.014L310.517 273.985C314.037 276.017 320.195 275.767 324.258 273.415L356.412 242.732C358.666 241.431 359.807 239.755 359.771 238.178C359.771 237.902 359.816 234.988 359.771 233.901Z" fill="url(#paint1_linear_23_11)"/>
<g opacity="0.2">
<path opacity="0.0909" d="M250.791 221.371L302.122 201.622C305.018 199.956 308.654 199.056 312.299 199.091C313.868 199.109 315.365 199.314 316.737 199.662C318.047 199.992 319.571 200.624 320.631 201.239L358.568 223.465C358.604 223.483 359.691 224.124 359.718 224.151C362.721 225.951 364.094 228.767 363.924 231.806C363.755 234.907 361.411 238.365 358.052 240.308L326.486 270.438C323.653 272.078 320.097 272.978 316.505 272.978C313.377 272.978 310.526 272.301 308.28 271.009L249.793 237.037C246.843 235.335 245.168 232.662 245.185 229.694C245.212 226.45 247.244 223.42 250.791 221.371Z" fill="black"/>
<path opacity="0.1818" d="M251.014 221.754L302.345 202.006C305.223 200.339 308.877 199.475 312.477 199.546C314.046 199.582 315.516 199.831 316.88 200.188C318.056 200.499 319.767 201.257 320.73 201.801L358.461 223.91C358.533 223.955 359.549 224.552 359.602 224.597C362.543 226.423 363.514 229.222 363.185 232.198C362.873 234.979 360.288 238.713 357.258 240.459L326.273 270.037C323.501 271.632 320.034 272.506 316.541 272.515C313.493 272.523 310.704 271.864 308.521 270.607L250.033 236.636C247.2 235.005 245.622 232.457 245.649 229.65C245.676 226.593 247.618 223.714 251.014 221.754Z" fill="black"/>
<path opacity="0.2727" d="M251.237 222.146L302.568 202.398C305.437 200.74 309.091 199.903 312.656 200.009C314.215 200.063 315.677 200.348 317.014 200.713C318.056 200.999 319.963 201.881 320.819 202.371L358.346 224.356C358.453 224.418 359.388 224.98 359.469 225.051C362.338 226.905 362.926 229.65 362.427 232.608C362.017 235.059 359.139 239.069 356.456 240.629L326.05 269.645C323.35 271.205 319.963 272.051 316.559 272.069C313.591 272.078 310.864 271.445 308.735 270.215L250.247 236.244C247.538 234.676 246.05 232.261 246.095 229.605C246.139 226.744 247.993 224.017 251.237 222.146Z" fill="black"/>
<path opacity="0.3636" d="M251.459 222.529L302.79 202.781C305.642 201.132 309.314 200.312 312.834 200.464C314.384 200.535 315.828 200.856 317.147 201.239C318.056 201.498 320.159 202.514 320.899 202.941L358.221 224.811C358.363 224.891 359.228 225.417 359.335 225.515C362.142 227.395 362.989 230.282 361.67 233.027C361.67 235.202 357.998 239.444 355.645 240.807L325.818 269.271C323.189 270.786 319.874 271.615 316.577 271.632C313.689 271.641 311.025 271.035 308.957 269.841L250.47 235.87C247.886 234.373 246.478 232.091 246.54 229.587C246.602 226.887 248.358 224.32 251.459 222.529Z" fill="black"/>
<path opacity="0.4545" d="M251.682 222.912L303.013 203.164C305.856 201.524 309.537 200.731 313.012 200.918C314.554 201.007 315.989 201.364 317.281 201.765C318.056 201.997 320.355 203.146 320.988 203.512L358.105 225.256C358.283 225.363 359.076 225.844 359.21 225.96C361.946 227.867 362.57 230.781 360.921 233.428C360.921 235.291 356.857 239.8 354.843 240.967L325.595 268.879C323.029 270.358 319.803 271.16 316.595 271.178C313.787 271.196 311.176 270.607 309.171 269.449L250.684 235.478C248.215 234.052 246.905 231.895 246.977 229.551C247.066 227.038 248.732 224.614 251.682 222.912Z" fill="black"/>
<path opacity="0.5455" d="M251.905 223.305L303.236 203.556C306.07 201.926 309.751 201.159 313.19 201.382C314.732 201.489 316.14 201.881 317.423 202.291C318.065 202.496 320.551 203.779 321.086 204.082L357.998 225.702C358.212 225.827 358.934 226.272 359.094 226.415C361.768 228.357 362.151 231.281 360.19 233.838C360.19 235.389 355.744 240.165 354.059 241.137L325.39 268.496C322.895 269.939 319.749 270.715 316.639 270.732C313.912 270.75 311.364 270.189 309.421 269.066L250.934 235.095C248.59 233.74 247.369 231.717 247.449 229.525C247.529 227.181 249.107 224.918 251.905 223.305Z" fill="black"/>
<path opacity="0.6364" d="M252.128 223.688L303.459 203.939C306.275 202.309 309.973 201.578 313.36 201.836C314.892 201.961 316.283 202.398 317.548 202.817C318.056 202.986 320.739 204.403 321.166 204.652L357.864 226.156C358.114 226.299 358.756 226.709 358.943 226.878C361.545 228.847 361.705 231.797 359.415 234.257C359.415 235.496 354.576 240.54 353.239 241.315L325.159 268.121C322.735 269.52 319.669 270.278 316.657 270.304C314.01 270.331 311.524 269.788 309.635 268.691L251.147 234.72C248.92 233.437 247.788 231.539 247.886 229.498C247.993 227.324 249.481 225.22 252.128 223.688Z" fill="black"/>
<path opacity="0.7273" d="M252.36 224.071L303.691 204.323C306.498 202.701 310.205 201.997 313.547 202.291C315.071 202.425 316.443 202.906 317.691 203.342C318.074 203.476 320.944 205.036 321.264 205.223L357.758 226.602C358.043 226.771 358.613 227.137 358.827 227.324C361.367 229.32 361.296 232.287 358.676 234.658C358.676 235.594 353.453 240.896 352.446 241.475L324.945 267.72C322.583 269.084 319.598 269.814 316.684 269.841C314.117 269.868 311.693 269.351 309.866 268.291L251.379 234.319C249.276 233.107 248.233 231.334 248.349 229.454C248.456 227.475 249.855 225.523 252.36 224.071Z" fill="black"/>
<path opacity="0.8182" d="M252.582 224.463L303.913 204.715C306.703 203.102 310.428 202.416 313.725 202.754C315.249 202.906 316.594 203.423 317.833 203.868C318.083 203.957 321.148 205.668 321.353 205.793L357.633 227.056C357.953 227.243 358.452 227.573 358.693 227.787C361.162 229.81 360.868 232.804 357.918 235.077C357.918 235.701 352.303 241.261 351.635 241.654L324.713 267.346C322.423 268.665 319.517 269.378 316.701 269.404C314.215 269.431 311.853 268.941 310.08 267.916L251.593 233.945C249.606 232.795 248.661 231.165 248.786 229.436C248.91 227.618 250.22 225.818 252.582 224.463Z" fill="black"/>
<path opacity="0.9091" d="M252.805 224.846L304.136 205.098C306.917 203.494 310.642 202.834 313.903 203.2C315.418 203.369 316.746 203.922 317.967 204.385C318.092 204.43 321.336 206.292 321.443 206.355L357.526 227.493C357.882 227.698 358.31 227.992 358.577 228.224C360.984 230.273 360.458 233.286 357.178 235.46C357.178 235.772 351.181 241.6 350.842 241.796L324.499 266.936C322.28 268.219 319.455 268.897 316.728 268.932C314.322 268.968 312.023 268.496 310.303 267.497L251.816 233.526C249.953 232.448 249.089 230.942 249.231 229.373C249.374 227.769 250.595 226.121 252.805 224.846Z" fill="black"/>
<path d="M310.526 267.132L252.039 233.161C248.518 231.129 248.955 227.573 253.028 225.229L304.359 205.481C308.423 203.137 314.58 202.879 318.101 204.911L357.401 227.947C360.921 229.979 360.484 233.535 356.412 235.879L324.259 266.562C320.195 268.914 314.046 269.164 310.526 267.132Z" fill="black"/>
</g>
<path d="M310.526 267.052L252.039 233.081C250.47 232.172 249.686 230.969 249.659 229.694C249.659 229.65 249.659 225.319 249.659 225.274C249.686 223.732 250.827 226.406 253.019 225.14L304.35 205.392C308.414 203.048 314.572 202.79 318.092 204.822L357.401 227.85C358.578 228.527 359.433 225.648 359.736 226.566C359.834 226.869 359.772 230.915 359.781 231.227C359.816 232.804 358.676 234.48 356.421 235.781L324.268 266.464C320.195 268.834 314.046 269.084 310.526 267.052Z" fill="url(#paint2_linear_23_11)"/>
<path d="M310.526 262.712L252.039 228.75C248.518 226.718 248.955 223.162 253.028 220.818L304.359 201.07C308.423 198.726 314.58 198.468 318.101 200.5L357.41 223.527C360.93 225.559 360.493 229.115 356.421 231.459L324.267 262.142C320.195 264.494 314.046 264.753 310.526 262.712Z" fill="url(#paint3_linear_23_11)"/>
<path opacity="0.8182" d="M357.401 223.527L318.092 200.499C314.572 198.468 308.414 198.717 304.35 201.07L278.497 211.015C278.738 211.211 278.996 211.398 279.299 211.568L337.787 245.539C338.597 246.011 339.551 246.35 340.585 246.573L356.421 231.458C360.485 229.115 360.921 225.568 357.401 223.527Z" fill="url(#paint4_linear_23_11)"/>
<path opacity="0.6" d="M356.412 230.728L324.259 261.411C320.195 263.754 314.037 264.013 310.517 261.981L252.03 228.01C250.568 227.163 249.802 226.058 249.677 224.891C249.49 226.326 250.265 227.734 252.03 228.749L310.517 262.721C314.037 264.753 320.195 264.503 324.259 262.15L356.412 231.468C358.791 230.095 359.923 228.313 359.745 226.655C359.566 228.081 358.444 229.56 356.412 230.728Z" fill="url(#paint5_radial_23_11)"/>
<path d="M386.934 262.908L243.296 179.905C235.953 175.672 230 164.292 230 154.507V44.6526C230 34.8587 235.953 30.3583 243.296 34.6003L386.934 117.594C394.277 121.836 400.23 133.208 400.23 143.002V252.856C400.23 262.641 394.277 267.141 386.934 262.908Z" fill="url(#paint6_linear_23_11)"/>
<path d="M388.645 255.253L247.03 173.444C241.122 169.692 237.468 162.179 237.468 154.506V43.9307C237.468 42.1127 239.446 40.981 241.015 41.8989C241.202 42.0058 241.345 42.086 241.434 42.1395L383.2 124.055C390.232 128.11 392.762 135.32 392.762 142.993V253.221C392.762 255.173 390.65 256.393 388.957 255.431C388.824 255.36 388.717 255.297 388.645 255.253Z" fill="url(#paint7_linear_23_11)"/>
<path d="M390.374 254.255C390.24 254.174 390.134 254.121 390.062 254.076L248.447 172.258C242.539 168.507 238.885 160.994 238.885 153.321V42.7454C238.885 42.3444 238.992 41.9879 239.152 41.676C238.217 41.9612 237.468 42.8078 237.468 43.9307V154.506C237.468 162.188 241.122 169.692 247.03 173.444L388.645 255.262C388.717 255.306 388.824 255.36 388.957 255.44C390.258 256.18 391.8 255.627 392.442 254.451C391.791 254.665 391.051 254.638 390.374 254.255Z" fill="#BCC0BE"/>
<path d="M390.704 115.589L247.066 32.5952C244.161 30.9198 241.469 30.6079 239.286 31.4545C239.01 31.5614 235.302 33.5309 235.035 33.6735C235.026 33.6735 235.026 33.6824 235.026 33.6824C237.29 32.5862 240.168 32.7912 243.296 34.6003L386.934 117.594C394.277 121.836 400.23 133.208 400.23 143.002V252.856C400.23 258.969 397.913 263.015 394.384 264.164C394.669 264.182 395.026 264.066 395.552 263.772C395.721 263.674 399.74 261.402 399.901 261.295C402.423 259.53 404 255.894 404 250.859V140.996C404 131.203 398.047 119.831 390.704 115.589Z" fill="url(#paint8_linear_23_11)"/>
<path opacity="0.6" d="M387.576 117.274L243.938 34.2794C240.926 32.5416 238.154 32.2921 235.926 33.2545C237.824 32.9515 240.017 33.4149 242.343 34.7606L385.981 117.755C393.324 121.997 399.277 133.368 399.277 143.162V253.016C399.277 258.791 397.192 262.703 393.992 264.093C398.092 263.442 400.872 259.227 400.872 252.535V142.681C400.872 132.887 394.919 121.516 387.576 117.274Z" fill="url(#paint9_radial_23_11)"/>
<path d="M237.468 152.929V154.498C237.468 162.18 241.122 169.683 247.03 173.435L388.645 255.253C388.717 255.297 388.824 255.351 388.957 255.431C390.65 256.394 392.762 255.173 392.762 253.221V242.652L237.468 152.929Z" fill="url(#paint10_linear_23_11)"/>
<path d="M237.468 152.929L392.762 242.652V240.575L239.179 152.261L237.468 152.929Z" fill="url(#paint11_linear_23_11)"/>
<path d="M317.343 124.884V146.878L318.796 146.103V123.984L317.343 124.884Z" fill="url(#paint12_linear_23_11)"/>
<path d="M317.361 124.884V146.878L249.035 107.524V85.4054L317.361 124.884Z" fill="url(#paint13_linear_23_11)"/>
<path d="M249.035 85.4054L317.361 124.884L318.796 123.984L250.443 84.5499L249.035 85.4054Z" fill="url(#paint14_linear_23_11)"/>
<path d="M312.941 137.922L310.151 133.101C309.857 132.593 309.412 132.29 309.073 132.316L308.253 130.908C309.483 129.759 309.358 127.032 307.879 124.483C306.266 121.694 303.646 120.188 302.033 121.106C300.42 122.023 300.42 125.027 302.033 127.816C303.512 130.365 305.829 131.844 307.442 131.372L308.262 132.78C308.066 133.056 308.111 133.591 308.405 134.099L311.194 138.92C311.542 139.526 312.112 139.847 312.46 139.651L312.941 139.374C313.288 139.169 313.288 138.519 312.941 137.922ZM306.881 129.465C305.82 130.071 304.091 129.073 303.031 127.237C301.97 125.401 301.97 123.423 303.031 122.817C304.091 122.211 305.82 123.209 306.881 125.044C307.941 126.88 307.941 128.859 306.881 129.465Z" fill="white"/>
<path d="M297.577 129.759L255.131 105.234V94.6825L297.577 119.207V129.759Z" fill="white"/>
<path d="M241.131 113.887V154.738L336.637 209.598V168.747L241.131 113.887Z" fill="url(#paint15_linear_23_11)"/>
<path d="M336.628 168.747V209.598L338.196 208.636V167.785L336.628 168.747Z" fill="url(#paint16_linear_23_11)"/>
<path d="M338.196 167.785L336.628 168.747L241.131 113.887L242.717 112.916L338.196 167.785Z" fill="url(#paint17_linear_23_11)"/>
<path d="M270.343 164.291L246.139 150.184V123.476L270.343 137.574V164.291Z" fill="url(#paint18_linear_23_11)"/>
<path d="M274.879 142.315V144.526L302.96 160.433V158.223L274.879 142.315Z" fill="#2F4DC9"/>
<path opacity="0.6" d="M288.336 170.236L274.879 162.572V164.782L288.336 172.437V170.236Z" fill="#2F4DC9"/>
<path opacity="0.6" d="M290.51 171.492V173.693L308.03 183.728V181.518L290.51 171.492Z" fill="#2F4DC9"/>
<path opacity="0.6" d="M306.551 177.926V175.716L291.321 166.947V169.157L306.551 177.926Z" fill="#2F4DC9"/>
<path opacity="0.6" d="M297.007 165.138L274.879 152.466V154.676L297.007 167.348V165.138Z" fill="#2F4DC9"/>
<path opacity="0.6" d="M288.336 155.184L274.879 147.529V149.739L288.336 157.394V155.184Z" fill="#2F4DC9"/>
<path opacity="0.6" d="M290.51 156.44V158.65L308.03 168.685V166.475L290.51 156.44Z" fill="#2F4DC9"/>
<path opacity="0.6" d="M299.181 166.395V168.596L309.884 174.959V172.749L299.181 166.395Z" fill="#2F4DC9"/>
<path opacity="0.6" d="M310.205 169.942L330.176 181.785V179.575L310.205 167.732V169.942Z" fill="#2F4DC9"/>
<path opacity="0.6" d="M312.059 176.215L330.176 186.722V184.512L312.059 174.005V176.215Z" fill="#2F4DC9"/>
<path opacity="0.6" d="M289.147 165.691L274.879 157.563V159.764L289.147 167.901V165.691Z" fill="#2F4DC9"/>
<path opacity="0.6" d="M308.725 179.183L330.14 192.016V189.806L308.725 176.973V179.183Z" fill="#2F4DC9"/>
<g opacity="0.9">
<path d="M392.843 217.459V242.117L336.931 209.928V185.127L392.843 217.459Z" fill="url(#paint19_linear_23_11)"/>
<path d="M336.931 185.127L392.843 217.458L392.807 215.587L338.401 184.209L336.931 185.127Z" fill="url(#paint20_linear_23_11)"/>
</g>
<path d="M345.192 195.75V197.791L386.159 221.389V219.339L345.192 195.75Z" fill="url(#paint21_linear_23_11)"/>
<path d="M366.821 216.754L345.192 204.251V206.301L366.821 218.804V216.754Z" fill="url(#paint22_linear_23_11)"/>
<path d="M345.192 202.05L386.159 225.648V223.599L345.192 200V202.05Z" fill="url(#paint23_linear_23_11)"/>
<g opacity="0.9">
<path d="M392.843 191.989V216.647L336.931 184.459V159.657L392.843 191.989Z" fill="url(#paint24_linear_23_11)"/>
<path d="M336.931 159.657L392.843 191.989L392.807 190.117L338.401 158.74L336.931 159.657Z" fill="url(#paint25_linear_23_11)"/>
</g>
<path d="M366.821 191.285L345.192 178.782V180.832L366.821 193.335V191.285Z" fill="url(#paint26_linear_23_11)"/>
<path d="M356.251 176.634V178.684L386.159 195.919V193.869L356.251 176.634Z" fill="url(#paint27_linear_23_11)"/>
<path d="M356.251 182.935L386.159 200.179V198.129L356.251 180.894V182.935Z" fill="url(#paint28_linear_23_11)"/>
<path opacity="0.8" d="M353.017 172.962L346.181 169.014C345.762 168.774 345.424 168.97 345.424 169.451V174.076C345.424 174.558 345.762 175.146 346.181 175.386L350.45 177.855L352.589 181.535V179.085L353.017 179.334C353.435 179.575 353.774 179.379 353.774 178.898V174.272C353.774 173.791 353.435 173.203 353.017 172.962ZM348.195 173.827C347.973 173.952 347.616 173.747 347.393 173.363C347.171 172.98 347.171 172.57 347.393 172.437C347.616 172.312 347.973 172.517 348.195 172.9C348.418 173.292 348.418 173.702 348.195 173.827ZM350.049 174.896C349.826 175.021 349.47 174.816 349.247 174.433C349.024 174.05 349.024 173.64 349.247 173.506C349.47 173.381 349.826 173.586 350.049 173.969C350.272 174.361 350.272 174.771 350.049 174.896ZM351.894 175.966C351.671 176.09 351.314 175.885 351.092 175.502C350.869 175.119 350.869 174.709 351.092 174.575C351.314 174.451 351.671 174.656 351.894 175.039C352.116 175.422 352.116 175.841 351.894 175.966Z" fill="url(#paint29_linear_23_11)"/>
</g>
<defs>
<linearGradient id="paint0_linear_23_11" x1="550" y1="-2.16049e-05" x2="5.95234e-06" y2="425" gradientUnits="userSpaceOnUse">
<stop offset="0.432989" stop-color="#21283E"/>
<stop offset="1" stop-color="#394159"/>
</linearGradient>
<linearGradient id="paint1_linear_23_11" x1="254.073" y1="253.657" x2="370.218" y2="253.657" gradientUnits="userSpaceOnUse">
<stop offset="0.0556" stop-color="#011541"/>
<stop offset="0.2576" stop-color="#031743"/>
<stop offset="0.3572" stop-color="#091C4B"/>
<stop offset="0.4341" stop-color="#142658"/>
<stop offset="0.4697" stop-color="#1B2D61"/>
<stop offset="0.482" stop-color="#1D3065"/>
<stop offset="0.4954" stop-color="#243973"/>
<stop offset="0.5093" stop-color="#2F4888"/>
<stop offset="0.5235" stop-color="#3F5CA7"/>
<stop offset="0.5303" stop-color="#4868B8"/>
<stop offset="0.5366" stop-color="#4362AE"/>
<stop offset="0.5617" stop-color="#324B8D"/>
<stop offset="0.5857" stop-color="#253A75"/>
<stop offset="0.6078" stop-color="#1E3066"/>
<stop offset="0.6263" stop-color="#1B2D61"/>
<stop offset="0.6724" stop-color="#112455"/>
<stop offset="0.7491" stop-color="#051946"/>
<stop offset="0.8131" stop-color="#011541"/>
<stop offset="1" stop-color="#011541"/>
</linearGradient>
<linearGradient id="paint2_linear_23_11" x1="254.073" y1="235.945" x2="370.219" y2="235.945" gradientUnits="userSpaceOnUse">
<stop offset="0.0556" stop-color="#011541"/>
<stop offset="0.2576" stop-color="#031743"/>
<stop offset="0.3572" stop-color="#091C4B"/>
<stop offset="0.4341" stop-color="#142658"/>
<stop offset="0.4697" stop-color="#1B2D61"/>
<stop offset="0.482" stop-color="#1D3065"/>
<stop offset="0.4954" stop-color="#243973"/>
<stop offset="0.5093" stop-color="#2F4888"/>
<stop offset="0.5235" stop-color="#3F5CA7"/>
<stop offset="0.5303" stop-color="#4868B8"/>
<stop offset="0.5366" stop-color="#4362AE"/>
<stop offset="0.5617" stop-color="#324B8D"/>
<stop offset="0.5857" stop-color="#253A75"/>
<stop offset="0.6078" stop-color="#1E3066"/>
<stop offset="0.6263" stop-color="#1B2D61"/>
<stop offset="0.6724" stop-color="#112455"/>
<stop offset="0.7491" stop-color="#051946"/>
<stop offset="0.8131" stop-color="#011541"/>
<stop offset="1" stop-color="#011541"/>
</linearGradient>
<linearGradient id="paint3_linear_23_11" x1="285.153" y1="243.414" x2="337.802" y2="214.289" gradientUnits="userSpaceOnUse">
<stop stop-color="#1B2D61"/>
<stop offset="0.2031" stop-color="#0F2252"/>
<stop offset="0.4949" stop-color="#011541"/>
<stop offset="1" stop-color="#00031F"/>
</linearGradient>
<linearGradient id="paint4_linear_23_11" x1="313.075" y1="229.645" x2="323.41" y2="212.316" gradientUnits="userSpaceOnUse">
<stop stop-color="white"/>
<stop offset="1"/>
</linearGradient>
<radialGradient id="paint5_radial_23_11" cx="0" cy="0" r="1" gradientUnits="userSpaceOnUse" gradientTransform="translate(313.418 253.194) scale(41.3216 41.3216)">
<stop stop-color="#617FFC"/>
<stop offset="1" stop-color="#052C4D"/>
</radialGradient>
<linearGradient id="paint6_linear_23_11" x1="398.308" y1="263.869" x2="220.57" y2="17.9242" gradientUnits="userSpaceOnUse">
<stop stop-color="#1B2D61"/>
<stop offset="1" stop-color="#08104A"/>
</linearGradient>
<linearGradient id="paint7_linear_23_11" x1="263.289" y1="29.7673" x2="335.384" y2="194.736" gradientUnits="userSpaceOnUse">
<stop offset="0.0101" stop-color="#2245AB"/>
<stop offset="0.4293" stop-color="#2744BD"/>
<stop offset="0.904" stop-color="#071A5F"/>
</linearGradient>
<linearGradient id="paint8_linear_23_11" x1="436.073" y1="269.211" x2="296.174" y2="45.6706" gradientUnits="userSpaceOnUse">
<stop offset="0.0556" stop-color="#011541"/>
<stop offset="0.2576" stop-color="#031743"/>
<stop offset="0.3572" stop-color="#091C4B"/>
<stop offset="0.4341" stop-color="#142658"/>
<stop offset="0.4697" stop-color="#1B2D61"/>
<stop offset="0.482" stop-color="#1D3065"/>
<stop offset="0.4954" stop-color="#243973"/>
<stop offset="0.5093" stop-color="#2F4888"/>
<stop offset="0.5235" stop-color="#3F5CA7"/>
<stop offset="0.5303" stop-color="#4868B8"/>
<stop offset="0.5366" stop-color="#4362AE"/>
<stop offset="0.5617" stop-color="#324B8D"/>
<stop offset="0.5857" stop-color="#253A75"/>
<stop offset="0.6078" stop-color="#1E3066"/>
<stop offset="0.6263" stop-color="#1B2D61"/>
</linearGradient>
<radialGradient id="paint9_radial_23_11" cx="0" cy="0" r="1" gradientUnits="userSpaceOnUse" gradientTransform="translate(396.384 141.911) scale(23.8132)">
<stop stop-color="#617FFC"/>
<stop offset="1" stop-color="#052C4D"/>
</radialGradient>
<linearGradient id="paint10_linear_23_11" x1="330.243" y1="176.432" x2="289.648" y2="248.839" gradientUnits="userSpaceOnUse">
<stop offset="0.0303" stop-color="#2F4DC9"/>
<stop offset="0.4809" stop-color="#3E71E1"/>
<stop offset="1" stop-color="#529FFF"/>
</linearGradient>
<linearGradient id="paint11_linear_23_11" x1="324.695" y1="180.595" x2="315.486" y2="197.123" gradientUnits="userSpaceOnUse">
<stop offset="0.0303" stop-color="#2F4DC9"/>
<stop offset="0.4809" stop-color="#3E71E1"/>
<stop offset="1" stop-color="#529FFF"/>
</linearGradient>
<linearGradient id="paint12_linear_23_11" x1="315.906" y1="136.081" x2="330.549" y2="131.696" gradientUnits="userSpaceOnUse">
<stop offset="0.0354" stop-color="#2245AB"/>
<stop offset="0.2684" stop-color="#2B51BA"/>
<stop offset="0.7178" stop-color="#446FE3"/>
<stop offset="1" stop-color="#5584FF"/>
</linearGradient>
<linearGradient id="paint13_linear_23_11" x1="184.904" y1="138.177" x2="385.827" y2="93.1367" gradientUnits="userSpaceOnUse">
<stop offset="0.0354" stop-color="#2245AB"/>
<stop offset="0.2684" stop-color="#2B51BA"/>
<stop offset="0.7178" stop-color="#446FE3"/>
<stop offset="1" stop-color="#5584FF"/>
</linearGradient>
<linearGradient id="paint14_linear_23_11" x1="288.308" y1="96.3281" x2="283.283" y2="105.906" gradientUnits="userSpaceOnUse">
<stop offset="0.0354" stop-color="#2245AB"/>
<stop offset="0.2684" stop-color="#2B51BA"/>
<stop offset="0.7178" stop-color="#446FE3"/>
<stop offset="1" stop-color="#5584FF"/>
</linearGradient>
<linearGradient id="paint15_linear_23_11" x1="339.516" y1="111.517" x2="254.019" y2="196.33" gradientUnits="userSpaceOnUse">
<stop offset="0.0354" stop-color="#556FB3"/>
<stop offset="0.5808" stop-color="#D1D2D8"/>
<stop offset="1" stop-color="#EBECF2"/>
</linearGradient>
<linearGradient id="paint16_linear_23_11" x1="344.03" y1="190.99" x2="360.016" y2="196.532" gradientUnits="userSpaceOnUse">
<stop offset="0.0354" stop-color="#556FB3"/>
<stop offset="0.5808" stop-color="#D1D2D8"/>
<stop offset="1" stop-color="#EBECF2"/>
</linearGradient>
<linearGradient id="paint17_linear_23_11" x1="298.23" y1="126.999" x2="289.611" y2="140.922" gradientUnits="userSpaceOnUse">
<stop offset="0.0354" stop-color="#556FB3"/>
<stop offset="0.5808" stop-color="#D1D2D8"/>
<stop offset="1" stop-color="#EBECF2"/>
</linearGradient>
<linearGradient id="paint18_linear_23_11" x1="268.265" y1="120.751" x2="244.423" y2="175.772" gradientUnits="userSpaceOnUse">
<stop offset="0.0354" stop-color="#2442D6"/>
<stop offset="0.2574" stop-color="#2F51DB"/>
<stop offset="0.6855" stop-color="#4D7AE9"/>
<stop offset="1" stop-color="#659BF4"/>
</linearGradient>
<linearGradient id="paint19_linear_23_11" x1="282.166" y1="232.168" x2="451.247" y2="194.265" gradientUnits="userSpaceOnUse">
<stop offset="0.0354" stop-color="#2442D6"/>
<stop offset="0.2574" stop-color="#2F51DB"/>
<stop offset="0.6855" stop-color="#4D7AE9"/>
<stop offset="1" stop-color="#659BF4"/>
</linearGradient>
<linearGradient id="paint20_linear_23_11" x1="369.184" y1="193.104" x2="364.674" y2="201.699" gradientUnits="userSpaceOnUse">
<stop offset="0.0354" stop-color="#2442D6"/>
<stop offset="0.2574" stop-color="#2F51DB"/>
<stop offset="0.6855" stop-color="#4D7AE9"/>
<stop offset="1" stop-color="#659BF4"/>
</linearGradient>
<linearGradient id="paint21_linear_23_11" x1="345.191" y1="208.568" x2="386.155" y2="208.568" gradientUnits="userSpaceOnUse">
<stop stop-color="#10174D"/>
<stop offset="1" stop-color="#10208A"/>
</linearGradient>
<linearGradient id="paint22_linear_23_11" x1="345.191" y1="211.528" x2="366.822" y2="211.528" gradientUnits="userSpaceOnUse">
<stop stop-color="#10174D"/>
<stop offset="1" stop-color="#10208A"/>
</linearGradient>
<linearGradient id="paint23_linear_23_11" x1="345.191" y1="212.822" x2="386.155" y2="212.822" gradientUnits="userSpaceOnUse">
<stop stop-color="#10174D"/>
<stop offset="1" stop-color="#10208A"/>
</linearGradient>
<linearGradient id="paint24_linear_23_11" x1="282.166" y1="206.697" x2="451.247" y2="168.795" gradientUnits="userSpaceOnUse">
<stop offset="0.0354" stop-color="#2442D6"/>
<stop offset="0.2574" stop-color="#2F51DB"/>
<stop offset="0.6855" stop-color="#4D7AE9"/>
<stop offset="1" stop-color="#659BF4"/>
</linearGradient>
<linearGradient id="paint25_linear_23_11" x1="369.183" y1="167.634" x2="364.674" y2="176.229" gradientUnits="userSpaceOnUse">
<stop offset="0.0354" stop-color="#2442D6"/>
<stop offset="0.2574" stop-color="#2F51DB"/>
<stop offset="0.6855" stop-color="#4D7AE9"/>
<stop offset="1" stop-color="#659BF4"/>
</linearGradient>
<linearGradient id="paint26_linear_23_11" x1="345.191" y1="186.058" x2="366.822" y2="186.058" gradientUnits="userSpaceOnUse">
<stop stop-color="#10174D"/>
<stop offset="1" stop-color="#10208A"/>
</linearGradient>
<linearGradient id="paint27_linear_23_11" x1="356.248" y1="186.278" x2="386.155" y2="186.278" gradientUnits="userSpaceOnUse">
<stop stop-color="#10174D"/>
<stop offset="1" stop-color="#10208A"/>
</linearGradient>
<linearGradient id="paint28_linear_23_11" x1="356.248" y1="190.533" x2="386.155" y2="190.533" gradientUnits="userSpaceOnUse">
<stop stop-color="#10174D"/>
<stop offset="1" stop-color="#10208A"/>
</linearGradient>
<linearGradient id="paint29_linear_23_11" x1="360.977" y1="193.322" x2="336.642" y2="152.381" gradientUnits="userSpaceOnUse">
<stop stop-color="#10174D"/>
<stop offset="1" stop-color="#10208A"/>
</linearGradient>
<clipPath id="clip0_23_11">
<rect width="247" height="227" fill="white" transform="translate(303)"/>
</clipPath>
<clipPath id="clip1_23_11">
<rect width="174" height="244.349" fill="white" transform="translate(230 31)"/>
</clipPath>
</defs>
</svg>
