<svg width="53" height="53" viewBox="0 0 53 53" fill="none" xmlns="http://www.w3.org/2000/svg">
<circle cx="26.5" cy="26.5" r="26.5" fill="#181C2B"/>
<path d="M26.5003 10.6682C17.7568 10.6682 10.6685 17.7566 10.6685 26.5C10.6685 33.9756 15.8515 40.2371 22.8194 41.897C22.4589 41.8112 22.1015 41.715 21.7507 41.6053V37.978C21.7507 37.978 21.157 38.1759 20.3654 38.1759C18.1508 38.1759 17.2307 36.2 17.0012 35.2075C16.8617 34.6028 16.4976 34.0298 16.1067 33.6797C15.6396 33.2632 15.421 33.262 15.418 33.1195C15.4119 32.8205 15.8187 32.8327 16.0117 32.8327C17.0012 32.8327 17.7514 33.8855 18.0997 34.4299C18.9625 35.7738 19.8887 35.9991 20.3654 35.9991C20.9591 35.9991 21.4718 35.9102 21.825 35.7397C21.9882 34.59 22.4997 33.5658 23.3339 32.8327C19.6213 32.0904 17.0012 29.9611 17.0012 26.5C17.0012 24.7171 17.7167 23.0785 18.9089 21.7553C18.7871 21.4101 18.5844 20.7116 18.5844 19.5736C18.5844 18.8216 18.6367 17.8984 18.9802 17.0009C18.9802 17.0009 21.238 17.0167 23.3674 19.0335C24.3502 18.7473 25.4018 18.5841 26.5003 18.5841C27.5987 18.5841 28.6503 18.7473 29.6331 19.0335C31.7625 17.0167 34.0204 17.0009 34.0204 17.0009C34.3656 17.8984 34.4162 18.8216 34.4162 19.5736C34.4162 20.8005 34.253 21.516 34.1531 21.8247C35.3088 23.1357 35.9993 24.7487 35.9993 26.5C35.9993 29.9611 33.3792 32.0904 29.6666 32.8327C30.6579 33.7035 31.2498 34.9718 31.2498 36.3949V41.6053C30.8991 41.7156 30.5422 41.8112 30.1812 41.897C37.149 40.2371 42.3321 33.9756 42.3321 26.5C42.3321 17.7566 35.2437 10.6682 26.5003 10.6682ZM27.6042 42.2892C27.2395 42.3147 26.8717 42.3318 26.5003 42.3318C26.8717 42.3318 27.2389 42.3141 27.6042 42.2892ZM26.5003 42.3318C26.1288 42.3318 25.761 42.3147 25.3963 42.2892C25.7616 42.3141 26.1288 42.3318 26.5003 42.3318ZM25.1533 42.2709C24.4123 42.2082 23.6852 42.0949 22.9771 41.9336C23.6859 42.0943 24.4123 42.2082 25.1533 42.2709Z" fill="#F0F0F0"/>
</svg>
