<svg width="54" height="54" viewBox="0 0 54 54" fill="none" xmlns="http://www.w3.org/2000/svg">
<circle cx="27" cy="27" r="27" fill="#181C2B"/>
<path d="M21.0284 12.9759C16.5888 12.9759 12.9761 16.5886 12.9761 21.0282V32.1777C12.9761 36.6173 16.5888 40.23 21.0284 40.23H32.1778C36.6175 40.23 40.2302 36.6173 40.2302 32.1777V21.0282C40.2302 16.5886 36.6175 12.9759 32.1778 12.9759H21.0284ZM21.0284 14.2147H32.1778C35.9479 14.2147 38.9914 17.2582 38.9914 21.0282V32.1777C38.9914 35.9477 35.9479 38.9912 32.1778 38.9912H21.0284C17.2584 38.9912 14.2149 35.9477 14.2149 32.1777V21.0282C14.2149 17.2582 17.2584 14.2147 21.0284 14.2147ZM34.0361 17.9312C33.7075 17.9312 33.3924 18.0617 33.1601 18.294C32.9278 18.5264 32.7972 18.8415 32.7972 19.17C32.7972 19.4986 32.9278 19.8137 33.1601 20.046C33.3924 20.2783 33.7075 20.4088 34.0361 20.4088C34.3646 20.4088 34.6797 20.2783 34.9121 20.046C35.1444 19.8137 35.2749 19.4986 35.2749 19.17C35.2749 18.8415 35.1444 18.5264 34.9121 18.294C34.6797 18.0617 34.3646 17.9312 34.0361 17.9312ZM26.6031 19.7894C22.8475 19.7894 19.7896 22.8473 19.7896 26.6029C19.7896 30.3586 22.8475 33.4165 26.6031 33.4165C30.3588 33.4165 33.4167 30.3586 33.4167 26.6029C33.4167 22.8473 30.3588 19.7894 26.6031 19.7894ZM26.6031 21.0282C29.6893 21.0282 32.1778 23.5168 32.1778 26.6029C32.1778 29.6891 29.6893 32.1777 26.6031 32.1777C23.517 32.1777 21.0284 29.6891 21.0284 26.6029C21.0284 23.5168 23.517 21.0282 26.6031 21.0282Z" fill="#F0F0F0"/>
</svg>
