<svg width="57" height="57" viewBox="0 0 57 57" fill="none" xmlns="http://www.w3.org/2000/svg">
<circle cx="28.5" cy="28.5" r="28.5" fill="#181C2B"/>
<path d="M28.4999 9.99179C18.2947 9.99179 9.9917 18.2939 9.9917 28.5C9.9917 38.7061 18.2947 47.0083 28.4999 47.0083C38.7052 47.0083 47.0082 38.7061 47.0082 28.5C47.0082 18.2939 38.7052 9.99179 28.4999 9.99179ZM22.867 36.5471H19.6482V24.4765H22.867V36.5471ZM21.2576 22.0624C20.3684 22.0624 19.6482 21.3422 19.6482 20.453C19.6482 19.5638 20.3684 18.8436 21.2576 18.8436C22.1468 18.8436 22.867 19.5638 22.867 20.453C22.867 21.3422 22.1468 22.0624 21.2576 22.0624ZM38.1564 36.5471H34.9376V32.5236V30.5118C34.9376 28.9627 33.6702 27.6953 32.1211 27.6953C30.5721 27.6953 29.3046 28.9627 29.3046 30.5118V36.5471H26.0858V24.4765H29.3046V25.9378C30.2445 25.035 31.5192 24.4765 32.9258 24.4765C35.8147 24.4765 38.1564 26.8182 38.1564 29.7071V36.5471Z" fill="#F0F0F0"/>
</svg>
