<svg width="51" height="51" viewBox="0 0 51 51" fill="none" xmlns="http://www.w3.org/2000/svg">
<circle cx="25.5" cy="25.5" r="25.5" fill="#181C2B"/>
<path d="M25.5001 13.08C18.6472 13.08 13.0801 18.6472 13.0801 25.5C13.0801 27.7027 13.6842 29.7584 14.6916 31.5529L13.1001 37.2345C13.0747 37.3254 13.0735 37.4214 13.0968 37.5129C13.12 37.6044 13.1669 37.6882 13.2326 37.756C13.2983 37.8237 13.3807 37.8731 13.4714 37.8991C13.5622 37.9251 13.6582 37.9269 13.7498 37.9042L19.674 36.4361C21.4148 37.3654 23.3901 37.92 25.5001 37.92C32.3529 37.92 37.9201 32.3529 37.9201 25.5C37.9201 18.6472 32.3529 13.08 25.5001 13.08ZM25.5001 14.16C31.7692 14.16 36.8401 19.2309 36.8401 25.5C36.8401 31.7692 31.7692 36.84 25.5001 36.84C23.4902 36.84 21.6078 36.316 19.9714 35.4004C19.8517 35.3335 19.7111 35.3146 19.578 35.3476L14.39 36.6333L15.7811 31.6699C15.801 31.5998 15.8065 31.5264 15.7973 31.454C15.788 31.3817 15.7643 31.312 15.7273 31.2491C14.7328 29.5628 14.1601 27.6007 14.1601 25.5C14.1601 19.2309 19.2309 14.16 25.5001 14.16ZM20.9871 19.02C20.6409 19.02 20.1465 19.1488 19.7404 19.5864C19.4965 19.8492 18.4801 20.8396 18.4801 22.5806C18.4801 24.3959 19.739 25.9622 19.8913 26.1634H19.8923V26.1645C19.8779 26.1455 20.0855 26.4462 20.3627 26.8068C20.6399 27.1673 21.0275 27.6409 21.5144 28.1536C22.4883 29.179 23.8576 30.364 25.557 31.0888C26.3397 31.4221 26.9571 31.6233 27.4249 31.7701C28.2918 32.0423 29.0814 32.001 29.6745 31.9136C30.1185 31.8482 30.6068 31.635 31.0899 31.3293C31.5731 31.0235 32.0465 30.6434 32.2554 30.0658C32.4049 29.6517 32.481 29.269 32.5085 28.9541C32.5222 28.7967 32.524 28.6577 32.5138 28.5291C32.5035 28.4004 32.5145 28.3019 32.3946 28.1051C32.1432 27.6923 31.8584 27.6815 31.5614 27.5345C31.3963 27.4528 30.9264 27.2233 30.455 26.9987C29.9842 26.7744 29.5765 26.5757 29.3254 26.4862C29.1668 26.4291 28.9731 26.3469 28.6937 26.3786C28.4142 26.4102 28.1382 26.6118 27.9775 26.85C27.8252 27.0758 27.2121 27.7995 27.0252 28.0123C27.0227 28.0108 27.0389 28.0182 26.965 27.9817C26.7338 27.8673 26.4511 27.77 26.0327 27.5493C25.6143 27.3286 25.0909 27.0026 24.5182 26.4978V26.4967C23.6657 25.7462 23.0686 24.804 22.8802 24.4875C22.8929 24.4724 22.8787 24.4907 22.9055 24.4643L22.9066 24.4633C23.0991 24.2736 23.2697 24.0472 23.4139 23.8811C23.6183 23.6456 23.7085 23.438 23.8063 23.244C24.001 22.8575 23.8926 22.4321 23.7799 22.2083V22.2073C23.7877 22.2228 23.7189 22.0711 23.6449 21.8962C23.5706 21.7207 23.476 21.4932 23.3749 21.2507C23.1727 20.7656 22.947 20.2215 22.8127 19.9028V19.9017C22.6546 19.5264 22.4407 19.2559 22.1609 19.1255C21.8812 18.995 21.6341 19.0321 21.6241 19.0316H21.623C21.4234 19.0224 21.2044 19.02 20.9871 19.02ZM20.9871 20.1C21.1953 20.1 21.4005 20.1026 21.5724 20.1106C21.7493 20.1194 21.7383 20.1201 21.7043 20.1042C21.6697 20.0881 21.7166 20.0829 21.8171 20.3215C21.9486 20.6335 22.1754 21.1796 22.3782 21.6662C22.4796 21.9095 22.5745 22.1379 22.6503 22.317C22.7261 22.4961 22.7672 22.5961 22.8148 22.6914V22.6924L22.8159 22.6935C22.8626 22.7857 22.8585 22.7267 22.8423 22.7589C22.7283 22.9851 22.7128 23.0406 22.5976 23.1734C22.4221 23.3756 22.243 23.6011 22.1483 23.6944C22.0654 23.7758 21.9158 23.9027 21.8224 24.1511C21.7288 24.3998 21.7725 24.7411 21.9226 24.9959C22.1224 25.3351 22.7809 26.4068 23.8041 27.3078C24.4486 27.8758 25.0489 28.2518 25.5286 28.5048C26.0082 28.7578 26.3988 28.9056 26.4862 28.9488C26.6938 29.0516 26.9206 29.1313 27.1844 29.0997C27.4482 29.068 27.6756 28.9079 27.8204 28.7442L27.8214 28.7432C28.0141 28.5247 28.5866 27.871 28.8614 27.4681C28.873 27.4722 28.8692 27.469 28.9605 27.5018V27.5029H28.9616C29.0033 27.5177 29.5254 27.7514 29.9909 27.9733C30.4565 28.1951 30.929 28.4257 31.0825 28.5017C31.3041 28.6113 31.4088 28.6827 31.4359 28.6831C31.4377 28.7306 31.4395 28.7821 31.4327 28.8603C31.4138 29.0771 31.3558 29.3773 31.2397 29.6987C31.1828 29.8561 30.8866 30.1806 30.513 30.417C30.1394 30.6534 29.6847 30.8204 29.5163 30.8452C29.01 30.9198 28.4089 30.947 27.7487 30.7397C27.2909 30.596 26.7201 30.41 25.981 30.0953C24.4821 29.456 23.2081 28.3682 22.298 27.4101C21.843 26.931 21.4785 26.485 21.2191 26.1476C20.9602 25.8108 20.8472 25.6356 20.7529 25.5116L20.7519 25.5106C20.5846 25.2893 19.5601 23.8643 19.5601 22.5806C19.5601 21.2221 20.1911 20.6894 20.5325 20.3215C20.7117 20.1284 20.9077 20.1 20.9871 20.1Z" fill="#F0F0F0"/>
</svg>
