<svg width="174" height="245" viewBox="0 0 174 245" fill="none" xmlns="http://www.w3.org/2000/svg">
<g clip-path="url(#clip0_37_14015)">
<path opacity="0.2" d="M129.771 202.901C129.771 204.46 128.64 206.1 126.412 207.392L94.2585 238.075C90.1948 240.419 84.0368 240.677 80.5167 238.645L22.0296 204.674C20.3274 203.694 19.561 202.348 19.668 200.967C19.6591 201.029 19.6501 201.109 19.6501 201.207C19.6501 201.252 19.6501 205.583 19.6501 205.627C19.6769 206.893 20.4611 208.105 22.0296 209.014L80.5167 242.985C84.0368 245.017 90.1948 244.767 94.2585 242.415L126.412 211.732C128.666 210.431 129.807 208.755 129.771 207.178C129.771 206.902 129.816 203.988 129.771 202.901Z" fill="url(#paint0_linear_37_14015)"/>
<g opacity="0.2">
<path opacity="0.0909" d="M20.7909 190.371L72.122 170.622C75.0183 168.956 78.6542 168.056 82.2991 168.091C83.8675 168.109 85.3647 168.314 86.7371 168.662C88.0471 168.992 89.571 169.624 90.6315 170.239L128.568 192.465C128.604 192.483 129.691 193.124 129.718 193.151C132.721 194.951 134.094 197.767 133.924 200.806C133.755 203.907 131.411 207.365 128.052 209.308L96.4865 239.438C93.6525 241.078 90.0968 241.978 86.5054 241.978C83.3774 241.978 80.5257 241.301 78.2799 240.009L19.7928 206.037C16.843 204.335 15.1676 201.662 15.1854 198.694C15.2122 195.45 17.244 192.42 20.7909 190.371Z" fill="black"/>
<path opacity="0.1818" d="M21.0137 190.754L72.3448 171.006C75.2233 169.339 78.8771 168.475 82.4774 168.546C84.0458 168.582 85.5162 168.831 86.8797 169.188C88.0561 169.499 89.7671 170.257 90.7296 170.801L128.461 192.91C128.533 192.955 129.549 193.552 129.602 193.597C132.543 195.423 133.514 198.222 133.185 201.198C132.873 203.979 130.288 207.713 127.258 209.459L96.2726 239.037C93.5011 240.632 90.0345 241.506 86.5411 241.515C83.4933 241.523 80.704 240.864 78.5206 239.607L20.0334 205.636C17.1995 204.005 15.6222 201.457 15.6489 198.65C15.6756 195.593 17.6184 192.714 21.0137 190.754Z" fill="black"/>
<path opacity="0.2727" d="M21.2366 191.146L72.5677 171.398C75.4373 169.74 79.0911 168.903 82.6557 169.009C84.2153 169.063 85.6768 169.348 87.0135 169.713C88.0562 169.999 89.9633 170.881 90.8188 171.371L128.346 193.356C128.453 193.418 129.388 193.98 129.469 194.051C132.338 195.905 132.926 198.65 132.427 201.608C132.017 204.059 129.139 208.069 126.456 209.629L96.0499 238.645C93.3497 240.205 89.9633 241.051 86.559 241.069C83.5915 241.078 80.8645 240.445 78.7346 239.215L20.2474 205.244C17.5383 203.676 16.05 201.261 16.0946 198.605C16.1392 195.744 17.9928 193.017 21.2366 191.146Z" fill="black"/>
<path opacity="0.3636" d="M21.4593 191.529L72.7904 171.781C75.6422 170.132 79.3137 169.312 82.8338 169.464C84.3845 169.535 85.8282 169.856 87.1471 170.239C88.0561 170.498 90.1592 171.514 90.8989 171.941L128.221 193.811C128.363 193.891 129.228 194.417 129.335 194.515C132.142 196.395 132.989 199.282 131.67 202.027C131.67 204.202 127.998 208.444 125.645 209.807L95.8181 238.271C93.1892 239.786 89.8741 240.615 86.5767 240.632C83.6894 240.641 81.0248 240.035 78.9573 238.841L20.4701 204.87C17.8857 203.373 16.4777 201.091 16.5401 198.587C16.6025 195.887 18.3581 193.32 21.4593 191.529Z" fill="black"/>
<path opacity="0.4545" d="M21.6821 191.912L73.0132 172.164C75.8561 170.524 79.5366 169.731 83.0121 169.918C84.5538 170.007 85.9886 170.364 87.2808 170.765C88.0561 170.997 90.3553 172.146 90.988 172.512L128.105 194.256C128.283 194.363 129.076 194.844 129.21 194.96C131.946 196.867 132.57 199.781 130.921 202.428C130.921 204.291 126.857 208.8 124.843 209.967L95.5954 237.879C93.0288 239.358 89.8028 240.16 86.5946 240.178C83.7874 240.196 81.1763 239.607 79.1712 238.449L20.684 204.478C18.2155 203.052 16.9055 200.895 16.9768 198.551C17.0659 196.038 18.7324 193.614 21.6821 191.912Z" fill="black"/>
<path opacity="0.5455" d="M21.905 192.305L73.2361 172.556C76.07 170.926 79.7505 170.159 83.1904 170.382C84.7321 170.489 86.1402 170.881 87.4234 171.291C88.0651 171.496 90.5514 172.779 91.0861 173.082L127.998 194.702C128.212 194.827 128.934 195.272 129.094 195.415C131.768 197.357 132.151 200.281 130.19 202.838C130.19 204.389 125.744 209.165 124.059 210.137L95.3905 237.496C92.8952 238.939 89.7494 239.715 86.6392 239.732C83.9122 239.75 81.3635 239.189 79.4208 238.066L20.9336 204.095C18.5898 202.74 17.3689 200.717 17.4491 198.525C17.5294 196.181 19.1067 193.918 21.905 192.305Z" fill="black"/>
<path opacity="0.6364" d="M22.1277 192.688L73.4588 172.939C76.2749 171.309 79.9732 170.578 83.3597 170.836C84.8925 170.961 86.2827 171.398 87.5481 171.817C88.0561 171.986 90.7385 173.403 91.1663 173.652L127.864 195.156C128.114 195.299 128.756 195.709 128.943 195.878C131.545 197.847 131.705 200.797 129.415 203.257C129.415 204.496 124.576 209.54 123.239 210.315L95.1587 237.121C92.7347 238.52 89.6691 239.278 86.657 239.304C84.0102 239.331 81.5239 238.788 79.6346 237.691L21.1474 203.72C18.9195 202.437 17.7877 200.539 17.8858 198.498C17.9927 196.324 19.4809 194.22 22.1277 192.688Z" fill="black"/>
<path opacity="0.7273" d="M22.3595 193.071L73.6906 173.323C76.4978 171.701 80.2051 170.997 83.5469 171.291C85.0708 171.425 86.4432 171.906 87.6908 172.342C88.074 172.476 90.9436 174.036 91.2644 174.223L127.758 195.602C128.043 195.771 128.613 196.137 128.827 196.324C131.367 198.32 131.296 201.287 128.676 203.658C128.676 204.594 123.453 209.896 122.446 210.475L94.9449 236.72C92.5833 238.084 89.5979 238.814 86.6838 238.841C84.1173 238.868 81.6933 238.351 79.8664 237.291L21.3792 203.319C19.2761 202.107 18.2334 200.334 18.3493 198.454C18.4562 196.475 19.8553 194.523 22.3595 193.071Z" fill="black"/>
<path opacity="0.8182" d="M22.5821 193.463L73.9132 173.715C76.7025 172.102 80.4276 171.416 83.7249 171.754C85.2488 171.906 86.5945 172.423 87.8332 172.868C88.0827 172.957 91.1483 174.668 91.3533 174.793L127.633 196.056C127.953 196.243 128.452 196.573 128.693 196.787C131.162 198.81 130.868 201.804 127.918 204.077C127.918 204.701 122.303 210.261 121.635 210.654L94.713 236.346C92.4227 237.665 89.5175 238.378 86.7014 238.404C84.215 238.431 81.8535 237.941 80.08 236.916L21.5929 202.945C19.6056 201.795 18.6609 200.165 18.7857 198.436C18.9105 196.618 20.2205 194.818 22.5821 193.463Z" fill="black"/>
<path opacity="0.9091" d="M22.805 193.846L74.1361 174.098C76.9166 172.494 80.6417 171.834 83.9033 172.2C85.4183 172.369 86.7461 172.922 87.967 173.385C88.0918 173.43 91.3356 175.292 91.4426 175.355L127.526 196.493C127.882 196.698 128.31 196.992 128.577 197.224C130.984 199.273 130.458 202.286 127.178 204.46C127.178 204.772 121.181 210.6 120.842 210.796L94.4993 235.936C92.2803 237.219 89.4553 237.897 86.7283 237.932C84.3222 237.968 82.023 237.496 80.303 236.497L21.8158 202.526C19.9533 201.448 19.0889 199.942 19.2315 198.373C19.374 196.769 20.5949 195.121 22.805 193.846Z" fill="black"/>
<path d="M80.5257 236.132L22.0385 202.161C18.5184 200.129 18.9551 196.573 23.0277 194.229L74.3588 174.481C78.4225 172.137 84.5805 171.879 88.1006 173.911L127.401 196.947C130.921 198.979 130.484 202.535 126.412 204.879L94.2585 235.562C90.1948 237.914 84.0458 238.164 80.5257 236.132Z" fill="black"/>
</g>
<path d="M80.5259 236.052L22.0387 202.081C20.4703 201.172 19.686 199.969 19.6593 198.694C19.6593 198.65 19.6593 194.319 19.6593 194.274C19.686 192.732 20.8267 195.406 23.019 194.14L74.3501 174.392C78.4138 172.048 84.5718 171.79 88.0919 173.822L127.401 196.85C128.578 197.527 129.433 194.648 129.736 195.566C129.834 195.869 129.772 199.915 129.781 200.227C129.816 201.804 128.676 203.48 126.421 204.781L94.2676 235.464C90.195 237.834 84.046 238.084 80.5259 236.052Z" fill="url(#paint1_linear_37_14015)"/>
<path d="M80.5257 231.712L22.0385 197.75C18.5184 195.718 18.9551 192.162 23.0277 189.818L74.3588 170.07C78.4225 167.726 84.5805 167.468 88.1006 169.5L127.41 192.527C130.93 194.559 130.493 198.115 126.421 200.459L94.2674 231.142C90.1948 233.494 84.0458 233.753 80.5257 231.712Z" fill="url(#paint2_linear_37_14015)"/>
<path opacity="0.8182" d="M127.401 192.527L88.0918 169.499C84.5717 167.468 78.4137 167.717 74.35 170.07L48.4973 180.015C48.7379 180.211 48.9964 180.398 49.2994 180.568L107.787 214.539C108.597 215.011 109.551 215.35 110.585 215.573L126.421 200.458C130.485 198.115 130.921 194.568 127.401 192.527Z" fill="url(#paint3_linear_37_14015)"/>
<path opacity="0.6" d="M126.412 199.728L94.2585 230.411C90.1948 232.754 84.0369 233.013 80.5168 230.981L22.0296 197.01C20.5681 196.163 19.8017 195.058 19.6769 193.891C19.4898 195.326 20.2651 196.734 22.0296 197.749L80.5168 231.721C84.0369 233.753 90.1948 233.503 94.2585 231.15L126.412 200.468C128.791 199.095 129.923 197.313 129.745 195.655C129.566 197.081 128.444 198.56 126.412 199.728Z" fill="url(#paint4_radial_37_14015)"/>
<path d="M156.934 231.908L13.2962 148.905C5.95298 144.672 0 133.292 0 123.507V13.6526C0 3.85873 5.95298 -0.641658 13.2962 3.60029L156.934 86.5945C164.277 90.8364 170.23 102.208 170.23 112.002V221.856C170.23 231.641 164.277 236.141 156.934 231.908Z" fill="url(#paint5_linear_37_14015)"/>
<path d="M158.645 224.253L17.0302 142.444C11.1218 138.692 7.46802 131.179 7.46802 123.506V12.9307C7.46802 11.1127 9.4464 9.98096 11.0149 10.8989C11.202 11.0058 11.3446 11.086 11.4337 11.1395L153.2 93.0554C160.232 97.1102 162.762 104.32 162.762 111.993V222.221C162.762 224.173 160.65 225.393 158.957 224.431C158.824 224.36 158.717 224.297 158.645 224.253Z" fill="url(#paint6_linear_37_14015)"/>
<path d="M160.374 223.255C160.24 223.174 160.134 223.121 160.062 223.076L18.4472 141.258C12.5387 137.507 8.88497 129.994 8.88497 122.321V11.7454C8.88497 11.3444 8.99191 10.9879 9.15232 10.676C8.2166 10.9612 7.46802 11.8078 7.46802 12.9307V123.506C7.46802 131.188 11.1218 138.692 17.0302 142.444L158.645 224.262C158.717 224.306 158.824 224.36 158.957 224.44C160.258 225.18 161.8 224.627 162.442 223.451C161.791 223.665 161.051 223.638 160.374 223.255Z" fill="#BCC0BE"/>
<path d="M160.704 84.5894L17.0658 1.59515C14.1606 -0.0802363 11.4692 -0.392144 9.28589 0.454463C9.00963 0.561403 5.30238 2.53088 5.03503 2.67346C5.02612 2.67346 5.02612 2.68238 5.02612 2.68238C7.28968 1.58624 10.1681 1.79121 13.2961 3.60028L156.934 86.5945C164.277 90.8364 170.23 102.208 170.23 112.002V221.856C170.23 227.969 167.913 232.015 164.384 233.164C164.669 233.182 165.026 233.066 165.552 232.772C165.721 232.674 169.74 230.402 169.901 230.295C172.423 228.53 174 224.894 174 219.859V109.996C174 100.203 168.047 88.8313 160.704 84.5894Z" fill="url(#paint7_linear_37_14015)"/>
<path opacity="0.6" d="M157.576 86.2736L13.9378 3.27936C10.9257 1.54159 8.15418 1.29206 5.92627 2.25452C7.82445 1.95153 10.0167 2.41493 12.3427 3.76059L155.981 86.7548C163.324 90.9967 169.277 102.368 169.277 112.162V222.016C169.277 227.791 167.192 231.703 163.992 233.093C168.092 232.442 170.872 228.227 170.872 221.535V111.681C170.872 101.887 164.919 90.5155 157.576 86.2736Z" fill="url(#paint8_radial_37_14015)"/>
<path d="M7.46802 121.929V123.498C7.46802 131.18 11.1218 138.683 17.0302 142.435L158.645 224.253C158.717 224.297 158.824 224.351 158.957 224.431C160.65 225.394 162.762 224.173 162.762 222.221V211.652L7.46802 121.929Z" fill="url(#paint9_linear_37_14015)"/>
<path d="M7.46802 121.929L162.762 211.652V209.575L9.17905 121.261L7.46802 121.929Z" fill="url(#paint10_linear_37_14015)"/>
<path d="M87.343 93.8842V115.878L88.7956 115.103V92.9841L87.343 93.8842Z" fill="url(#paint11_linear_37_14015)"/>
<path d="M87.361 93.884V115.878L19.0354 76.5241V54.4054L87.361 93.884Z" fill="url(#paint12_linear_37_14015)"/>
<path d="M19.0354 54.4054L87.361 93.8841L88.7958 92.984L20.4434 53.5499L19.0354 54.4054Z" fill="url(#paint13_linear_37_14015)"/>
<path d="M82.9407 106.922L80.1514 102.101C79.8573 101.593 79.4117 101.29 79.0731 101.316L78.2532 99.9084C79.483 98.7588 79.3583 96.0318 77.8789 93.4831C76.2659 90.6937 73.6459 89.1876 72.0329 90.1055C70.4199 91.0234 70.4199 94.0267 72.0329 96.816C73.5122 99.3648 75.8292 100.844 77.4422 100.372L78.2621 101.78C78.0661 102.056 78.1106 102.591 78.4047 103.099L81.1941 107.92C81.5416 108.526 82.112 108.847 82.4595 108.651L82.9407 108.374C83.2883 108.169 83.2883 107.519 82.9407 106.922ZM76.8808 98.4647C75.8203 99.0707 74.0915 98.0726 73.031 96.2368C71.9705 94.401 71.9705 92.4226 73.031 91.8166C74.0915 91.2106 75.8203 92.2087 76.8808 94.0445C77.9413 95.8803 77.9413 97.8587 76.8808 98.4647Z" fill="white"/>
<path d="M67.5771 98.7588L25.1309 74.2339V63.6825L67.5771 88.2074V98.7588Z" fill="white"/>
<path d="M11.1306 82.8873V123.738L106.637 178.598V137.747L11.1306 82.8873Z" fill="url(#paint14_linear_37_14015)"/>
<path d="M106.628 137.747V178.598L108.196 177.636V136.785L106.628 137.747Z" fill="url(#paint15_linear_37_14015)"/>
<path d="M108.196 136.785L106.628 137.747L11.1306 82.8873L12.7169 81.9159L108.196 136.785Z" fill="url(#paint16_linear_37_14015)"/>
<path d="M40.3431 133.291L16.139 119.184V92.4761L40.3431 106.574V133.291Z" fill="url(#paint17_linear_37_14015)"/>
<path d="M44.879 111.315V113.526L72.9596 129.433V127.223L44.879 111.315Z" fill="#2F4DC9"/>
<path opacity="0.6" d="M58.3356 139.236L44.879 131.572V133.782L58.3356 141.437V139.236Z" fill="#2F4DC9"/>
<path opacity="0.6" d="M60.5101 140.492V142.693L78.0304 152.728V150.518L60.5101 140.492Z" fill="#2F4DC9"/>
<path opacity="0.6" d="M76.5509 146.926V144.716L61.3209 135.947V138.157L76.5509 146.926Z" fill="#2F4DC9"/>
<path opacity="0.6" d="M67.0067 134.138L44.879 121.466V123.676L67.0067 136.348V134.138Z" fill="#2F4DC9"/>
<path opacity="0.6" d="M58.3356 124.184L44.879 116.529V118.739L58.3356 126.394V124.184Z" fill="#2F4DC9"/>
<path opacity="0.6" d="M60.5101 125.44V127.65L78.0304 137.685V135.475L60.5101 125.44Z" fill="#2F4DC9"/>
<path opacity="0.6" d="M69.1813 135.395V137.596L79.8842 143.959V141.749L69.1813 135.395Z" fill="#2F4DC9"/>
<path opacity="0.6" d="M80.205 138.942L100.176 150.785V148.575L80.205 136.732V138.942Z" fill="#2F4DC9"/>
<path opacity="0.6" d="M82.0586 145.215L100.176 155.722V153.512L82.0586 143.005V145.215Z" fill="#2F4DC9"/>
<path opacity="0.6" d="M59.1466 134.691L44.879 126.563V128.764L59.1466 136.901V134.691Z" fill="#2F4DC9"/>
<path opacity="0.6" d="M78.7255 148.183L100.14 161.016V158.806L78.7255 145.973V148.183Z" fill="#2F4DC9"/>
<g opacity="0.9">
<path d="M162.843 186.459V211.117L106.931 178.928V154.127L162.843 186.459Z" fill="url(#paint18_linear_37_14015)"/>
<path d="M106.931 154.127L162.843 186.458L162.807 184.587L108.401 153.209L106.931 154.127Z" fill="url(#paint19_linear_37_14015)"/>
</g>
<path d="M115.192 164.75V166.791L156.159 190.389V188.339L115.192 164.75Z" fill="url(#paint20_linear_37_14015)"/>
<path d="M136.821 185.754L115.192 173.251V175.301L136.821 187.804V185.754Z" fill="url(#paint21_linear_37_14015)"/>
<path d="M115.192 171.05L156.159 194.648V192.599L115.192 169V171.05Z" fill="url(#paint22_linear_37_14015)"/>
<g opacity="0.9">
<path d="M162.843 160.989V185.647L106.931 153.459V128.657L162.843 160.989Z" fill="url(#paint23_linear_37_14015)"/>
<path d="M106.931 128.657L162.843 160.989L162.807 159.117L108.401 127.74L106.931 128.657Z" fill="url(#paint24_linear_37_14015)"/>
</g>
<path d="M136.821 160.285L115.192 147.782V149.832L136.821 162.335V160.285Z" fill="url(#paint25_linear_37_14015)"/>
<path d="M126.251 145.634V147.684L156.159 164.919V162.869L126.251 145.634Z" fill="url(#paint26_linear_37_14015)"/>
<path d="M126.251 151.935L156.159 169.179V167.129L126.251 149.894V151.935Z" fill="url(#paint27_linear_37_14015)"/>
<path opacity="0.8" d="M123.017 141.962L116.181 138.014C115.762 137.774 115.424 137.97 115.424 138.451V143.076C115.424 143.558 115.762 144.146 116.181 144.386L120.45 146.855L122.589 150.535V148.085L123.017 148.334C123.435 148.575 123.774 148.379 123.774 147.898V143.272C123.774 142.791 123.435 142.203 123.017 141.962ZM118.195 142.827C117.973 142.952 117.616 142.747 117.393 142.363C117.171 141.98 117.171 141.57 117.393 141.437C117.616 141.312 117.973 141.517 118.195 141.9C118.418 142.292 118.418 142.702 118.195 142.827ZM120.049 143.896C119.826 144.021 119.47 143.816 119.247 143.433C119.024 143.05 119.024 142.64 119.247 142.506C119.47 142.381 119.826 142.586 120.049 142.969C120.272 143.361 120.272 143.771 120.049 143.896ZM121.894 144.966C121.671 145.09 121.314 144.885 121.092 144.502C120.869 144.119 120.869 143.709 121.092 143.575C121.314 143.451 121.671 143.656 121.894 144.039C122.116 144.422 122.116 144.841 121.894 144.966Z" fill="url(#paint28_linear_37_14015)"/>
</g>
<defs>
<linearGradient id="paint0_linear_37_14015" x1="24.0733" y1="222.657" x2="140.218" y2="222.657" gradientUnits="userSpaceOnUse">
<stop offset="0.0556" stop-color="#011541"/>
<stop offset="0.2576" stop-color="#031743"/>
<stop offset="0.3572" stop-color="#091C4B"/>
<stop offset="0.4341" stop-color="#142658"/>
<stop offset="0.4697" stop-color="#1B2D61"/>
<stop offset="0.482" stop-color="#1D3065"/>
<stop offset="0.4954" stop-color="#243973"/>
<stop offset="0.5093" stop-color="#2F4888"/>
<stop offset="0.5235" stop-color="#3F5CA7"/>
<stop offset="0.5303" stop-color="#4868B8"/>
<stop offset="0.5366" stop-color="#4362AE"/>
<stop offset="0.5617" stop-color="#324B8D"/>
<stop offset="0.5857" stop-color="#253A75"/>
<stop offset="0.6078" stop-color="#1E3066"/>
<stop offset="0.6263" stop-color="#1B2D61"/>
<stop offset="0.6724" stop-color="#112455"/>
<stop offset="0.7491" stop-color="#051946"/>
<stop offset="0.8131" stop-color="#011541"/>
<stop offset="1" stop-color="#011541"/>
</linearGradient>
<linearGradient id="paint1_linear_37_14015" x1="24.0733" y1="204.945" x2="140.219" y2="204.945" gradientUnits="userSpaceOnUse">
<stop offset="0.0556" stop-color="#011541"/>
<stop offset="0.2576" stop-color="#031743"/>
<stop offset="0.3572" stop-color="#091C4B"/>
<stop offset="0.4341" stop-color="#142658"/>
<stop offset="0.4697" stop-color="#1B2D61"/>
<stop offset="0.482" stop-color="#1D3065"/>
<stop offset="0.4954" stop-color="#243973"/>
<stop offset="0.5093" stop-color="#2F4888"/>
<stop offset="0.5235" stop-color="#3F5CA7"/>
<stop offset="0.5303" stop-color="#4868B8"/>
<stop offset="0.5366" stop-color="#4362AE"/>
<stop offset="0.5617" stop-color="#324B8D"/>
<stop offset="0.5857" stop-color="#253A75"/>
<stop offset="0.6078" stop-color="#1E3066"/>
<stop offset="0.6263" stop-color="#1B2D61"/>
<stop offset="0.6724" stop-color="#112455"/>
<stop offset="0.7491" stop-color="#051946"/>
<stop offset="0.8131" stop-color="#011541"/>
<stop offset="1" stop-color="#011541"/>
</linearGradient>
<linearGradient id="paint2_linear_37_14015" x1="55.1527" y1="212.414" x2="107.802" y2="183.289" gradientUnits="userSpaceOnUse">
<stop stop-color="#1B2D61"/>
<stop offset="0.2031" stop-color="#0F2252"/>
<stop offset="0.4949" stop-color="#011541"/>
<stop offset="1" stop-color="#00031F"/>
</linearGradient>
<linearGradient id="paint3_linear_37_14015" x1="83.0745" y1="198.645" x2="93.4101" y2="181.316" gradientUnits="userSpaceOnUse">
<stop stop-color="white"/>
<stop offset="1"/>
</linearGradient>
<radialGradient id="paint4_radial_37_14015" cx="0" cy="0" r="1" gradientUnits="userSpaceOnUse" gradientTransform="translate(83.4183 222.194) scale(41.3216 41.3216)">
<stop stop-color="#617FFC"/>
<stop offset="1" stop-color="#052C4D"/>
</radialGradient>
<linearGradient id="paint5_linear_37_14015" x1="168.308" y1="232.869" x2="-9.4297" y2="-13.0758" gradientUnits="userSpaceOnUse">
<stop stop-color="#1B2D61"/>
<stop offset="1" stop-color="#08104A"/>
</linearGradient>
<linearGradient id="paint6_linear_37_14015" x1="33.289" y1="-1.23274" x2="105.384" y2="163.736" gradientUnits="userSpaceOnUse">
<stop offset="0.0101" stop-color="#2245AB"/>
<stop offset="0.4293" stop-color="#2744BD"/>
<stop offset="0.904" stop-color="#071A5F"/>
</linearGradient>
<linearGradient id="paint7_linear_37_14015" x1="206.073" y1="238.211" x2="66.1737" y2="14.6706" gradientUnits="userSpaceOnUse">
<stop offset="0.0556" stop-color="#011541"/>
<stop offset="0.2576" stop-color="#031743"/>
<stop offset="0.3572" stop-color="#091C4B"/>
<stop offset="0.4341" stop-color="#142658"/>
<stop offset="0.4697" stop-color="#1B2D61"/>
<stop offset="0.482" stop-color="#1D3065"/>
<stop offset="0.4954" stop-color="#243973"/>
<stop offset="0.5093" stop-color="#2F4888"/>
<stop offset="0.5235" stop-color="#3F5CA7"/>
<stop offset="0.5303" stop-color="#4868B8"/>
<stop offset="0.5366" stop-color="#4362AE"/>
<stop offset="0.5617" stop-color="#324B8D"/>
<stop offset="0.5857" stop-color="#253A75"/>
<stop offset="0.6078" stop-color="#1E3066"/>
<stop offset="0.6263" stop-color="#1B2D61"/>
</linearGradient>
<radialGradient id="paint8_radial_37_14015" cx="0" cy="0" r="1" gradientUnits="userSpaceOnUse" gradientTransform="translate(166.384 110.911) scale(23.8132)">
<stop stop-color="#617FFC"/>
<stop offset="1" stop-color="#052C4D"/>
</radialGradient>
<linearGradient id="paint9_linear_37_14015" x1="100.243" y1="145.432" x2="59.6475" y2="217.839" gradientUnits="userSpaceOnUse">
<stop offset="0.0303" stop-color="#2F4DC9"/>
<stop offset="0.4809" stop-color="#3E71E1"/>
<stop offset="1" stop-color="#529FFF"/>
</linearGradient>
<linearGradient id="paint10_linear_37_14015" x1="94.6948" y1="149.595" x2="85.4864" y2="166.123" gradientUnits="userSpaceOnUse">
<stop offset="0.0303" stop-color="#2F4DC9"/>
<stop offset="0.4809" stop-color="#3E71E1"/>
<stop offset="1" stop-color="#529FFF"/>
</linearGradient>
<linearGradient id="paint11_linear_37_14015" x1="85.9056" y1="105.081" x2="100.549" y2="100.696" gradientUnits="userSpaceOnUse">
<stop offset="0.0354" stop-color="#2245AB"/>
<stop offset="0.2684" stop-color="#2B51BA"/>
<stop offset="0.7178" stop-color="#446FE3"/>
<stop offset="1" stop-color="#5584FF"/>
</linearGradient>
<linearGradient id="paint12_linear_37_14015" x1="-45.0956" y1="107.177" x2="155.827" y2="62.1367" gradientUnits="userSpaceOnUse">
<stop offset="0.0354" stop-color="#2245AB"/>
<stop offset="0.2684" stop-color="#2B51BA"/>
<stop offset="0.7178" stop-color="#446FE3"/>
<stop offset="1" stop-color="#5584FF"/>
</linearGradient>
<linearGradient id="paint13_linear_37_14015" x1="58.3082" y1="65.3281" x2="53.2825" y2="74.9059" gradientUnits="userSpaceOnUse">
<stop offset="0.0354" stop-color="#2245AB"/>
<stop offset="0.2684" stop-color="#2B51BA"/>
<stop offset="0.7178" stop-color="#446FE3"/>
<stop offset="1" stop-color="#5584FF"/>
</linearGradient>
<linearGradient id="paint14_linear_37_14015" x1="109.516" y1="80.517" x2="24.0191" y2="165.33" gradientUnits="userSpaceOnUse">
<stop offset="0.0354" stop-color="#556FB3"/>
<stop offset="0.5808" stop-color="#D1D2D8"/>
<stop offset="1" stop-color="#EBECF2"/>
</linearGradient>
<linearGradient id="paint15_linear_37_14015" x1="114.03" y1="159.99" x2="130.016" y2="165.532" gradientUnits="userSpaceOnUse">
<stop offset="0.0354" stop-color="#556FB3"/>
<stop offset="0.5808" stop-color="#D1D2D8"/>
<stop offset="1" stop-color="#EBECF2"/>
</linearGradient>
<linearGradient id="paint16_linear_37_14015" x1="68.2296" y1="95.9988" x2="59.6107" y2="109.922" gradientUnits="userSpaceOnUse">
<stop offset="0.0354" stop-color="#556FB3"/>
<stop offset="0.5808" stop-color="#D1D2D8"/>
<stop offset="1" stop-color="#EBECF2"/>
</linearGradient>
<linearGradient id="paint17_linear_37_14015" x1="38.2653" y1="89.7508" x2="14.4226" y2="144.772" gradientUnits="userSpaceOnUse">
<stop offset="0.0354" stop-color="#2442D6"/>
<stop offset="0.2574" stop-color="#2F51DB"/>
<stop offset="0.6855" stop-color="#4D7AE9"/>
<stop offset="1" stop-color="#659BF4"/>
</linearGradient>
<linearGradient id="paint18_linear_37_14015" x1="52.1656" y1="201.168" x2="221.247" y2="163.265" gradientUnits="userSpaceOnUse">
<stop offset="0.0354" stop-color="#2442D6"/>
<stop offset="0.2574" stop-color="#2F51DB"/>
<stop offset="0.6855" stop-color="#4D7AE9"/>
<stop offset="1" stop-color="#659BF4"/>
</linearGradient>
<linearGradient id="paint19_linear_37_14015" x1="139.184" y1="162.104" x2="134.674" y2="170.699" gradientUnits="userSpaceOnUse">
<stop offset="0.0354" stop-color="#2442D6"/>
<stop offset="0.2574" stop-color="#2F51DB"/>
<stop offset="0.6855" stop-color="#4D7AE9"/>
<stop offset="1" stop-color="#659BF4"/>
</linearGradient>
<linearGradient id="paint20_linear_37_14015" x1="115.191" y1="177.568" x2="156.155" y2="177.568" gradientUnits="userSpaceOnUse">
<stop stop-color="#10174D"/>
<stop offset="1" stop-color="#10208A"/>
</linearGradient>
<linearGradient id="paint21_linear_37_14015" x1="115.191" y1="180.528" x2="136.822" y2="180.528" gradientUnits="userSpaceOnUse">
<stop stop-color="#10174D"/>
<stop offset="1" stop-color="#10208A"/>
</linearGradient>
<linearGradient id="paint22_linear_37_14015" x1="115.191" y1="181.822" x2="156.155" y2="181.822" gradientUnits="userSpaceOnUse">
<stop stop-color="#10174D"/>
<stop offset="1" stop-color="#10208A"/>
</linearGradient>
<linearGradient id="paint23_linear_37_14015" x1="52.1656" y1="175.697" x2="221.247" y2="137.795" gradientUnits="userSpaceOnUse">
<stop offset="0.0354" stop-color="#2442D6"/>
<stop offset="0.2574" stop-color="#2F51DB"/>
<stop offset="0.6855" stop-color="#4D7AE9"/>
<stop offset="1" stop-color="#659BF4"/>
</linearGradient>
<linearGradient id="paint24_linear_37_14015" x1="139.183" y1="136.634" x2="134.674" y2="145.229" gradientUnits="userSpaceOnUse">
<stop offset="0.0354" stop-color="#2442D6"/>
<stop offset="0.2574" stop-color="#2F51DB"/>
<stop offset="0.6855" stop-color="#4D7AE9"/>
<stop offset="1" stop-color="#659BF4"/>
</linearGradient>
<linearGradient id="paint25_linear_37_14015" x1="115.191" y1="155.058" x2="136.822" y2="155.058" gradientUnits="userSpaceOnUse">
<stop stop-color="#10174D"/>
<stop offset="1" stop-color="#10208A"/>
</linearGradient>
<linearGradient id="paint26_linear_37_14015" x1="126.248" y1="155.278" x2="156.155" y2="155.278" gradientUnits="userSpaceOnUse">
<stop stop-color="#10174D"/>
<stop offset="1" stop-color="#10208A"/>
</linearGradient>
<linearGradient id="paint27_linear_37_14015" x1="126.248" y1="159.533" x2="156.155" y2="159.533" gradientUnits="userSpaceOnUse">
<stop stop-color="#10174D"/>
<stop offset="1" stop-color="#10208A"/>
</linearGradient>
<linearGradient id="paint28_linear_37_14015" x1="130.977" y1="162.322" x2="106.642" y2="121.381" gradientUnits="userSpaceOnUse">
<stop stop-color="#10174D"/>
<stop offset="1" stop-color="#10208A"/>
</linearGradient>
<clipPath id="clip0_37_14015">
<rect width="174" height="244.349" fill="white"/>
</clipPath>
</defs>
</svg>
