<svg width="247" height="227" viewBox="0 0 247 227" fill="none" xmlns="http://www.w3.org/2000/svg">
<g opacity="0.41">
<path d="M184.207 24.0089C187.379 25.592 190.301 24.6571 193.422 20.9299C194.009 24.2956 195.919 26.3898 199.253 27.3497C194.895 27.3996 192.111 29.5312 191.674 33.0216C191.25 36.4247 193.247 39.4913 196.444 40.3514C199.59 41.1991 202.937 39.6284 204.26 36.674C205.796 33.246 204.497 30.1295 200.19 27.3996C203.136 27.3123 205.197 26.0034 206.632 23.8718C207.144 25.0186 207.481 26.1156 208.106 27.0256C208.743 27.9605 209.654 28.696 210.466 29.5561C206.957 30.7902 205.084 33.1213 205.059 36.1629C205.034 38.9677 206.832 41.5606 209.479 42.5454C211.177 43.1811 212.963 43.2933 214.499 42.3584C215.935 41.4858 217.133 40.2018 218.357 39.1796C219.331 43.2185 221.279 45.213 224.712 45.5122C227.434 45.749 230.206 44.0412 231.305 41.4359C232.029 39.7156 232.204 37.8707 231.267 36.2751C230.418 34.8166 229.132 33.595 228.133 32.3858C230.83 32.2238 233.003 30.7404 234.389 28.0228C235.887 32.311 237.81 34.1061 241.007 34.2806C243.404 34.4053 245.751 33.246 247.012 31.2639V23.7845C246.226 22.7 245.065 21.7401 243.604 20.8925C244.915 20.7678 246.051 20.4562 247.012 19.9575V7.71625C246.925 7.65393 246.838 7.5916 246.75 7.52927C246.838 7.50434 246.925 7.46694 247.012 7.44201V0H212.688C213.013 0.536024 213.337 1.07205 213.662 1.60807C212.488 2.41834 211.277 3.26601 210.129 4.06381C209.23 2.91697 208.281 1.72026 207.419 0.623284C207.719 0.411367 208.018 0.211917 208.318 0H200.177C198.966 0.997254 197.568 2.13163 196.169 3.27847C195.894 1.99451 195.32 0.897529 194.496 0H184.432C183.945 0.560955 183.533 1.20917 183.208 1.99451C182.147 4.59983 182.634 7.01818 184.507 9.05008C186.43 11.1443 188.94 11.9047 191.587 10.8202C193.135 10.1969 194.421 8.88803 195.495 8.12762C196.631 9.79802 197.892 11.6554 199.128 13.4754C196.943 13.8369 195.195 15.3452 193.872 17.7137C193.035 13.7247 190.613 11.5432 187.291 11.4934C184.257 11.4435 181.548 13.4629 180.774 16.3425C179.962 19.4091 181.398 22.6003 184.207 24.0089ZM238.859 2.40588C239.958 3.85189 241.181 5.43504 242.218 6.79379C240.757 7.72872 239.109 8.77584 237.635 9.72323C236.774 8.37694 235.75 6.79379 234.826 5.34778C236.137 4.40038 237.61 3.31587 238.859 2.40588ZM236.874 15.7815C237.56 17.8508 238.971 19.596 241.706 20.5933C238.522 20.9174 236.387 22.164 235.251 24.4701C234.239 22.7 233.203 20.9049 232.254 19.2345C233.627 18.1999 235.238 17.0032 236.874 15.7815ZM225.349 0.436299C226.198 1.62054 227.085 2.86711 227.921 4.03888C226.66 4.82422 225.299 5.67188 224.026 6.46969C223.301 5.4101 222.502 4.27573 221.728 3.14135C222.914 2.25629 224.163 1.32136 225.349 0.436299ZM222.69 14.5973C223.638 15.7566 224.675 17.0281 225.561 18.1002C224.175 19.1473 222.715 20.2567 221.403 21.2664C220.654 20.0199 219.793 18.5739 218.956 17.1652C220.13 16.355 221.441 15.4574 222.69 14.5973ZM220.717 26.9757C221.316 28.9702 222.602 30.8152 224.862 31.9371C222.09 32.4482 220.042 33.7446 218.881 36.3499C218.444 35.1033 218.207 33.9066 217.633 32.8969C217.058 31.8997 216.147 31.1143 215.61 30.491C217.246 29.3567 218.969 28.1849 220.717 26.9757ZM208.555 12.0169C209.454 13.251 210.441 14.6222 211.377 15.9187C210.166 16.9409 208.817 18.0877 207.706 19.0226C206.607 17.4021 205.471 15.7192 204.41 14.1361C205.621 13.5253 207.094 12.7649 208.555 12.0169Z" fill="#666666"/>
<path d="M238.772 34.6172C242.343 34.6297 245.252 37.5342 245.239 41.1118C245.227 44.677 242.318 47.5815 238.734 47.569C235.163 47.5566 232.254 44.6521 232.266 41.0744C232.279 37.5217 235.188 34.6172 238.772 34.6172Z" fill="#666666"/>
<path d="M184.632 25.3427C188.128 25.3801 191.025 28.322 190.962 31.7874C190.9 35.2903 187.928 38.1574 184.47 38.0701C181.011 37.9829 178.227 35.1282 178.227 31.7127C178.214 28.2223 181.148 25.3178 184.632 25.3427Z" fill="#666666"/>
<path d="M169.936 0C169.686 0.673147 169.536 1.39616 169.524 2.15656C169.474 5.63449 172.221 8.45173 175.704 8.52652C179.25 8.60132 182.122 5.77161 182.122 2.23136C182.122 1.44602 181.972 0.698078 181.71 0H169.936Z" fill="#666666"/>
<path d="M209.192 56.1329C205.696 56.108 202.937 53.3157 202.937 49.8378C202.937 46.2975 205.821 43.4678 209.367 43.5426C212.863 43.6174 215.597 46.4346 215.547 49.925C215.485 53.4154 212.676 56.1579 209.192 56.1329Z" fill="#666666"/>
<path d="M229.107 52.3309C229.008 55.8213 226.173 58.4516 222.64 58.3394C219.156 58.2396 216.509 55.4099 216.621 51.8821C216.721 48.4042 219.556 45.7615 223.089 45.8737C226.573 45.9734 229.207 48.8031 229.107 52.3309Z" fill="#666666"/>
<path d="M173.482 9.32427C177.003 9.29934 179.762 12.0169 179.75 15.5197C179.75 18.9478 177.053 21.6778 173.632 21.7027C170.111 21.7276 167.351 19.0101 167.364 15.5072C167.364 12.0792 170.048 9.3492 173.482 9.32427Z" fill="#666666"/>
<path d="M196.007 41.386C199.503 41.411 202.2 44.2033 202.137 47.7186C202.087 51.1217 199.328 53.7894 195.869 53.7645C192.373 53.7395 189.676 50.9472 189.739 47.4319C189.789 44.0163 192.548 41.3611 196.007 41.386Z" fill="#666666"/>
<path d="M247 46.3599V40.3639C246.501 41.249 246.213 42.2587 246.213 43.3432C246.213 44.4402 246.501 45.4624 247 46.3599Z" fill="#666666"/>
<path d="M230.356 54.7493C230.319 51.4459 233.053 48.6411 236.387 48.5788C239.758 48.5164 242.63 51.3461 242.617 54.7243C242.605 58.0402 239.821 60.8076 236.512 60.8201C233.178 60.8201 230.394 58.0776 230.356 54.7493Z" fill="#666666"/>
<path d="M170.91 35.1159C167.613 35.0785 164.941 32.3983 164.954 29.1074C164.966 25.7541 167.763 23.0242 171.097 23.1114C174.406 23.1987 177.04 25.9287 176.978 29.2071C176.916 32.5105 174.194 35.1533 170.91 35.1159Z" fill="#666666"/>
<path d="M176.316 44.7393C176.479 41.4235 179.25 38.8555 182.522 38.9802C185.905 39.1173 188.528 41.9719 188.315 45.3003C188.103 48.6286 185.306 51.1467 182.035 50.9722C178.701 50.7852 176.154 48.0053 176.316 44.7393Z" fill="#666666"/>
<path d="M156.351 0C156.538 3.05409 158.973 5.4475 162.057 5.50983C165.291 5.57216 167.876 3.16628 168.05 0H156.351Z" fill="#666666"/>
<path d="M207.007 69.2843C203.736 69.2967 201.126 66.7288 201.114 63.4753C201.101 60.2093 203.673 57.6039 206.932 57.5915C210.203 57.579 212.813 60.1469 212.826 63.4005C212.838 66.6665 210.266 69.2718 207.007 69.2843Z" fill="#666666"/>
<path d="M247 61.9046V52.0193C245.377 53.029 244.291 54.7991 244.266 56.856C244.228 58.9876 245.327 60.8575 247 61.9046Z" fill="#666666"/>
<path d="M214.748 65.6567C214.773 62.4156 217.42 59.8352 220.679 59.8726C223.926 59.91 226.498 62.5776 226.435 65.8437C226.373 69.0099 223.776 71.5529 220.579 71.5405C217.321 71.5405 214.723 68.9102 214.748 65.6567Z" fill="#666666"/>
<path d="M193.272 55.0359C196.494 54.9985 199.166 57.6537 199.166 60.8574C199.153 64.0112 196.569 66.6165 193.41 66.6539C190.188 66.6913 187.516 64.0361 187.516 60.8325C187.529 57.6911 190.126 55.0733 193.272 55.0359Z" fill="#666666"/>
<path d="M159.959 7.42949C163.181 7.44195 165.815 10.147 165.753 13.3507C165.691 16.5045 163.056 19.0724 159.91 19.06C156.688 19.0475 154.054 16.3424 154.116 13.1388C154.166 9.98495 156.8 7.41702 159.959 7.42949Z" fill="#666666"/>
<path d="M228.158 68.3493C228.121 65.2204 230.768 62.5652 233.915 62.5777C236.999 62.6026 239.571 65.1581 239.608 68.2371C239.646 71.366 236.999 74.0212 233.852 74.0087C230.768 73.9962 228.196 71.4408 228.158 68.3493Z" fill="#666666"/>
<path d="M168.675 36.9732C171.796 36.9607 174.456 39.6159 174.443 42.7448C174.431 45.8737 171.746 48.5039 168.625 48.4665C165.541 48.4167 162.981 45.8488 162.944 42.7822C162.894 39.6533 165.541 36.9857 168.675 36.9732Z" fill="#666666"/>
<path d="M157.637 21.2415C160.808 21.229 163.281 23.7097 163.281 26.876C163.268 30.0423 160.771 32.498 157.599 32.4606C154.503 32.4357 152.068 30.0049 152.043 26.9134C152.006 23.7346 154.478 21.2415 157.637 21.2415Z" fill="#666666"/>
<path d="M174.094 58.5887C174.094 55.4225 176.578 52.9543 179.75 52.9667C182.921 52.9792 185.369 55.4848 185.331 58.6511C185.294 61.7426 182.859 64.1609 179.762 64.1858C176.591 64.2232 174.106 61.755 174.094 58.5887Z" fill="#666666"/>
<path d="M247 76.0406V65.0833C244.228 65.3326 242.03 67.6512 241.993 70.4809C241.956 73.3979 244.166 75.7913 247 76.0406Z" fill="#666666"/>
<path d="M144.127 0C145.064 1.65794 146.849 2.82971 148.859 2.84217C150.895 2.86711 152.73 1.69533 153.679 0H144.127Z" fill="#666666"/>
<path d="M149.633 40.4636C149.621 37.4968 152.181 34.9787 155.14 35.0286C158.061 35.0784 160.496 37.5342 160.509 40.4387C160.521 43.4055 157.962 45.9236 155.002 45.8737C152.081 45.8238 149.646 43.3556 149.633 40.4636Z" fill="#666666"/>
<path d="M166.452 50.8974C169.424 50.9223 171.934 53.4903 171.859 56.4322C171.784 59.3491 169.299 61.7675 166.39 61.7425C163.418 61.7176 160.908 59.1497 160.983 56.2078C161.071 53.2784 163.543 50.8725 166.452 50.8974Z" fill="#666666"/>
<path d="M212.563 79.0823C212.738 76.0656 215.385 73.6722 218.294 73.8965C221.254 74.1209 223.576 76.6764 223.414 79.531C223.239 82.5477 220.592 84.9411 217.683 84.7168C214.723 84.5048 212.401 81.9494 212.563 79.0823Z" fill="#666666"/>
<path d="M204.747 82.4854C201.788 82.5228 199.241 80.0047 199.241 77.0504C199.228 74.096 201.763 71.5655 204.722 71.5904C207.631 71.6153 210.091 74.0337 210.153 76.9382C210.216 79.8925 207.719 82.448 204.747 82.4854Z" fill="#666666"/>
<path d="M140.906 11.0196C140.881 8.10266 143.303 5.64692 146.237 5.58459C149.209 5.53473 151.756 8.05279 151.719 11.0321C151.681 13.9615 149.234 16.3923 146.312 16.3799C143.378 16.3674 140.931 13.9366 140.906 11.0196Z" fill="#666666"/>
<path d="M185.668 74.3827C185.718 71.4533 188.178 69.035 191.1 69.0599C194.096 69.0848 196.581 71.6527 196.481 74.6071C196.369 77.549 193.872 79.93 190.975 79.8552C188.016 79.7679 185.618 77.2997 185.668 74.3827Z" fill="#666666"/>
<path d="M231.68 76.29C234.664 76.3274 236.961 78.6834 236.911 81.6752C236.861 84.6545 234.476 86.9357 231.467 86.8609C228.546 86.7861 226.311 84.4799 226.311 81.5505C226.336 78.5712 228.683 76.2526 231.68 76.29Z" fill="#666666"/>
<path d="M143.99 19.0351C146.936 19.0226 149.246 21.2914 149.259 24.2083C149.271 27.1502 146.999 29.4564 144.077 29.4689C141.13 29.4813 138.82 27.2126 138.808 24.2956C138.795 21.3662 141.068 19.06 143.99 19.0351Z" fill="#666666"/>
<path d="M177.54 66.9781C180.449 67.0155 182.722 69.3715 182.672 72.3134C182.622 75.2179 180.237 77.4618 177.29 77.387C174.443 77.3122 172.221 75.006 172.246 72.1389C172.258 69.2219 174.593 66.9407 177.54 66.9781Z" fill="#666666"/>
<path d="M157.937 53.8019C157.887 56.5942 155.464 58.9378 152.68 58.863C149.871 58.7882 147.548 56.3449 147.648 53.5775C147.748 50.8351 150.095 48.5788 152.817 48.5912C155.614 48.6162 157.987 51.022 157.937 53.8019Z" fill="#666666"/>
<path d="M245.202 89.3166C245.826 89.3166 246.438 89.2044 247 88.9925V79.3441C246.463 79.1446 245.876 79.02 245.277 79.02C242.48 78.995 240.108 81.3261 240.083 84.1309C240.058 86.9232 242.393 89.2917 245.202 89.3166Z" fill="#666666"/>
<path d="M168.874 70.1443C168.725 72.9242 166.34 75.1057 163.605 74.9685C160.821 74.819 158.636 72.438 158.773 69.708C158.923 66.9282 161.308 64.7467 164.042 64.8838C166.839 65.0334 169.024 67.4143 168.874 70.1443Z" fill="#666666"/>
<path d="M136.386 37.8209C136.411 35.0659 138.721 32.7847 141.48 32.8097C144.239 32.8346 146.524 35.1407 146.499 37.8956C146.474 40.6506 144.165 42.9318 141.405 42.9068C138.646 42.8819 136.361 40.5758 136.386 37.8209Z" fill="#666666"/>
<path d="M183.558 88.0077C183.571 85.2403 185.731 83.1211 188.528 83.1336C191.312 83.1461 193.422 85.3026 193.41 88.0949C193.397 90.8748 191.237 92.9815 188.44 92.969C185.656 92.9441 183.533 90.8 183.558 88.0077Z" fill="#666666"/>
<path d="M215.66 87.9703C218.444 87.9454 220.617 90.0521 220.667 92.807C220.717 95.6492 218.532 97.8556 215.697 97.8431C212.925 97.8307 210.778 95.6866 210.778 92.9192C210.765 90.1518 212.9 87.9952 215.66 87.9703Z" fill="#666666"/>
<path d="M197.118 90.3139C197.118 87.4966 199.341 85.3027 202.175 85.3525C204.934 85.3899 207.069 87.5589 207.069 90.3263C207.069 93.1436 204.847 95.3375 202.013 95.2877C199.253 95.2503 197.118 93.0812 197.118 90.3139Z" fill="#666666"/>
<path d="M127.758 8.42685C127.745 5.647 129.868 3.49044 132.64 3.46551C135.424 3.45304 137.584 5.57221 137.609 8.33959C137.622 11.1194 135.499 13.276 132.727 13.3009C129.93 13.3259 127.783 11.2067 127.758 8.42685Z" fill="#666666"/>
<path d="M224.475 95.1131C224.513 92.3831 226.748 90.2515 229.495 90.3138C232.154 90.3886 234.252 92.5701 234.214 95.2502C234.177 97.9802 231.942 100.112 229.195 100.05C226.535 99.9747 224.438 97.7808 224.475 95.1131Z" fill="#666666"/>
<path d="M125.573 22.0269C125.548 19.3966 127.733 17.1777 130.38 17.1528C133.014 17.1279 135.237 19.3094 135.262 21.9521C135.287 24.5823 133.102 26.8012 130.455 26.8262C127.82 26.8511 125.598 24.6696 125.573 22.0269Z" fill="#666666"/>
<path d="M175.13 90.6255C172.495 90.6006 170.298 88.3817 170.323 85.7389C170.348 83.1087 172.57 80.9147 175.217 80.9397C177.864 80.9646 180.049 83.1835 180.025 85.8262C180 88.4689 177.765 90.6504 175.13 90.6255Z" fill="#666666"/>
<path d="M150.183 62.5279C152.805 62.5154 155.052 64.7717 155.015 67.3895C154.977 69.9574 152.792 72.114 150.233 72.1265C147.611 72.1389 145.363 69.8826 145.401 67.2648C145.438 64.7094 147.611 62.5403 150.183 62.5279Z" fill="#666666"/>
<path d="M139.17 46.6591C141.792 46.6591 144.027 48.9403 143.977 51.5456C143.915 54.1135 141.73 56.2576 139.17 56.2576C136.548 56.2576 134.313 53.9764 134.363 51.3711C134.425 48.8032 136.61 46.6591 139.17 46.6591Z" fill="#666666"/>
<path d="M243.017 102.505C244.69 102.48 246.163 101.57 247 100.224V95.3001C246.151 93.9289 244.628 92.994 242.93 93.0189C240.345 93.0439 238.197 95.2378 238.222 97.8057C238.247 100.386 240.445 102.543 243.017 102.505Z" fill="#666666"/>
<path d="M128.182 40.2142C125.573 40.2267 123.55 38.2571 123.512 35.6767C123.475 33.0091 125.51 30.9522 128.182 30.9772C130.779 31.0021 132.765 32.9966 132.765 35.6019C132.777 38.1948 130.779 40.1893 128.182 40.2142Z" fill="#666666"/>
<path d="M161.595 87.8207C158.986 87.8331 156.963 85.8636 156.925 83.2832C156.888 80.6155 158.923 78.5587 161.595 78.5836C164.192 78.6085 166.178 80.603 166.178 83.2084C166.178 85.8012 164.192 87.7957 161.595 87.8207Z" fill="#666666"/>
<path d="M186.28 97.1325C188.765 97.1699 190.775 99.2641 190.738 101.732C190.7 104.213 188.603 106.22 186.13 106.183C183.646 106.145 181.635 104.051 181.673 101.583C181.71 99.1021 183.795 97.0826 186.28 97.1325Z" fill="#666666"/>
<path d="M195.283 103.914C195.283 101.421 197.293 99.4013 199.79 99.3764C202.35 99.3639 204.41 101.433 204.372 104.001C204.335 106.494 202.287 108.476 199.778 108.451C197.28 108.439 195.283 106.407 195.283 103.914Z" fill="#666666"/>
<path d="M114.847 6.19544C114.81 3.71477 116.832 1.633 119.305 1.5956C121.789 1.55821 123.875 3.57765 123.912 6.04585C123.95 8.52652 121.927 10.6083 119.455 10.6457C116.982 10.6831 114.897 8.67611 114.847 6.19544Z" fill="#666666"/>
<path d="M208.905 106.494C208.917 104.001 210.928 101.982 213.425 101.969C215.984 101.957 218.045 104.039 217.995 106.607C217.945 109.1 215.897 111.082 213.387 111.044C210.903 111.019 208.892 109 208.905 106.494Z" fill="#666666"/>
<path d="M121.078 49.1272C121.128 46.7338 123.188 44.7144 125.573 44.7269C128.032 44.7393 130.118 46.9084 130.018 49.3392C129.918 51.745 127.808 53.7271 125.435 53.6648C123.038 53.59 121.028 51.5082 121.078 49.1272Z" fill="#666666"/>
<path d="M143.453 80.9895C143.415 78.6085 145.426 76.5268 147.823 76.4644C150.258 76.3897 152.405 78.5088 152.393 80.9521C152.38 83.3455 150.333 85.3899 147.935 85.4023C145.563 85.4023 143.503 83.3829 143.453 80.9895Z" fill="#666666"/>
<path d="M226.673 104.288C229.12 104.238 231.255 106.32 231.255 108.776C231.255 111.169 229.245 113.213 226.835 113.263C224.388 113.313 222.253 111.231 222.253 108.776C222.253 106.382 224.263 104.338 226.673 104.288Z" fill="#666666"/>
<path d="M132.39 65.0709C132.378 62.6027 134.463 60.5334 136.935 60.5458C139.407 60.5583 141.467 62.6525 141.43 65.1207C141.393 67.5266 139.382 69.5336 136.972 69.571C134.488 69.6084 132.39 67.5515 132.39 65.0709Z" fill="#666666"/>
<path d="M172.545 103.502C170.148 103.478 168.113 101.408 168.138 99.0273C168.163 96.6339 170.235 94.602 172.62 94.6269C175.018 94.6519 177.053 96.7212 177.028 99.1021C177.003 101.496 174.93 103.527 172.545 103.502Z" fill="#666666"/>
<path d="M112.35 19.7456C112.337 17.3522 114.373 15.3078 116.77 15.2829C119.167 15.2704 121.215 17.3023 121.24 19.6957C121.252 22.0892 119.217 24.1335 116.82 24.1585C114.423 24.1709 112.362 22.139 112.35 19.7456Z" fill="#666666"/>
<path d="M236.062 111.082C236.037 108.663 237.885 106.769 240.295 106.731C242.78 106.694 244.715 108.601 244.69 111.082C244.678 113.488 242.792 115.345 240.382 115.357C237.96 115.357 236.075 113.5 236.062 111.082Z" fill="#666666"/>
<path d="M110.265 33.059C110.24 30.6282 112.088 28.7583 114.51 28.7583C116.932 28.7583 118.793 30.6157 118.78 33.034C118.768 35.39 116.957 37.2225 114.61 37.2599C112.175 37.2973 110.277 35.4648 110.265 33.059Z" fill="#666666"/>
<path d="M154.715 96.7212C154.753 94.3278 156.688 92.4954 159.11 92.5577C161.433 92.62 163.231 94.5148 163.193 96.8584C163.156 99.2518 161.22 101.084 158.798 101.022C156.476 100.96 154.69 99.0772 154.715 96.7212Z" fill="#666666"/>
<path d="M119.092 62.5404C119.042 60.2591 120.953 58.302 123.25 58.2771C125.535 58.2522 127.483 60.1843 127.483 62.4656C127.483 64.6845 125.635 66.5792 123.413 66.6416C121.115 66.7288 119.13 64.834 119.092 62.5404Z" fill="#666666"/>
<path d="M130.118 78.6709C130.118 76.3897 132.053 74.4575 134.338 74.4824C136.635 74.5073 138.546 76.4645 138.496 78.7457C138.458 80.977 136.585 82.8344 134.35 82.8594C132.066 82.8718 130.118 80.9521 130.118 78.6709Z" fill="#666666"/>
<path d="M193.06 117.477C193.098 115.258 195.02 113.35 197.243 113.363C199.528 113.375 201.488 115.395 201.401 117.664C201.313 119.895 199.341 121.752 197.143 121.69C194.908 121.628 193.035 119.683 193.06 117.477Z" fill="#666666"/>
<path d="M179.825 115.332C179.775 113.114 181.648 111.181 183.895 111.156C186.118 111.132 188.041 113.026 188.041 115.258C188.041 117.427 186.243 119.272 184.058 119.359C181.835 119.434 179.887 117.576 179.825 115.332Z" fill="#666666"/>
<path d="M210.728 123.921C208.493 123.834 206.632 121.864 206.707 119.658C206.795 117.427 208.768 115.569 210.978 115.644C213.213 115.731 215.073 117.701 214.998 119.907C214.911 122.151 212.938 124.009 210.728 123.921Z" fill="#666666"/>
<path d="M145.638 98.6285C143.403 98.616 141.505 96.6838 141.555 94.465C141.592 92.2336 143.553 90.3637 145.763 90.4261C147.948 90.4884 149.758 92.3333 149.771 94.5023C149.783 96.7337 147.873 98.641 145.638 98.6285Z" fill="#666666"/>
<path d="M107.817 46.6217C107.805 44.3903 109.715 42.4831 111.95 42.4955C114.185 42.508 116.083 44.4402 116.033 46.6591C115.996 48.8406 114.173 50.6606 111.988 50.698C109.765 50.7478 107.83 48.853 107.817 46.6217Z" fill="#666666"/>
<path d="M107.83 0H103.685C102.486 0.723009 101.637 2.03191 101.624 3.47792C101.587 5.68435 103.485 7.62899 105.72 7.66639C107.93 7.70379 109.878 5.80901 109.915 3.57765C109.928 2.09423 109.066 0.747941 107.83 0Z" fill="#666666"/>
<path d="M220.417 122.438C220.38 120.182 222.24 118.312 224.5 118.324C226.698 118.337 228.508 120.119 228.533 122.326C228.57 124.582 226.71 126.452 224.45 126.439C222.253 126.414 220.455 124.632 220.417 122.438Z" fill="#666666"/>
<path d="M103.123 21.092C100.85 21.067 99.1521 19.3218 99.1896 17.0406C99.227 14.7843 101 13.1015 103.285 13.1638C105.483 13.2261 107.131 14.9339 107.131 17.1279C107.143 19.4091 105.395 21.1169 103.123 21.092Z" fill="#666666"/>
<path d="M170.31 116.629C168.038 116.629 166.315 114.896 166.34 112.627C166.365 110.359 168.113 108.663 170.398 108.701C172.595 108.738 174.269 110.421 174.294 112.627C174.306 114.896 172.583 116.629 170.31 116.629Z" fill="#666666"/>
<path d="M234.189 124.569C234.227 122.388 235.95 120.718 238.147 120.73C240.395 120.743 242.105 122.538 242.03 124.806C241.956 126.975 240.195 128.608 237.997 128.558C235.812 128.509 234.152 126.763 234.189 124.569Z" fill="#666666"/>
<path d="M128.17 91.8969C128.195 89.7778 130.043 88.0076 132.153 88.07C134.213 88.1448 135.924 89.9149 135.899 91.9717C135.874 94.0909 134.026 95.861 131.916 95.7987C129.855 95.7239 128.145 93.9538 128.17 91.8969Z" fill="#666666"/>
<path d="M152.805 110.433C152.78 108.302 154.553 106.507 156.688 106.507C158.823 106.507 160.596 108.289 160.571 110.421C160.546 112.49 158.836 114.223 156.763 114.26C154.628 114.323 152.83 112.577 152.805 110.433Z" fill="#666666"/>
<path d="M97.0045 30.7279C97.0045 28.5963 98.79 26.8262 100.938 26.8511C103.073 26.876 104.833 28.6835 104.783 30.8152C104.733 32.8845 103.01 34.5923 100.938 34.6172C98.8025 34.6297 97.0045 32.872 97.0045 30.7279Z" fill="#666666"/>
<path d="M124.574 76.2027C124.499 78.3343 122.651 80.0421 120.516 79.9548C118.381 79.8551 116.683 77.9977 116.807 75.8661C116.92 73.7968 118.705 72.1513 120.778 72.2012C122.913 72.2386 124.649 74.071 124.574 76.2027Z" fill="#666666"/>
<path d="M109.69 56.3449C111.813 56.3698 113.586 58.2147 113.511 60.3214C113.436 62.3783 111.651 64.0861 109.603 64.0611C107.48 64.0362 105.707 62.1913 105.782 60.0846C105.857 58.0277 107.643 56.3199 109.69 56.3449Z" fill="#666666"/>
<path d="M143.141 111.468C141.043 111.506 139.42 109.922 139.395 107.841C139.382 105.746 140.981 104.138 143.066 104.138C145.089 104.138 146.674 105.672 146.724 107.679C146.787 109.785 145.226 111.431 143.141 111.468Z" fill="#666666"/>
<path d="M208.455 137.048C206.383 136.985 204.834 135.302 204.922 133.208C205.009 131.139 206.695 129.618 208.805 129.73C210.815 129.83 212.301 131.451 212.264 133.482C212.214 135.564 210.553 137.122 208.455 137.048Z" fill="#666666"/>
<path d="M88.7012 0C88.5638 0.411367 88.4764 0.847666 88.4764 1.3089C88.5014 3.39066 90.1371 4.96134 92.2348 4.92394C94.2575 4.88655 95.7933 3.31587 95.8183 1.29643C95.8183 0.8352 95.7309 0.398902 95.5935 0H88.7012Z" fill="#666666"/>
<path d="M191.3 131.102C191.312 129.02 192.923 127.424 195.02 127.449C197.106 127.474 198.679 129.12 198.629 131.201C198.579 133.221 197.018 134.754 194.983 134.766C192.898 134.804 191.287 133.196 191.3 131.102Z" fill="#666666"/>
<path d="M94.9568 44.3903C94.9319 42.296 96.5176 40.6755 98.6153 40.6755C100.713 40.663 102.311 42.2711 102.299 44.3653C102.286 46.3848 100.75 47.9554 98.7276 48.0053C96.63 48.0427 94.9818 46.472 94.9568 44.3903Z" fill="#666666"/>
<path d="M86.2914 14.9339C86.254 12.9269 87.8147 11.3188 89.8 11.2814C91.8103 11.244 93.421 12.8022 93.4584 14.7843C93.4959 16.7912 91.9351 18.3993 89.9499 18.4367C87.9271 18.4741 86.3164 16.9284 86.2914 14.9339Z" fill="#666666"/>
<path d="M177.702 128.546C177.69 126.452 179.3 124.869 181.398 124.906C183.421 124.931 184.957 126.489 184.969 128.521C184.982 130.615 183.371 132.198 181.273 132.161C179.25 132.124 177.715 130.578 177.702 128.546Z" fill="#666666"/>
<path d="M218.607 136.001C218.594 133.981 220.142 132.41 222.153 132.386C224.25 132.361 225.849 133.956 225.811 136.05C225.786 138.057 224.2 139.591 222.178 139.578C220.167 139.566 218.607 138.008 218.607 136.001Z" fill="#666666"/>
<path d="M103.797 73.747C103.822 71.7524 105.433 70.1942 107.43 70.2192C109.428 70.2441 110.989 71.8522 110.964 73.8467C110.939 75.8412 109.328 77.3994 107.33 77.3745C105.333 77.3495 103.772 75.7539 103.797 73.747Z" fill="#666666"/>
<path d="M167.801 122.687C169.798 122.725 171.347 124.345 171.309 126.34C171.272 128.334 169.649 129.88 167.651 129.842C165.653 129.805 164.105 128.185 164.142 126.19C164.167 124.196 165.79 122.65 167.801 122.687Z" fill="#666666"/>
<path d="M118.468 93.2308C116.483 93.2682 114.847 91.6726 114.847 89.6905C114.835 87.7209 116.458 86.1004 118.431 86.1129C120.341 86.1253 121.927 87.6586 121.977 89.5659C122.027 91.5479 120.453 93.1934 118.468 93.2308Z" fill="#666666"/>
<path d="M87.2404 31.987C85.355 31.962 83.7318 30.3166 83.7568 28.4343C83.7817 26.5519 85.4299 24.9314 87.3153 24.9563C89.2007 24.9813 90.8239 26.6267 90.7989 28.5091C90.7739 30.3789 89.1133 31.9994 87.2404 31.987Z" fill="#666666"/>
<path d="M235.45 134.704C237.398 134.667 239.071 136.312 239.059 138.257C239.046 140.152 237.473 141.747 235.575 141.785C233.627 141.822 231.954 140.177 231.967 138.232C231.979 136.337 233.552 134.742 235.45 134.704Z" fill="#666666"/>
<path d="M96.093 54.4252C97.9784 54.4626 99.5891 56.1205 99.5517 57.9904C99.5142 59.8727 97.8536 61.4808 95.9807 61.4434C94.0953 61.406 92.4845 59.748 92.522 57.8782C92.547 55.9959 94.2076 54.3878 96.093 54.4252Z" fill="#666666"/>
<path d="M129.78 102.032C131.666 102.044 133.302 103.677 133.289 105.559C133.277 107.442 131.641 109.075 129.755 109.062C127.87 109.05 126.234 107.417 126.247 105.534C126.247 103.652 127.895 102.019 129.78 102.032Z" fill="#666666"/>
<path d="M150.932 124.034C150.907 122.164 152.555 120.518 154.428 120.518C156.313 120.531 157.937 122.189 157.899 124.046C157.862 125.866 156.301 127.437 154.478 127.474C152.618 127.524 150.944 125.903 150.932 124.034Z" fill="#666666"/>
<path d="M104.846 84.1433C106.694 84.1682 108.092 85.6142 108.055 87.4591C108.03 89.3041 106.581 90.7002 104.733 90.6628C102.885 90.6379 101.487 89.1919 101.524 87.347C101.549 85.5145 102.998 84.1183 104.846 84.1433Z" fill="#666666"/>
<path d="M140.806 124.694C138.945 124.694 137.522 123.31 137.497 121.453C137.472 119.521 138.933 118.075 140.856 118.112C142.716 118.15 144.09 119.571 144.077 121.428C144.077 123.298 142.666 124.694 140.806 124.694Z" fill="#666666"/>
<path d="M247 143.118V137.895C246.226 138.531 245.726 139.491 245.751 140.588C245.776 141.622 246.263 142.52 247 143.118Z" fill="#666666"/>
<path d="M192.66 147.993C190.813 147.98 189.414 146.547 189.427 144.689C189.439 142.844 190.875 141.448 192.735 141.461C194.583 141.473 195.982 142.907 195.969 144.764C195.944 146.596 194.508 148.005 192.66 147.993Z" fill="#666666"/>
<path d="M84.9554 38.4566C86.8283 38.4317 88.2517 39.8154 88.3016 41.6603C88.3391 43.5925 86.9032 45.051 84.9679 45.0385C83.1074 45.026 81.709 43.6174 81.709 41.7476C81.709 39.8902 83.0949 38.4691 84.9554 38.4566Z" fill="#666666"/>
<path d="M75.441 0C75.8531 1.25903 76.9893 2.18149 78.3753 2.24382C79.8736 2.30615 81.1472 1.34629 81.5842 0H75.441Z" fill="#666666"/>
<path d="M97.0045 71.3411C96.942 73.1486 95.4062 74.5448 93.5833 74.4575C91.7728 74.3702 90.3993 72.8245 90.5117 71.0045C90.6241 69.2593 92.0849 67.9255 93.8455 67.9754C95.6684 68.0127 97.0794 69.5211 97.0045 71.3411Z" fill="#666666"/>
<path d="M216.384 149.214C216.409 147.481 217.882 146.035 219.618 146.035C221.416 146.035 222.914 147.594 222.839 149.376C222.765 151.109 221.254 152.518 219.531 152.468C217.795 152.43 216.359 150.934 216.384 149.214Z" fill="#666666"/>
<path d="M205.971 150.236C204.148 150.224 202.712 148.74 202.749 146.933C202.787 145.125 204.285 143.704 206.108 143.754C207.856 143.804 209.242 145.238 209.254 146.983C209.242 148.79 207.781 150.249 205.971 150.236Z" fill="#666666"/>
<path d="M175.817 142.159C175.804 140.339 177.265 138.88 179.088 138.893C180.911 138.905 182.347 140.376 182.322 142.196C182.297 143.941 180.886 145.35 179.138 145.375C177.315 145.412 175.829 143.966 175.817 142.159Z" fill="#666666"/>
<path d="M112.899 103.191C112.937 101.383 114.448 99.9622 116.258 100.025C118.069 100.087 119.467 101.608 119.392 103.428C119.317 105.173 117.869 106.532 116.108 106.507C114.285 106.494 112.849 105.011 112.899 103.191Z" fill="#666666"/>
<path d="M165.466 143.056C163.755 143.069 162.257 141.585 162.244 139.877C162.232 138.17 163.718 136.674 165.428 136.661C167.139 136.649 168.637 138.132 168.65 139.84C168.662 141.548 167.176 143.044 165.466 143.056Z" fill="#666666"/>
<path d="M73.0436 12.5654C73.0686 10.8576 74.5794 9.38664 76.2775 9.41157C77.9881 9.4365 79.4615 10.9448 79.4365 12.6402C79.4116 14.348 77.9007 15.8189 76.2026 15.794C74.492 15.7691 73.0187 14.2607 73.0436 12.5654Z" fill="#666666"/>
<path d="M233.315 155.011C231.605 155.061 230.069 153.565 230.069 151.844C230.069 150.199 231.492 148.741 233.153 148.691C234.864 148.641 236.399 150.137 236.399 151.857C236.399 153.502 234.976 154.961 233.315 155.011Z" fill="#666666"/>
<path d="M79.5739 55.3476C79.5739 53.6273 81.1096 52.1314 82.8202 52.1938C84.4809 52.2436 85.9043 53.7021 85.9043 55.3476C85.9043 57.0679 84.3685 58.5637 82.6579 58.5014C80.9973 58.4515 79.5739 56.9931 79.5739 55.3476Z" fill="#666666"/>
<path d="M130.33 119.259C130.255 120.979 128.657 122.413 126.959 122.288C125.285 122.164 123.924 120.655 123.999 119.01C124.074 117.29 125.673 115.856 127.371 115.981C129.044 116.118 130.417 117.626 130.33 119.259Z" fill="#666666"/>
<path d="M73.9302 22.7623C75.6034 22.7374 77.0393 24.1086 77.0892 25.7915C77.1392 27.5242 75.6783 29.0076 73.9427 28.9827C72.2696 28.9577 70.8711 27.5491 70.8586 25.8787C70.8586 24.2083 72.2571 22.7997 73.9302 22.7623Z" fill="#666666"/>
<path d="M148.784 137.197C148.822 135.465 150.208 134.168 151.943 134.23C153.679 134.293 154.952 135.689 154.865 137.422C154.79 139.092 153.467 140.326 151.793 140.301C150.045 140.301 148.734 138.942 148.784 137.197Z" fill="#666666"/>
<path d="M88.5265 84.7416C88.5639 83.0712 89.875 81.8247 91.5606 81.8496C93.2338 81.887 94.4824 83.1959 94.4574 84.8788C94.4199 86.5492 93.1089 87.7957 91.4233 87.7708C89.7501 87.7334 88.5015 86.4245 88.5265 84.7416Z" fill="#666666"/>
<path d="M246.813 157.068C246.875 157.068 246.938 157.055 247 157.055V151.171C246.975 151.171 246.938 151.159 246.913 151.159C245.227 151.134 243.928 152.393 243.903 154.063C243.878 155.746 245.14 157.043 246.813 157.068Z" fill="#666666"/>
<path d="M102.461 103.64C100.788 103.615 99.5267 102.306 99.5516 100.623C99.5766 98.9526 100.888 97.6936 102.573 97.7185C104.246 97.7434 105.508 99.0523 105.483 100.735C105.458 102.406 104.147 103.665 102.461 103.64Z" fill="#666666"/>
<path d="M138.533 137.933C136.873 137.945 135.574 136.636 135.587 134.978C135.599 133.333 136.935 132.036 138.583 132.074C140.169 132.111 141.43 133.37 141.455 134.953C141.48 136.611 140.194 137.933 138.533 137.933Z" fill="#666666"/>
<path d="M203.698 157.716C205.247 157.703 206.595 159.025 206.608 160.57C206.62 162.116 205.296 163.462 203.748 163.475C202.2 163.487 200.851 162.166 200.839 160.62C200.826 159.075 202.15 157.728 203.698 157.716Z" fill="#666666"/>
<path d="M110.639 116.579C110.627 115.008 111.913 113.687 113.486 113.65C115.122 113.612 116.495 114.983 116.458 116.616C116.433 118.187 115.097 119.471 113.536 119.471C111.963 119.446 110.652 118.15 110.639 116.579Z" fill="#666666"/>
<path d="M190.076 155.123C191.624 155.11 192.96 156.444 192.973 157.99C192.985 159.536 191.649 160.87 190.101 160.882C188.553 160.894 187.217 159.561 187.204 158.015C187.204 156.469 188.528 155.135 190.076 155.123Z" fill="#666666"/>
<path d="M68.4488 39.4664C68.4613 37.8209 69.7848 36.5245 71.433 36.5494C73.0812 36.5744 74.3547 37.9207 74.3173 39.5661C74.2673 41.1493 72.9938 42.3834 71.408 42.3958C69.7474 42.4208 68.4363 41.1119 68.4488 39.4664Z" fill="#666666"/>
<path d="M77.2265 68.8729C77.264 67.3022 78.6 66.0183 80.1732 66.0307C81.8089 66.0432 83.1449 67.4643 83.0575 69.0848C82.9701 70.6555 81.6091 71.9021 80.0359 71.8397C78.4626 71.7899 77.1891 70.4436 77.2265 68.8729Z" fill="#666666"/>
<path d="M214.499 162.864C214.499 161.318 215.885 159.972 217.42 160.009C218.906 160.059 220.192 161.368 220.192 162.852C220.192 164.397 218.806 165.744 217.271 165.706C215.785 165.656 214.499 164.347 214.499 162.864Z" fill="#666666"/>
<path d="M173.632 155.746C173.632 154.213 175.018 152.854 176.553 152.892C178.039 152.941 179.325 154.25 179.325 155.721C179.325 157.254 177.939 158.613 176.404 158.576C174.918 158.538 173.632 157.217 173.632 155.746Z" fill="#666666"/>
<path d="M66.3137 53.0414C66.3387 51.5331 67.6372 50.274 69.1481 50.2989C70.6589 50.3239 71.92 51.6203 71.895 53.1287C71.87 54.637 70.5715 55.896 69.0607 55.8711C67.5498 55.8462 66.2887 54.5373 66.3137 53.0414Z" fill="#666666"/>
<path d="M62.6677 7.21765C64.1785 7.24258 65.4396 8.53901 65.4147 10.0474C65.3897 11.5557 64.0911 12.8147 62.5803 12.7898C61.0695 12.7649 59.8084 11.4684 59.8334 9.9601C59.8583 8.45175 61.1569 7.19272 62.6677 7.21765Z" fill="#666666"/>
<path d="M163.218 156.257C161.707 156.282 160.409 155.023 160.384 153.515C160.359 152.007 161.62 150.71 163.131 150.685C164.642 150.66 165.94 151.919 165.965 153.428C165.99 154.924 164.729 156.232 163.218 156.257Z" fill="#666666"/>
<path d="M122.102 132.784C122.077 131.276 123.338 129.98 124.848 129.955C126.359 129.93 127.658 131.189 127.683 132.697C127.708 134.206 126.447 135.502 124.936 135.527C123.438 135.552 122.127 134.293 122.102 132.784Z" fill="#666666"/>
<path d="M86.229 98.3916C86.2415 96.8833 87.3777 95.7614 88.8885 95.7614C90.4618 95.7614 91.623 96.9581 91.5606 98.5287C91.5106 100.025 90.3369 101.109 88.8261 101.084C87.3278 101.047 86.2165 99.9 86.229 98.3916Z" fill="#666666"/>
<path d="M57.6858 23.5352C57.7232 22.0393 58.8844 20.9298 60.3952 20.9548C61.956 20.9797 63.1047 22.2013 63.0173 23.772C62.9424 25.2554 61.7437 26.3275 60.2329 26.2776C58.7346 26.2153 57.6483 25.0435 57.6858 23.5352Z" fill="#666666"/>
<path d="M149.683 148.217C151.182 148.279 152.268 149.464 152.218 150.972C152.168 152.53 150.919 153.64 149.334 153.54C147.848 153.44 146.799 152.231 146.886 150.71C146.974 149.227 148.172 148.155 149.683 148.217Z" fill="#666666"/>
<path d="M228.246 165.208C228.208 163.649 229.407 162.415 230.968 162.415C232.466 162.415 233.64 163.562 233.69 165.046C233.727 166.604 232.529 167.838 230.968 167.838C229.469 167.838 228.296 166.691 228.246 165.208Z" fill="#666666"/>
<path d="M97.6163 114.285C97.6163 112.777 98.7651 111.643 100.288 111.655C101.799 111.68 102.923 112.852 102.873 114.36C102.836 115.794 101.737 116.878 100.288 116.903C98.7775 116.928 97.6163 115.794 97.6163 114.285Z" fill="#666666"/>
<path d="M108.704 130.129C108.716 128.745 109.915 127.574 111.301 127.586C112.687 127.599 113.861 128.795 113.848 130.179C113.836 131.563 112.637 132.734 111.251 132.722C109.865 132.71 108.691 131.513 108.704 130.129Z" fill="#666666"/>
<path d="M66.4385 64.1109C67.8244 64.0611 69.0481 65.2204 69.0855 66.6041C69.1355 67.9878 67.9743 69.2094 66.5883 69.2468C65.2024 69.2966 63.9787 68.1373 63.9413 66.7536C63.8913 65.3824 65.0525 64.1608 66.4385 64.1109Z" fill="#666666"/>
<path d="M244.278 165.12C245.764 165.133 246.913 166.33 246.863 167.813C246.813 169.222 245.664 170.319 244.253 170.319C242.767 170.306 241.618 169.109 241.668 167.626C241.718 166.205 242.867 165.108 244.278 165.12Z" fill="#666666"/>
<path d="M55.1885 37.1726C55.2135 35.789 56.4121 34.6172 57.7981 34.6421C59.1841 34.667 60.3577 35.8637 60.3328 37.2474C60.3078 38.6311 59.1091 39.8029 57.7232 39.778C56.3372 39.753 55.1635 38.5563 55.1885 37.1726Z" fill="#666666"/>
<path d="M77.8383 85.1656C76.3275 85.1531 75.2037 83.9938 75.2287 82.473C75.2661 80.9771 76.4398 79.8552 77.9631 79.9175C79.399 79.9674 80.4728 81.0768 80.4853 82.5228C80.4978 84.0436 79.3616 85.178 77.8383 85.1656Z" fill="#666666"/>
<path d="M135.861 146.035C137.247 145.998 138.458 147.157 138.496 148.541C138.533 149.925 137.372 151.134 135.986 151.171C134.6 151.209 133.389 150.049 133.351 148.666C133.314 147.294 134.475 146.073 135.861 146.035Z" fill="#666666"/>
<path d="M187.791 174.083C186.467 174.058 185.331 172.886 185.356 171.565C185.381 170.244 186.555 169.109 187.878 169.134C189.202 169.159 190.338 170.331 190.313 171.652C190.288 172.974 189.102 174.108 187.791 174.083Z" fill="#666666"/>
<path d="M198.966 173.834C198.991 172.513 200.165 171.378 201.488 171.403C202.812 171.428 203.948 172.6 203.923 173.921C203.898 175.243 202.724 176.377 201.401 176.352C200.077 176.327 198.941 175.143 198.966 173.834Z" fill="#666666"/>
<path d="M75.4036 93.7544C76.7146 93.8167 77.701 94.8763 77.6636 96.1977C77.6386 97.5813 76.5148 98.616 75.1289 98.5412C73.7554 98.4664 72.7565 97.3196 72.8814 95.9359C72.9938 94.627 74.0801 93.6796 75.4036 93.7544Z" fill="#666666"/>
<path d="M212.351 176.501C212.326 175.18 213.312 174.121 214.624 174.058C216.009 173.996 217.121 175.031 217.146 176.414C217.171 177.798 216.097 178.87 214.711 178.857C213.387 178.833 212.376 177.823 212.351 176.501Z" fill="#666666"/>
<path d="M53.0909 50.4735C53.1034 49.0898 54.2022 48.0427 55.5882 48.0925C56.9117 48.1424 57.8981 49.177 57.8856 50.4984C57.8731 51.8821 56.7743 52.9292 55.3884 52.8793C54.0773 52.8295 53.0784 51.7948 53.0909 50.4735Z" fill="#666666"/>
<path d="M171.809 169.371C171.784 168.05 172.77 167.003 174.094 166.94C175.48 166.878 176.591 167.913 176.616 169.296C176.641 170.68 175.555 171.752 174.169 171.727C172.833 171.702 171.821 170.692 171.809 169.371Z" fill="#666666"/>
<path d="M84.2312 111.992C84.2437 110.608 85.3425 109.561 86.7284 109.623C88.0395 109.673 89.0383 110.72 89.0259 112.041C89.0134 113.425 87.9146 114.472 86.5286 114.41C85.2051 114.36 84.2187 113.313 84.2312 111.992Z" fill="#666666"/>
<path d="M226.073 178.745C226.061 177.412 227.097 176.402 228.433 176.439C229.694 176.477 230.656 177.449 230.668 178.72C230.681 180.054 229.644 181.064 228.308 181.027C227.047 180.989 226.086 180.017 226.073 178.745Z" fill="#666666"/>
<path d="M158.249 166.753C158.236 165.407 159.223 164.41 160.571 164.41C161.92 164.397 162.919 165.382 162.919 166.728C162.931 168.075 161.945 169.072 160.596 169.072C159.235 169.084 158.249 168.112 158.249 166.753Z" fill="#666666"/>
<path d="M95.3563 127.823C95.3938 126.502 96.4676 125.517 97.8036 125.592C99.0647 125.666 99.9887 126.676 99.9512 127.948C99.9137 129.269 98.8399 130.254 97.5039 130.179C96.2553 130.104 95.3189 129.094 95.3563 127.823Z" fill="#666666"/>
<path d="M64.1786 77.6612C65.5146 77.6238 66.551 78.6335 66.5385 79.9673C66.526 81.2388 65.577 82.2111 64.3035 82.2485C62.9675 82.2859 61.9311 81.2762 61.9436 79.9424C61.9561 78.6709 62.9175 77.6986 64.1786 77.6612Z" fill="#666666"/>
<path d="M48.9455 5.41014C50.294 5.38521 51.3053 6.34507 51.3303 7.69136C51.3553 9.03765 50.3939 10.0474 49.0454 10.0723C47.6969 10.0972 46.6855 9.13738 46.6605 7.79109C46.6355 6.44479 47.597 5.43507 48.9455 5.41014Z" fill="#666666"/>
<path d="M122.289 148.354C120.94 148.342 119.954 147.357 119.966 146.011C119.979 144.664 120.965 143.679 122.314 143.692C123.662 143.704 124.649 144.689 124.636 146.035C124.636 147.382 123.65 148.354 122.289 148.354Z" fill="#666666"/>
<path d="M145.014 164.447C145.039 163.213 146.075 162.203 147.311 162.216C148.547 162.241 149.558 163.276 149.546 164.51C149.521 165.744 148.485 166.753 147.249 166.741C146.012 166.716 145.001 165.681 145.014 164.447Z" fill="#666666"/>
<path d="M46.6731 19.085C47.9092 19.0476 48.9705 20.0573 48.9955 21.2914C49.033 22.5255 48.0216 23.5851 46.7855 23.61C45.5493 23.6474 44.488 22.6377 44.463 21.4036C44.4256 20.1695 45.437 19.1099 46.6731 19.085Z" fill="#666666"/>
<path d="M53.2657 61.8547C54.4644 61.8921 55.5007 62.9891 55.4383 64.1733C55.3759 65.37 54.2521 66.4296 53.0659 66.2925C51.7924 66.1429 51.0307 65.3575 50.9808 64.0611C50.9433 62.8769 52.0795 61.8298 53.2657 61.8547Z" fill="#666666"/>
<path d="M106.769 143.767C106.756 142.57 107.83 141.51 109.029 141.523C110.227 141.535 111.326 142.632 111.226 143.817C111.114 145.1 110.352 145.873 109.066 145.973C107.867 146.06 106.781 144.963 106.769 143.767Z" fill="#666666"/>
<path d="M131.479 162.253C131.454 161.094 132.453 160.059 133.614 160.034C134.775 160.009 135.811 161.007 135.836 162.166C135.861 163.325 134.862 164.36 133.701 164.385C132.54 164.41 131.504 163.413 131.479 162.253Z" fill="#666666"/>
<path d="M44.5004 32.4482C45.6617 32.4731 46.6605 33.5078 46.6356 34.6671C46.6106 35.8264 45.5743 36.8237 44.413 36.7987C43.2518 36.7738 42.253 35.7391 42.2779 34.5798C42.3029 33.4205 43.3392 32.4233 44.5004 32.4482Z" fill="#666666"/>
<path d="M239.758 181.363C239.733 180.166 240.782 179.094 241.981 179.082C243.179 179.082 244.29 180.154 244.203 181.338C244.116 182.635 243.354 183.395 242.068 183.52C240.894 183.644 239.795 182.56 239.758 181.363Z" fill="#666666"/>
<path d="M81.9338 125.679C81.8964 124.482 82.8453 123.473 84.044 123.535C85.3051 123.585 86.0292 124.295 86.1167 125.554C86.2041 126.751 85.2177 127.723 84.019 127.711C82.8703 127.698 81.9713 126.826 81.9338 125.679Z" fill="#666666"/>
<path d="M70.9086 109.511C70.9086 108.227 71.8825 107.255 73.0811 107.342C74.3422 107.429 75.0415 108.165 75.0914 109.424C75.1414 110.62 74.13 111.593 72.9313 111.506C71.6702 111.418 71.0085 110.67 70.9086 109.511Z" fill="#666666"/>
<path d="M59.8833 93.6297C59.8958 92.3458 60.8822 91.3859 62.0809 91.4856C63.342 91.5978 64.0287 92.3333 64.0661 93.5923C64.1036 94.789 63.0797 95.7489 61.8811 95.6492C60.62 95.537 59.9707 94.789 59.8833 93.6297Z" fill="#666666"/>
<path d="M171.946 184.629C170.772 184.642 169.898 183.769 169.911 182.597C169.923 181.425 170.822 180.553 171.996 180.615C173.207 180.678 173.881 181.363 173.944 182.56C174.006 183.732 173.12 184.617 171.946 184.629Z" fill="#666666"/>
<path d="M120.241 157.653C121.215 157.753 121.939 158.352 122.002 159.573C122.064 160.732 121.128 161.655 119.966 161.58C118.755 161.493 118.106 160.795 118.081 159.586C118.056 158.489 118.93 157.653 120.241 157.653Z" fill="#666666"/>
<path d="M39.8682 48.3045C39.9556 47.0953 40.5299 46.3599 41.7536 46.2601C42.9148 46.1729 43.8637 47.0704 43.8138 48.2422C43.7638 49.4513 43.0896 50.1494 41.8784 50.1744C40.6548 50.1868 40.0305 49.4638 39.8682 48.3045Z" fill="#666666"/>
<path d="M156.326 180.428C156.413 179.219 156.988 178.484 158.211 178.384C159.373 178.297 160.321 179.194 160.272 180.366C160.222 181.575 159.547 182.273 158.336 182.298C157.1 182.31 156.488 181.587 156.326 180.428Z" fill="#666666"/>
<path d="M50.706 75.7041C51.8672 75.8662 52.5665 76.4894 52.579 77.7111C52.5914 78.8704 51.63 79.7679 50.4688 79.6433C49.2577 79.5186 48.6084 78.7956 48.6583 77.5864C48.7208 76.3648 49.4949 75.7789 50.706 75.7041Z" fill="#666666"/>
<path d="M95.4063 143.468C94.2201 143.355 93.4834 142.757 93.421 141.535C93.3585 140.376 94.2825 139.441 95.4437 139.516C96.6549 139.591 97.3416 140.289 97.3416 141.498C97.3291 142.732 96.5799 143.343 95.4063 143.468Z" fill="#666666"/>
<path d="M210.491 190.139C210.578 188.93 211.152 188.194 212.376 188.095C213.537 188.007 214.486 188.905 214.436 190.077C214.386 191.286 213.712 191.984 212.501 192.009C211.277 192.034 210.653 191.298 210.491 190.139Z" fill="#666666"/>
<path d="M198.891 189.478C197.717 189.491 196.843 188.631 196.843 187.459C196.843 186.287 197.73 185.402 198.903 185.464C200.115 185.527 200.789 186.187 200.864 187.397C200.939 188.568 200.065 189.466 198.891 189.478Z" fill="#666666"/>
<path d="M183.546 185.277C183.508 184.106 184.357 183.208 185.518 183.183C186.692 183.158 187.604 184.018 187.566 185.203C187.529 186.412 186.879 187.11 185.681 187.21C184.507 187.309 183.583 186.449 183.546 185.277Z" fill="#666666"/>
<path d="M35.8351 3.17871C36.834 3.24104 37.5707 3.82693 37.6706 5.04856C37.758 6.20787 36.859 7.15526 35.6853 7.1054C34.4741 7.05554 33.7999 6.38239 33.7374 5.17322C33.6875 4.07624 34.5366 3.21611 35.8351 3.17871Z" fill="#666666"/>
<path d="M30.953 18.3495C31.6647 17.8508 32.314 17.1278 33.1006 16.9284C34.0621 16.6791 35.0984 17.8508 34.9736 18.8605C34.8362 19.9575 34.112 20.7803 33.0507 20.5683C32.2766 20.4188 31.6398 19.6085 30.9406 19.0849C30.953 18.8481 30.953 18.5988 30.953 18.3495Z" fill="#666666"/>
<path d="M224.138 192.507C224.25 191.223 224.85 190.438 226.073 190.426C227.284 190.413 228.009 191.136 228.021 192.345C228.034 193.48 227.334 194.178 226.223 194.253C224.987 194.315 224.375 193.542 224.138 192.507Z" fill="#666666"/>
<path d="M37.4333 61.4682C38.1326 60.9571 38.7694 60.2217 39.556 59.9973C40.5049 59.723 41.5662 60.8823 41.4664 61.8921C41.354 63.0015 40.6423 63.8242 39.5685 63.6373C38.7943 63.5001 38.1451 62.7023 37.4333 62.2037C37.4458 61.9544 37.4333 61.7051 37.4333 61.4682Z" fill="#666666"/>
<path d="M106.069 159.511C105.558 158.813 104.821 158.177 104.584 157.404C104.296 156.469 105.458 155.397 106.469 155.484C107.58 155.584 108.404 156.295 108.23 157.367C108.105 158.14 107.306 158.8 106.806 159.498C106.556 159.498 106.319 159.498 106.069 159.511Z" fill="#666666"/>
<path d="M142.541 177.636C143.266 177.15 143.927 176.439 144.714 176.252C145.675 176.015 146.699 177.225 146.549 178.222C146.387 179.319 145.65 180.117 144.589 179.892C143.827 179.73 143.203 178.907 142.516 178.371C142.529 178.122 142.541 177.885 142.541 177.636Z" fill="#666666"/>
<path d="M239.371 196.671C238.884 195.96 238.01 195.237 238.047 194.552C238.072 193.941 239.034 193.006 239.721 192.869C240.794 192.657 241.656 193.53 241.481 194.627C241.369 195.35 240.595 195.973 240.12 196.646C239.858 196.659 239.608 196.659 239.371 196.671Z" fill="#666666"/>
<path d="M58.9594 109.224C58.4974 108.501 57.6359 107.753 57.6858 107.068C57.7357 106.457 58.7221 105.559 59.4089 105.435C60.4952 105.248 61.3193 106.158 61.1195 107.242C60.9821 107.965 60.1955 108.564 59.6961 109.224C59.4463 109.224 59.2091 109.224 58.9594 109.224Z" fill="#666666"/>
<path d="M70.6214 120.506C71.4954 121.59 72.307 122.164 72.4693 122.887C72.7191 123.971 71.9449 124.757 70.8087 124.806C69.6724 124.856 68.8484 124.133 68.9982 123.036C69.0856 122.301 69.8348 121.665 70.6214 120.506Z" fill="#666666"/>
<path d="M129.006 175.018C129.743 174.569 130.517 173.734 131.191 173.809C131.803 173.871 132.677 174.881 132.777 175.567C132.94 176.651 132.016 177.461 130.929 177.225C130.205 177.075 129.631 176.265 128.981 175.754C128.994 175.504 129.006 175.267 129.006 175.018Z" fill="#666666"/>
<path d="M28.7804 31.8872C29.5171 31.4384 30.2788 30.6032 30.9655 30.6655C31.5773 30.7279 32.4638 31.7251 32.5637 32.4232C32.726 33.5077 31.8021 34.318 30.7158 34.0811C29.9916 33.9315 29.4172 33.1337 28.7679 32.6226C28.7679 32.3858 28.7679 32.1365 28.7804 31.8872Z" fill="#666666"/>
<path d="M81.2845 140.837C80.8725 140.152 80.1982 139.491 80.1233 138.78C80.0109 137.708 80.8849 136.985 81.8963 137.272C82.5331 137.447 83.3572 138.344 83.3697 138.93C83.3822 139.578 82.5581 140.226 82.0961 140.875C81.8089 140.862 81.5467 140.85 81.2845 140.837Z" fill="#666666"/>
<path d="M90.8613 154.462C91.4607 154.013 92.0225 153.315 92.6843 153.178C93.7331 152.966 94.5572 153.714 94.345 154.761C94.2201 155.385 93.396 156.22 92.7842 156.307C92.2098 156.394 91.5231 155.622 90.8863 155.223C90.8863 154.961 90.8738 154.712 90.8613 154.462Z" fill="#666666"/>
<path d="M46.3859 90.8623C47.0602 90.4385 47.6969 89.7529 48.4211 89.6532C49.4949 89.516 50.2441 90.3637 49.9819 91.3734C49.8196 92.0092 48.9455 92.8568 48.3587 92.8818C47.7219 92.9067 47.0352 92.0964 46.3734 91.6601C46.3859 91.3984 46.3859 91.1241 46.3859 90.8623Z" fill="#666666"/>
<path d="M115.871 172.787C116.508 172.388 117.195 171.603 117.756 171.69C118.368 171.777 119.192 172.587 119.33 173.211C119.554 174.245 118.73 175.006 117.682 174.806C117.007 174.682 116.458 173.984 115.846 173.547C115.859 173.285 115.859 173.036 115.871 172.787Z" fill="#666666"/>
<path d="M37.296 73.5101C37.7455 74.1085 38.4572 74.6694 38.5821 75.3301C38.7943 76.3772 38.0452 77.2 37.0088 77.0005C36.3845 76.8759 35.548 76.0531 35.4606 75.4548C35.3732 74.8814 36.1473 74.1957 36.5468 73.5475C36.7841 73.5226 37.0338 73.5101 37.296 73.5101Z" fill="#666666"/>
<path d="M26.3207 45.612C26.9325 45.1757 27.5069 44.4901 28.1686 44.3654C29.2299 44.1784 30.0291 44.9388 29.8043 45.9735C29.667 46.5968 28.8179 47.407 28.2186 47.4818C27.6442 47.5566 26.97 46.7713 26.3332 46.3599C26.3332 46.1106 26.3332 45.8613 26.3207 45.612Z" fill="#666666"/>
<path d="M196.244 202.979C195.807 202.368 195.12 201.794 195.008 201.134C194.821 200.074 195.595 199.276 196.631 199.513C197.255 199.65 198.067 200.498 198.142 201.096C198.217 201.67 197.43 202.343 197.018 202.966C196.743 202.979 196.494 202.979 196.244 202.979Z" fill="#666666"/>
<path d="M183.408 196.908C183.808 197.544 184.582 198.229 184.507 198.803C184.42 199.413 183.608 200.236 182.971 200.373C181.935 200.598 181.173 199.775 181.373 198.728C181.498 198.055 182.197 197.494 182.647 196.895C182.896 196.895 183.146 196.908 183.408 196.908Z" fill="#666666"/>
<path d="M154.178 193.654C154.803 193.218 155.439 192.433 156.051 192.458C156.601 192.47 157.113 193.368 157.649 193.879C157.113 194.44 156.651 195.312 156.014 195.449C155.514 195.549 154.828 194.751 154.216 194.34C154.203 194.103 154.191 193.879 154.178 193.654Z" fill="#666666"/>
<path d="M208.381 202.879C209.042 202.505 209.742 201.782 210.353 201.844C210.89 201.907 211.802 202.991 211.702 203.378C211.54 204.001 210.678 204.749 210.041 204.824C209.542 204.886 208.93 204.013 208.368 203.552C208.368 203.328 208.381 203.103 208.381 202.879Z" fill="#666666"/>
<path d="M22.4 1.02222C22.8245 1.65797 23.5987 2.29372 23.5737 2.90453C23.5487 3.45302 22.6373 3.95165 22.1253 4.47521C21.5759 3.92672 20.7019 3.45302 20.577 2.81727C20.4772 2.31865 21.3012 1.6455 21.7133 1.04715C21.938 1.04715 22.1753 1.03468 22.4 1.02222Z" fill="#666666"/>
<path d="M167.489 195.823C168.138 195.424 168.812 194.677 169.424 194.726C169.961 194.764 170.922 195.811 170.822 196.21C170.672 196.833 169.861 197.618 169.224 197.718C168.725 197.793 168.075 196.945 167.501 196.509C167.501 196.272 167.501 196.048 167.489 195.823Z" fill="#666666"/>
<path d="M57.3986 118.997C57.8107 119.583 58.6098 120.219 58.5348 120.755C58.4599 121.316 57.6358 122.089 57.0365 122.189C56.637 122.251 55.688 121.341 55.663 120.83C55.6256 120.244 56.3373 119.621 56.7244 119.01C56.9491 119.01 57.1739 118.997 57.3986 118.997Z" fill="#666666"/>
<path d="M221.753 205.547C222.365 205.16 222.989 204.45 223.576 204.487C224.088 204.512 224.999 205.459 224.937 205.858C224.837 206.457 224.063 207.279 223.501 207.354C222.964 207.416 222.327 206.631 221.741 206.207C221.741 205.995 221.753 205.771 221.753 205.547Z" fill="#666666"/>
<path d="M69.9097 136.873C69.3353 137.309 68.711 138.107 68.1741 138.057C67.6122 138.008 66.8131 137.197 66.7007 136.599C66.6258 136.2 67.5123 135.228 68.0243 135.19C68.6111 135.14 69.2604 135.838 69.8722 136.212C69.8847 136.424 69.8972 136.649 69.9097 136.873Z" fill="#666666"/>
<path d="M45.5118 106.669C45.0748 106.095 44.2757 105.472 44.3256 104.936C44.3755 104.375 45.1871 103.577 45.7865 103.465C46.186 103.39 47.1599 104.275 47.1974 104.787C47.2473 105.372 46.5481 106.021 46.1735 106.631C45.9488 106.644 45.7365 106.656 45.5118 106.669Z" fill="#666666"/>
<path d="M102.361 170.705C102.948 170.281 103.56 169.471 104.097 169.521C104.659 169.571 105.458 170.393 105.57 170.979C105.645 171.378 104.758 172.338 104.246 172.388C103.66 172.438 103.023 171.74 102.399 171.366C102.386 171.141 102.374 170.929 102.361 170.705Z" fill="#666666"/>
<path d="M19.2285 18.2622C18.804 17.6763 17.9924 17.0655 18.0424 16.5295C18.0923 15.9685 18.9164 15.1707 19.5032 15.0585C19.9028 14.9837 20.8642 15.8688 20.9142 16.3799C20.9641 16.9658 20.2649 17.6015 19.8903 18.2248C19.678 18.2373 19.4533 18.2497 19.2285 18.2622Z" fill="#666666"/>
<path d="M140.656 191.361C141.255 190.962 141.904 190.176 142.441 190.251C143.003 190.326 143.765 191.174 143.852 191.772C143.915 192.171 142.978 193.093 142.466 193.118C141.88 193.143 141.268 192.42 140.656 192.021C140.656 191.797 140.656 191.585 140.656 191.361Z" fill="#666666"/>
<path d="M25.684 60.9945C25.2594 60.4086 24.4728 59.7729 24.5352 59.2369C24.5977 58.6759 25.4218 57.8906 26.0211 57.7908C26.4206 57.716 27.3696 58.626 27.407 59.1371C27.4445 59.723 26.7328 60.3588 26.3582 60.9696C26.1335 60.9821 25.9087 60.9945 25.684 60.9945Z" fill="#666666"/>
<path d="M15.1581 30.0048C16.1695 29.3691 16.7688 28.6959 17.2557 28.7707C17.7677 28.858 18.1672 29.6558 18.6167 30.142C18.1298 30.5907 17.6678 31.3636 17.1434 31.401C16.6564 31.4384 16.107 30.7154 15.1581 30.0048Z" fill="#666666"/>
<path d="M79.399 150.448C80.1108 151.396 80.8474 151.944 80.81 152.43C80.7725 152.954 80.0233 153.789 79.5489 153.802C79.0744 153.826 78.2628 153.066 78.1754 152.542C78.088 152.056 78.7747 151.445 79.399 150.448Z" fill="#666666"/>
<path d="M34.8112 90.7502C34.0995 89.8028 33.3753 89.2543 33.4128 88.7557C33.4502 88.2321 34.2119 87.4094 34.6739 87.3844C35.1483 87.372 35.9599 88.1324 36.0473 88.6435C36.1223 89.1421 35.4355 89.7529 34.8112 90.7502Z" fill="#666666"/>
<path d="M235.063 208.164C236.05 207.504 236.649 206.806 237.136 206.88C237.648 206.955 238.447 207.741 238.434 208.214C238.422 208.688 237.623 209.461 237.098 209.511C236.612 209.561 236.037 208.85 235.063 208.164Z" fill="#666666"/>
<path d="M126.734 189.117C127.708 188.431 128.282 187.721 128.769 187.771C129.294 187.82 130.093 188.606 130.105 189.067C130.105 189.541 129.319 190.326 128.807 190.401C128.307 190.476 127.72 189.778 126.734 189.117Z" fill="#666666"/>
<path d="M13.0979 43.3806C13.9719 42.7822 14.4839 42.1714 14.9708 42.1714C15.3829 42.1839 15.7949 42.9069 16.2069 43.3182C15.7699 43.7545 15.3829 44.4401 14.8834 44.5523C14.4963 44.6271 13.9594 43.9789 13.0979 43.3806Z" fill="#666666"/>
<path d="M21.7758 72.7621C22.6997 72.1638 23.2991 71.4906 23.6861 71.6028C24.2105 71.7399 24.5851 72.4879 25.0221 72.974C24.5477 73.3729 24.0982 74.0585 23.5987 74.0835C23.1367 74.0959 22.6373 73.4228 21.7758 72.7621Z" fill="#666666"/>
<path d="M165.229 209.747C166.128 209.187 166.664 208.601 167.164 208.638C167.576 208.663 168.338 209.536 168.25 209.822C168.1 210.321 167.464 210.919 166.939 211.007C166.565 211.069 166.053 210.383 165.229 209.747Z" fill="#666666"/>
<path d="M32.4763 104.138C31.877 103.266 31.2651 102.755 31.2651 102.268C31.2776 101.857 32.0018 101.446 32.4139 101.034C32.8509 101.471 33.5376 101.857 33.65 102.356C33.7249 102.742 33.0756 103.278 32.4763 104.138Z" fill="#666666"/>
<path d="M178.851 212.041C179.75 211.468 180.274 210.869 180.774 210.894C181.186 210.919 181.96 211.767 181.872 212.066C181.735 212.577 181.098 213.176 180.586 213.275C180.212 213.338 179.687 212.664 178.851 212.041Z" fill="#666666"/>
<path d="M43.3517 119.995C42.8273 119.072 42.2529 118.511 42.3028 118.013C42.3403 117.601 43.2393 116.878 43.5265 116.978C44.0259 117.14 44.6003 117.813 44.6627 118.324C44.7127 118.723 44.0134 119.197 43.3517 119.995Z" fill="#666666"/>
<path d="M194.271 216.504C193.697 215.606 193.097 215.083 193.122 214.584C193.147 214.173 193.996 213.4 194.296 213.487C194.808 213.624 195.407 214.26 195.507 214.771C195.57 215.158 194.895 215.669 194.271 216.504Z" fill="#666666"/>
<path d="M54.3769 136.188C53.8525 135.265 53.2782 134.704 53.3281 134.205C53.3656 133.794 54.2646 133.071 54.5518 133.171C55.0512 133.333 55.6256 134.006 55.688 134.517C55.7379 134.916 55.0387 135.39 54.3769 136.188Z" fill="#666666"/>
<path d="M64.0287 150.124C64.9402 149.588 65.4896 149.002 65.989 149.052C66.401 149.089 67.1377 149.975 67.0503 150.261C66.888 150.76 66.2387 151.346 65.7143 151.421C65.3397 151.47 64.8403 150.772 64.0287 150.124Z" fill="#666666"/>
<path d="M88.5889 168.449C89.4629 167.776 89.9998 167.053 90.3994 167.127C90.9363 167.227 91.3608 167.938 91.8353 168.386C91.3982 168.823 90.9987 169.546 90.5242 169.608C90.0622 169.67 89.5128 169.035 88.5889 168.449Z" fill="#666666"/>
<path d="M115.109 184.978C115.734 185.838 116.358 186.337 116.358 186.823C116.358 187.247 115.646 187.671 115.247 188.082C114.797 187.658 114.098 187.297 113.986 186.786C113.886 186.412 114.523 185.863 115.109 184.978Z" fill="#666666"/>
<path d="M139.969 206.644C139.345 205.908 138.683 205.472 138.733 205.11C138.795 204.637 139.395 204.225 139.757 203.789C140.169 204.138 140.868 204.45 140.906 204.824C140.956 205.285 140.444 205.796 139.969 206.644Z" fill="#666666"/>
<path d="M13.947 56.9182C13.2727 57.4667 12.8108 58.1149 12.4612 58.0526C11.9867 57.9778 11.5871 57.367 11.1626 56.993C11.5746 56.5941 11.9243 55.9708 12.3987 55.8587C12.7483 55.7963 13.2478 56.4071 13.947 56.9182Z" fill="#666666"/>
<path d="M75.2163 165.993C76.0404 165.507 76.5398 164.971 77.0018 165.008C77.3889 165.033 78.0756 165.856 77.9882 166.118C77.8384 166.591 77.2391 167.127 76.7646 167.202C76.415 167.252 75.9655 166.604 75.2163 165.993Z" fill="#666666"/>
<path d="M19.4283 86.3372C20.2524 85.8386 20.7519 85.3026 21.2139 85.34C21.6009 85.3649 22.2877 86.1752 22.2127 86.437C22.0629 86.9107 21.4761 87.4592 21.0016 87.5339C20.6395 87.5838 20.1775 86.9481 19.4283 86.3372Z" fill="#666666"/>
<path d="M99.8638 184.093C100.7 183.619 101.212 183.096 101.674 183.133C102.061 183.171 102.373 183.869 102.723 184.28C102.286 184.654 101.887 185.252 101.412 185.315C101.05 185.365 100.6 184.716 99.8638 184.093Z" fill="#666666"/>
<path d="M151.844 207.578C152.518 207.03 152.98 206.394 153.329 206.444C153.804 206.519 154.191 207.13 154.628 207.516C154.216 207.915 153.854 208.538 153.379 208.638C153.03 208.713 152.543 208.102 151.844 207.578Z" fill="#666666"/>
<path d="M6.25551 12.2163C6.75495 13.0266 7.30434 13.5252 7.27936 13.9864C7.25439 14.3729 6.45528 15.0709 6.19307 14.9962C5.7186 14.859 5.16921 14.2731 5.08181 13.7994C5.01938 13.4379 5.66866 12.9642 6.25551 12.2163Z" fill="#666666"/>
<path d="M207.581 215.332C208.131 216.005 208.768 216.467 208.718 216.816C208.643 217.289 208.031 217.676 207.644 218.112C207.244 217.701 206.62 217.339 206.52 216.865C206.445 216.529 207.057 216.03 207.581 215.332Z" fill="#666666"/>
<path d="M221.166 221.203C220.654 220.393 220.105 219.907 220.13 219.446C220.155 219.059 220.942 218.361 221.216 218.436C221.691 218.573 222.24 219.159 222.328 219.633C222.402 219.969 221.766 220.443 221.166 221.203Z" fill="#666666"/>
<path d="M111.588 200.336C112.2 199.937 112.65 199.451 112.899 199.538C113.286 199.663 113.536 200.199 113.848 200.56C113.499 200.835 113.161 201.308 112.812 201.308C112.475 201.308 112.138 200.81 111.588 200.336Z" fill="#666666"/>
<path d="M9.96385 69.2593C10.4508 69.7953 11.0127 70.1693 10.9627 70.431C10.8878 70.83 10.3884 71.1541 10.0762 71.5031C9.76407 71.2039 9.23965 70.9297 9.18971 70.5931C9.13976 70.269 9.57678 69.8701 9.96385 69.2593Z" fill="#666666"/>
<path d="M86.9282 182.036C87.4901 181.563 87.8896 181.027 88.1394 181.076C88.5389 181.164 88.8386 181.662 89.1882 181.986C88.8761 182.286 88.5889 182.797 88.2393 182.834C87.9146 182.884 87.54 182.435 86.9282 182.036Z" fill="#666666"/>
<path d="M125.086 202.754C125.71 202.256 126.147 201.682 126.434 201.745C126.859 201.832 127.183 202.38 127.558 202.742C127.221 203.066 126.896 203.614 126.534 203.664C126.159 203.689 125.747 203.191 125.086 202.754Z" fill="#666666"/>
<path d="M178.102 227C177.665 226.414 177.14 226.003 177.215 225.741C177.328 225.354 177.84 225.068 178.177 224.744C178.464 225.068 178.963 225.392 178.988 225.728C179.001 226.053 178.526 226.414 178.102 227Z" fill="#666666"/>
<path d="M63.1672 164.821C62.7801 164.21 62.2931 163.749 62.3805 163.5C62.5179 163.113 63.0548 162.877 63.4169 162.577C63.6791 162.926 64.1536 163.275 64.1536 163.625C64.1536 163.949 63.6416 164.273 63.1672 164.821Z" fill="#666666"/>
<path d="M0 41.037C0.599333 40.6381 1.04883 40.1395 1.29855 40.2143C1.68562 40.339 1.94783 40.8625 2.25998 41.224C1.92286 41.4983 1.57325 41.9844 1.23612 41.9844C0.898999 41.9844 0.561874 41.4983 0 41.037Z" fill="#666666"/>
<path d="M3.69587 26.0657C4.1204 26.7388 4.64482 27.225 4.54493 27.5117C4.40758 27.9231 3.83322 28.1848 3.43367 28.5214C3.14649 28.1474 2.62207 27.7735 2.62207 27.3995C2.63456 27.0255 3.17146 26.6765 3.69587 26.0657Z" fill="#666666"/>
<path d="M39.7808 131.687C40.455 131.251 40.9295 130.715 41.2167 130.815C41.6287 130.952 41.9034 131.525 42.2405 131.899C41.8659 132.199 41.5038 132.71 41.1168 132.722C40.7672 132.735 40.3926 132.199 39.7808 131.687Z" fill="#666666"/>
<path d="M28.5432 115.993C29.0926 115.519 29.4797 114.958 29.7419 115.021C30.1414 115.096 30.4536 115.594 30.8032 115.918C30.491 116.23 30.2163 116.741 29.8792 116.791C29.5421 116.828 29.155 116.38 28.5432 115.993Z" fill="#666666"/>
<path d="M236.299 221.777C235.663 222.263 235.213 222.824 234.926 222.749C234.501 222.649 234.189 222.089 233.827 221.727C234.177 221.403 234.501 220.867 234.876 220.829C235.251 220.805 235.65 221.316 236.299 221.777Z" fill="#666666"/>
<path d="M17.5179 100.025C18.1048 99.6007 18.5293 99.0772 18.7915 99.152C19.1786 99.2642 19.4658 99.7753 19.7904 100.124C19.4533 100.411 19.1411 100.897 18.7915 100.922C18.4544 100.935 18.0923 100.461 17.5179 100.025Z" fill="#666666"/>
<path d="M52.1419 148.952C51.7548 148.342 51.2679 147.88 51.3553 147.631C51.4926 147.245 52.0295 147.008 52.3916 146.709C52.6538 147.058 53.1283 147.407 53.1283 147.756C53.1283 148.08 52.6164 148.404 52.1419 148.952Z" fill="#666666"/>
</g>
</svg>
