<svg width="212" height="42" viewBox="0 0 212 42" fill="none" xmlns="http://www.w3.org/2000/svg">
<g clip-path="url(#clip0_68_99)">
<path d="M55.1963 20.1076L44.107 6.04443C43.601 5.40519 42.9074 4.95546 42.1371 4.74899C41.8215 4.66413 41.4946 4.6217 41.1649 4.6217H37.3756L35.2237 9.78933H37.9669C38.632 9.78933 39.2688 10.0297 39.7549 10.4653C39.88 10.57 39.9937 10.686 40.0932 10.8189L48.1152 20.9929C49.1897 22.3562 49.1897 24.2683 48.1152 25.6316L40.0932 35.8056C39.5815 36.4562 38.7969 36.8352 37.964 36.8352H22.0848L19.9272 42.0028H41.162C42.3133 42.0028 43.3964 41.4767 44.107 40.5801L55.1963 26.5169C56.6773 24.6332 56.6773 21.9885 55.1963 20.1076Z" fill="url(#paint0_linear_68_99)"/>
<path d="M1.11082 21.8952L12.2001 35.9584C12.7061 36.5976 13.3997 37.0473 14.1701 37.2538C14.4856 37.3387 14.8125 37.3811 15.1423 37.3811H18.9315L21.0835 32.2135H18.3403C17.6751 32.2135 17.0383 31.9731 16.5522 31.5375C16.4272 31.4328 16.3134 31.3169 16.214 31.1839L8.19193 21.0099C7.1174 19.6466 7.1174 17.7345 8.19193 16.3712L16.214 6.19718C16.7256 5.54663 17.5102 5.16762 18.3431 5.16762H34.2223L36.3799 -2.61892e-06H15.1451C13.9938 -2.61892e-06 12.9108 0.526093 12.2001 1.42272L1.11082 15.4859C-0.37021 17.3697 -0.37021 20.0143 1.11082 21.8952Z" fill="url(#paint1_linear_68_99)"/>
<path d="M24.7427 42H19.9272L35.5079 4.6217H40.3263L24.7427 42Z" fill="url(#paint2_linear_68_99)"/>
<path d="M31.5625 0H36.378L20.7973 37.3783H15.979L31.5625 0Z" fill="url(#paint3_linear_68_99)"/>
</g>
<path d="M80.3289 18.7404C80.2004 18.2937 80.0199 17.899 79.7873 17.5564C79.5548 17.2076 79.2703 16.9139 78.9338 16.6753C78.6033 16.4305 78.224 16.2439 77.7956 16.1154C77.3734 15.9869 76.9053 15.9226 76.3914 15.9226C75.4307 15.9226 74.5863 16.1613 73.8581 16.6385C73.1361 17.1158 72.5732 17.8103 72.1693 18.722C71.7655 19.6276 71.5636 20.7351 71.5636 22.0446C71.5636 23.354 71.7624 24.4677 72.1602 25.3855C72.5579 26.3033 73.1208 27.0039 73.849 27.4873C74.5771 27.9646 75.4368 28.2032 76.4281 28.2032C77.3275 28.2032 78.0955 28.0441 78.7318 27.726C79.3743 27.4017 79.8638 26.9458 80.2004 26.3584C80.543 25.771 80.7143 25.0765 80.7143 24.2749L81.522 24.3942H76.6759V21.4021H84.5417V23.7701C84.5417 25.4222 84.1929 26.8418 83.4954 28.0288C82.7978 29.2098 81.8372 30.1215 80.6134 30.764C79.3896 31.4003 77.9884 31.7185 76.4097 31.7185C74.6475 31.7185 73.0994 31.33 71.7655 30.5529C70.4316 29.7697 69.3914 28.6591 68.6449 27.2211C67.9045 25.7771 67.5343 24.0638 67.5343 22.0813C67.5343 20.5577 67.7546 19.1993 68.1951 18.0061C68.6418 16.8068 69.2659 15.7911 70.0675 14.9589C70.8691 14.1267 71.8022 13.4934 72.8669 13.059C73.9316 12.6246 75.085 12.4073 76.3271 12.4073C77.3918 12.4073 78.3831 12.5634 79.3009 12.8754C80.2187 13.1814 81.0325 13.6158 81.7423 14.1788C82.4582 14.7417 83.0426 15.4117 83.4954 16.1888C83.9482 16.9598 84.2388 17.8103 84.3673 18.7404H80.3289ZM91.4736 31.7277C90.5742 31.7277 89.7726 31.5717 89.0689 31.2596C88.3652 30.9414 87.8084 30.4733 87.3985 29.8553C86.9946 29.2312 86.7927 28.4541 86.7927 27.524C86.7927 26.7408 86.9365 26.083 87.2241 25.5507C87.5117 25.0184 87.9033 24.59 88.3989 24.2657C88.8945 23.9414 89.4575 23.6967 90.0877 23.5315C90.7241 23.3663 91.391 23.25 92.0886 23.1827C92.9085 23.097 93.5694 23.0175 94.0711 22.944C94.5729 22.8645 94.9369 22.7482 95.1633 22.5953C95.3897 22.4423 95.5029 22.2159 95.5029 21.9161V21.861C95.5029 21.2797 95.3194 20.83 94.9522 20.5118C94.5912 20.1936 94.0772 20.0345 93.4103 20.0345C92.7066 20.0345 92.1467 20.1906 91.7306 20.5026C91.3145 20.8086 91.0392 21.1941 90.9046 21.6591L87.2883 21.3654C87.4719 20.5087 87.8329 19.7684 88.3714 19.1442C88.9098 18.514 89.6043 18.0306 90.4548 17.694C91.3115 17.3514 92.3027 17.1801 93.4286 17.1801C94.2118 17.1801 94.9614 17.2718 95.6773 17.4554C96.3993 17.639 97.0388 17.9235 97.5956 18.309C98.1585 18.6945 98.6021 19.1901 98.9264 19.7959C99.2507 20.3955 99.4129 21.1145 99.4129 21.9528V31.4615H95.7048V29.5066H95.5947C95.3683 29.9471 95.0654 30.3357 94.686 30.6722C94.3067 31.0026 93.8508 31.2627 93.3185 31.4524C92.7861 31.6359 92.1712 31.7277 91.4736 31.7277ZM92.5934 29.0293C93.1686 29.0293 93.6764 28.9161 94.117 28.6897C94.5576 28.4572 94.9033 28.1451 95.1541 27.7535C95.405 27.3619 95.5305 26.9183 95.5305 26.4226V24.9266C95.4081 25.0061 95.2398 25.0795 95.0256 25.1468C94.8176 25.208 94.582 25.2662 94.3189 25.3212C94.0558 25.3702 93.7927 25.4161 93.5296 25.4589C93.2665 25.4956 93.0278 25.5293 92.8137 25.5599C92.3548 25.6272 91.954 25.7343 91.6113 25.8811C91.2687 26.028 91.0025 26.2268 90.8128 26.4777C90.6231 26.7225 90.5283 27.0284 90.5283 27.3955C90.5283 27.9279 90.721 28.3348 91.1065 28.6163C91.4981 28.8916 91.9937 29.0293 92.5934 29.0293ZM102.52 31.4615V12.6643H106.43V19.7316H106.549C106.72 19.3523 106.968 18.9668 107.292 18.5752C107.623 18.1774 108.051 17.847 108.577 17.5839C109.11 17.3147 109.771 17.1801 110.56 17.1801C111.588 17.1801 112.536 17.4493 113.405 17.9878C114.274 18.5201 114.969 19.3247 115.489 20.4017C116.009 21.4725 116.269 22.8156 116.269 24.4309C116.269 26.0035 116.015 27.3313 115.507 28.4143C115.005 29.4913 114.32 30.3081 113.451 30.8649C112.588 31.4156 111.622 31.691 110.551 31.691C109.792 31.691 109.146 31.5656 108.614 31.3147C108.088 31.0638 107.657 30.7487 107.32 30.3693C106.983 29.9838 106.726 29.5953 106.549 29.2037H106.375V31.4615H102.52ZM106.347 24.4126C106.347 25.2509 106.463 25.9821 106.696 26.6062C106.928 27.2303 107.265 27.7168 107.705 28.0656C108.146 28.4082 108.681 28.5795 109.312 28.5795C109.948 28.5795 110.487 28.4052 110.927 28.0564C111.368 27.7015 111.701 27.212 111.928 26.5878C112.16 25.9576 112.276 25.2325 112.276 24.4126C112.276 23.5988 112.163 22.8829 111.937 22.2649C111.71 21.6468 111.377 21.1635 110.936 20.8147C110.496 20.4659 109.954 20.2915 109.312 20.2915C108.675 20.2915 108.137 20.4598 107.696 20.7963C107.262 21.1329 106.928 21.6101 106.696 22.2281C106.463 22.8461 106.347 23.5743 106.347 24.4126ZM118.878 31.4615V17.3636H122.668V19.8234H122.815C123.072 18.9484 123.504 18.2876 124.109 17.8409C124.715 17.3881 125.413 17.1617 126.202 17.1617C126.398 17.1617 126.609 17.1739 126.835 17.1984C127.062 17.2229 127.261 17.2566 127.432 17.2994V20.7688C127.248 20.7137 126.995 20.6648 126.67 20.6219C126.346 20.5791 126.049 20.5577 125.78 20.5577C125.205 20.5577 124.691 20.6831 124.238 20.934C123.791 21.1788 123.436 21.5214 123.173 21.962C122.916 22.4025 122.788 22.9104 122.788 23.4856V31.4615H118.878ZM129.454 31.4615V17.3636H133.363V31.4615H129.454ZM131.418 15.5463C130.836 15.5463 130.338 15.3536 129.922 14.9681C129.512 14.5765 129.307 14.1084 129.307 13.5638C129.307 13.0253 129.512 12.5634 129.922 12.1779C130.338 11.7863 130.836 11.5905 131.418 11.5905C131.999 11.5905 132.495 11.7863 132.905 12.1779C133.321 12.5634 133.529 13.0253 133.529 13.5638C133.529 14.1084 133.321 14.5765 132.905 14.9681C132.495 15.3536 131.999 15.5463 131.418 15.5463ZM142.92 31.7369C141.47 31.7369 140.222 31.4432 139.176 30.8558C138.135 30.2622 137.334 29.4239 136.771 28.3409C136.208 27.2517 135.927 25.9637 135.927 24.4768C135.927 23.0267 136.208 21.7539 136.771 20.6586C137.334 19.5634 138.126 18.7098 139.148 18.0979C140.176 17.486 141.382 17.1801 142.764 17.1801C143.694 17.1801 144.56 17.33 145.362 17.6298C146.17 17.9235 146.873 18.3671 147.473 18.9607C148.079 19.5542 148.55 20.3007 148.886 21.2002C149.223 22.0935 149.391 23.1399 149.391 24.3392V25.413H137.487V22.9899H145.711C145.711 22.427 145.588 21.9283 145.343 21.4939C145.099 21.0594 144.759 20.7198 144.325 20.4751C143.896 20.2242 143.398 20.0988 142.829 20.0988C142.235 20.0988 141.709 20.2364 141.25 20.5118C140.797 20.781 140.442 21.1451 140.185 21.604C139.928 22.0568 139.797 22.5616 139.791 23.1184V25.4222C139.791 26.1197 139.919 26.7225 140.176 27.2303C140.439 27.7382 140.809 28.1298 141.287 28.4052C141.764 28.6805 142.33 28.8182 142.985 28.8182C143.419 28.8182 143.817 28.757 144.178 28.6346C144.539 28.5122 144.848 28.3287 145.105 28.0839C145.362 27.8392 145.558 27.5393 145.692 27.1844L149.309 27.4231C149.125 28.292 148.749 29.0507 148.18 29.6993C147.617 30.3418 146.889 30.8435 145.995 31.2045C145.108 31.5594 144.083 31.7369 142.92 31.7369ZM155.853 12.6643V31.4615H151.943V12.6643H155.853ZM171.41 31.4615H165.903V12.6643H171.74C173.533 12.6643 175.066 13.0376 176.339 13.7841C177.618 14.5306 178.597 15.6014 179.276 16.9965C179.955 18.3916 180.295 20.0651 180.295 22.017C180.295 23.9873 179.946 25.6792 179.248 27.0927C178.557 28.5 177.547 29.58 176.219 30.3326C174.898 31.0852 173.295 31.4615 171.41 31.4615ZM167.619 29.9196H171.309C172.924 29.9196 174.277 29.6014 175.366 28.965C176.455 28.3287 177.272 27.42 177.816 26.2391C178.361 25.0581 178.633 23.6508 178.633 22.017C178.627 20.3955 178.358 19.0004 177.826 17.8317C177.299 16.663 176.516 15.7666 175.476 15.1425C174.442 14.5184 173.163 14.2063 171.639 14.2063H167.619V29.9196ZM189.815 31.7552C188.499 31.7552 187.361 31.4493 186.4 30.8374C185.44 30.2194 184.696 29.3658 184.17 28.2767C183.65 27.1814 183.39 25.9209 183.39 24.4952C183.39 23.0756 183.65 21.8151 184.17 20.7137C184.696 19.6062 185.421 18.7404 186.345 18.1163C187.275 17.486 188.349 17.1709 189.567 17.1709C190.332 17.1709 191.069 17.3116 191.779 17.5931C192.489 17.8684 193.125 18.2937 193.688 18.8689C194.257 19.4379 194.707 20.1569 195.037 21.0258C195.368 21.8885 195.533 22.9104 195.533 24.0913V24.899H184.519V23.458H193.862C193.862 22.5524 193.679 21.7386 193.312 21.0166C192.951 20.2885 192.446 19.7133 191.797 19.2911C191.155 18.8689 190.411 18.6578 189.567 18.6578C188.674 18.6578 187.887 18.8964 187.208 19.3737C186.529 19.851 185.997 20.4812 185.611 21.2644C185.232 22.0476 185.039 22.9043 185.033 23.8343V24.6971C185.033 25.8169 185.226 26.7959 185.611 27.6342C186.003 28.4663 186.556 29.1119 187.272 29.5708C187.988 30.0297 188.836 30.2592 189.815 30.2592C190.482 30.2592 191.066 30.1552 191.568 29.9471C192.076 29.7391 192.501 29.4607 192.844 29.1119C193.192 28.757 193.455 28.3684 193.633 27.9462L195.184 28.451C194.97 29.0446 194.618 29.5922 194.129 30.094C193.645 30.5957 193.039 30.9996 192.311 31.3055C191.589 31.6053 190.757 31.7552 189.815 31.7552ZM209.617 17.3636L204.468 31.4615H202.724L197.575 17.3636H199.346L203.532 29.3046H203.66L207.846 17.3636H209.617Z" fill="white"/>
<defs>
<linearGradient id="paint0_linear_68_99" x1="55.0956" y1="23.3115" x2="21.5077" y2="23.3115" gradientUnits="userSpaceOnUse">
<stop stop-color="#2361FF"/>
<stop offset="0.1734" stop-color="#2361FF" stop-opacity="0.8266"/>
<stop offset="0.4685" stop-color="#2361FF"/>
<stop offset="0.8471" stop-color="#2361FF" stop-opacity="0.1529"/>
<stop offset="1" stop-color="#2361FF" stop-opacity="0"/>
</linearGradient>
<linearGradient id="paint1_linear_68_99" x1="1.21148" y1="18.6913" x2="34.7994" y2="18.6913" gradientUnits="userSpaceOnUse">
<stop stop-color="#2361FF"/>
<stop offset="0.1734" stop-color="#2361FF" stop-opacity="0.8266"/>
<stop offset="0.4685" stop-color="#2361FF"/>
<stop offset="0.8471" stop-color="#2361FF" stop-opacity="0.1529"/>
<stop offset="1" stop-color="#2361FF" stop-opacity="0"/>
</linearGradient>
<linearGradient id="paint2_linear_68_99" x1="19.064" y1="23.3115" x2="34.6176" y2="23.3115" gradientUnits="userSpaceOnUse">
<stop stop-color="#0CA4FD"/>
<stop offset="0.25" stop-color="#2361FF"/>
<stop offset="0.5" stop-color="#2361FF" stop-opacity="0.5996"/>
<stop offset="0.75" stop-color="#2361FF" stop-opacity="0.2763"/>
<stop offset="1" stop-color="#2361FF" stop-opacity="0"/>
</linearGradient>
<linearGradient id="paint3_linear_68_99" x1="37.2408" y1="18.6894" x2="21.6872" y2="18.6894" gradientUnits="userSpaceOnUse">
<stop stop-color="#2361FF"/>
<stop offset="0.1482" stop-color="#169DFD" stop-opacity="0.8518"/>
<stop offset="0.4004" stop-color="#318AFE" stop-opacity="0.5996"/>
<stop offset="0.7237" stop-color="#2361FF" stop-opacity="0.2763"/>
<stop offset="1" stop-color="#2361FF" stop-opacity="0"/>
</linearGradient>
<clipPath id="clip0_68_99">
<rect width="56.3077" height="42" fill="white"/>
</clipPath>
</defs>
</svg>
